<?xml version="1.0" encoding="UTF-8" standalone="no"?>
<svg version="1.1" x="0px" y="0px" viewBox="0 0 96 96" xml:space="preserve" id="svg5" width="96" height="96" xmlns="http://www.w3.org/2000/svg" xmlns:svg="http://www.w3.org/2000/svg"><defs id="defs5" />
    <!-- https://www.kortic.com/drapeaux-internationaux-vectoriels-norme-3166-1-alpha-2.html : GB-GBR-826 -->
    <path fill="#2e52b2" d="M 0,16 H 96 V 80 H 0 Z" id="path1" style="stroke-width:2" />
    <path fill="white" d="m 96,16 v 8.48 L 78.72,36 H 96 V 60 H 78.72 L 96,71.52 V 80 H 87.52 L 60,61.64 V 80 H 36 V 61.64 L 8.48,80 H 0 V 71.52 L 17.28,60 H 0 V 36 H 17.28 L 0,24.48 V 16 H 8.48 L 36,34.32 V 16 H 60 V 34.32 L 87.52,16 Z" id="path2" style="stroke-width:2" />
    <g fill="#d80027" id="g5" transform="matrix(2,0,0,2,0,16)">
        <path d="M 27,0 H 21 V 13 H 0 v 6 h 21 v 13 h 6 V 19 H 48 V 13 H 27 Z" id="path3" />
        <path d="M 0,0 V 2.82 L 10.76,10 H 15 Z M 48,0 V 2.82 L 37.24,10 H 33 Z" id="path4" />
        <path d="M 0,0 V 2.82 L 10.76,10 H 15 Z M 48,0 V 2.82 L 37.24,10 H 33 Z M 0,32 V 29.18 L 10.76,22 H 15 Z m 48,0 V 29.18 L 37.24,22 H 33 Z" id="path5" />
    </g>
</svg>
