<svg xmlns="http://www.w3.org/2000/svg" viewBox="0 0 50 30">
  <path fill="#012169" d="M0,0v30h50v-30z"/>
  <path fill="#fff"    d="M 0,0 V 3.4980469 L 19.169922,15 0,26.501953 V 30 H 5.8300781 L 25,18.498047 44.169922,30 H 50 V 26.501953 L 30.830078,15 50,3.4980469 V 0 H 44.169922 L 25,11.501953 5.8300781,0 Z"/>
  <path fill="#c8102e" d="M 0,0 V 2.3324219 L 21.113281,15 H 25 Z M 25,15 50,0 H 46.112695 L 25,12.667969 Z m 0,0 25,15 V 27.667578 L 28.886719,15 Z M 25,15 0,30 H 3.8873047 L 25,17.332031 Z"/>
  <path fill="#c8102e" d="M 21,0 V 11 H 0 v 8 h 21 v 11 h 8 V 19 H 50 V 11 H 29 V 0 Z"/>
  <path fill="#fff"    d="M 20,0 V 10 H 0 v 2 H 22 V 0 Z m 8,0 V 12 H 50 V 10 H 30 V 0 Z M 0,18 v 2 h 20 v 10 h 2 V 18 Z m 28,0 v 12 h 2 V 20 h 20 v -2 z"/>
</svg>

