<?xml version="1.0" encoding="UTF-8" standalone="no"?>
<svg
   version="1.1"
   x="0px"
   y="0px"
   width="512"
   height="512"
   viewBox="0 0 512 512"
   xml:space="preserve"
   id="favicon.svg"
   xmlns="http://www.w3.org/2000/svg"
   xmlns:svg="http://www.w3.org/2000/svg"><defs
     id="defs1" /><circle
     style="display:inline;fill:#2d91d0;fill-opacity:1;stroke-width:2.84444;stroke-dasharray:none"
     id="path19"
     cx="251.73334"
     cy="251.73334"
     r="251.73334" /><circle
     style="fill:#ffffff;stroke-width:1.67821"
     id="path20"
     cx="251.73334"
     cy="251.73334"
     r="8.3911104" /><path
     style="fill:none;fill-opacity:1;stroke:#ffffff;stroke-width:3.14177;stroke-linecap:round;stroke-dasharray:none;stroke-opacity:1"
     d="m 363.21278,394.71505 c 0,0 66.44139,-54.0484 69.14513,-138.85764 2.33408,-73.21356 -34.33396,-115.42046 -34.33396,-115.42046 v 0"
     id="path53" /><path
     style="fill:none;fill-opacity:1;stroke:#ffffff;stroke-width:3.14177;stroke-linecap:round;stroke-dasharray:none;stroke-opacity:1"
     d="m 406.39776,112.89852 c 16.66174,22.45713 52.88291,69.54466 49.62301,140.53817 -3.2599,70.99352 -43.55597,137.00659 -88.83243,168.15681"
     id="path54" /><path
     style="fill:none;fill-opacity:1;stroke:#ffffff;stroke-width:3.14177;stroke-linecap:round;stroke-dasharray:none;stroke-opacity:1"
     d="m 412.9093,85.409858 c 38.37268,37.086122 65.75689,82.493282 68.20185,164.154822 2.56123,85.54487 -49.17549,164.43058 -122.93877,206.94691"
     id="path55" /><path
     style="fill:none;fill-opacity:1;stroke:#ffffff;stroke-width:3.14177;stroke-linecap:round;stroke-dasharray:none;stroke-opacity:1"
     d="m 144.27032,396.28061 c 0,0 -66.44139,-54.0484 -69.145133,-138.85764 -2.334083,-73.21356 34.333963,-115.42046 34.333963,-115.42046 v 0"
     id="path53-6" /><path
     style="fill:none;fill-opacity:1;stroke:#ffffff;stroke-width:3.14177;stroke-linecap:round;stroke-dasharray:none;stroke-opacity:1"
     d="M 101.08533,114.46408 C 84.423595,136.92121 48.202433,184.00874 51.462331,255.00225 54.72223,325.99577 95.018298,392.00884 140.29476,423.15907"
     id="path54-8" /><path
     style="fill:none;fill-opacity:1;stroke:#ffffff;stroke-width:3.14177;stroke-linecap:round;stroke-dasharray:none;stroke-opacity:1"
     d="M 94.5738,86.97542 C 56.201123,124.06154 28.816906,169.4687 26.37195,251.13024 23.810718,336.67511 75.54744,415.56083 149.31072,458.07715"
     id="path55-9" /><path
     style="clip-rule:evenodd;mix-blend-mode:normal;fill:#ffffff;fill-rule:evenodd;stroke-width:1.50049"
     d="m 341.14529,369.74076 c -0.47564,3.23209 -3.30259,4.11289 -4.30792,6.81528 -2.9965,-0.15005 -5.62238,-6.42063 -8.97149,-6.45666 -2.63339,-0.03 -5.3808,5.01019 -7.17389,7.89264 -5.57436,8.95198 -10.05937,21.6342 -9.33012,34.80557 0.40814,7.37946 2.01819,15.5797 5.74243,19.01584 9.042,-4.58853 10.59802,-16.66905 13.27641,-27.6287 -4.27793,-0.13954 -7.96015,3.23509 -12.19907,4.30643 -0.91079,-2.51034 -3.72272,-4.83009 -2.51482,-7.53401 0.90781,-2.03168 9.13803,-4.77458 11.48481,-5.38078 7.41849,-1.92515 12.82778,3.43463 11.84045,11.84044 -1.43298,12.17505 -10.32944,31.38145 -19.73608,33.01098 -5.52933,0.95581 -9.14554,-1.98815 -11.12169,-5.02667 -5.18121,-7.95265 -5.73641,-22.94113 -5.02218,-32.64936 0.54617,-7.471 3.16456,-16.77409 6.45516,-23.32226 3.11653,-6.19557 8.47181,-13.97115 12.9193,-16.50551 7.57302,-4.31692 13.07836,1.97767 18.6587,6.81677 z"
     id="path1-6" /><path
     style="clip-rule:evenodd;mix-blend-mode:normal;fill:#ffffff;fill-rule:evenodd;stroke-width:1.50049"
     d="m 297.72685,366.86881 c 0.11258,13.84212 -4.59154,26.91747 -7.17541,40.18638 -1.99415,10.2304 -3.81276,20.38277 -5.38078,31.21789 -1.56502,1.27243 -2.34978,3.12554 -4.66657,3.22907 -7.2624,0.3226 -8.66388,-15.47014 -10.76457,-21.88628 -3.12105,-9.52816 -5.59537,-17.70589 -7.1784,-25.47548 -4.5165,16.75609 -6.12953,36.28958 -10.76159,52.02682 -3.06401,0.6122 -5.69439,-1.15839 -7.89563,-1.07585 3.63421,-18.75025 7.32845,-39.14355 10.76459,-59.20672 0.78777,-4.61102 0.91081,-16.38846 4.66356,-17.93996 7.20689,-2.98 7.61802,7.70056 8.97148,13.63503 3.10603,13.63354 6.36812,27.15454 10.76458,37.67454 1.75559,-10.58902 5.13022,-24.41613 7.89414,-35.52132 1.04737,-4.2119 1.45099,-8.4658 2.51184,-11.84194 0.33461,-1.06987 1.53201,-4.25541 2.15171,-5.02367 0.0496,-0.0615 -0.50867,-0.89429 0,-1.07586 1.81261,-0.64671 4.47299,0.53718 6.10105,1.07735 z"
     id="path13-4" /><path
     style="clip-rule:evenodd;mix-blend-mode:normal;fill:#ffffff;fill-rule:evenodd;stroke-width:1.50049"
     d="m 223.81221,365.79295 c 5.02517,0.22509 8.1207,-0.97532 11.84045,2.87046 2.83443,2.93197 4.29593,10.12087 4.66655,16.14687 0.60771,9.95732 -1.93115,18.88379 -4.30794,29.78191 -1.98514,9.10503 -4.71006,20.31977 -9.3301,24.75674 -6.92781,6.65622 -16.2039,1.57103 -18.65872,-6.09654 -3.08502,-9.6557 0.15606,-22.22237 1.07886,-31.57649 1.11788,-11.32277 3.91631,-20.33477 7.89264,-28.34592 2.69339,-2.09622 6.03951,-3.5337 6.81826,-7.53703 z m -0.35861,13.27794 c -4.65756,6.0635 -6.0005,25.44695 -7.17389,35.88142 -0.5882,5.20374 -2.24325,18.33461 2.51032,18.6587 2.09472,0.14105 4.26593,-5.13919 5.3808,-8.25272 5.47232,-15.25258 8.24074,-33.67272 6.09953,-50.95096 -0.24008,0 -0.47865,0 -0.71875,0 -1.44946,2.05118 -4.524,2.61385 -6.09801,4.66356 z"
     id="path12-9" /><path
     style="clip-rule:evenodd;mix-blend-mode:normal;fill:#ffffff;fill-rule:evenodd;stroke-width:1.50049"
     d="m 205.87224,366.5102 c -0.0525,3.67172 -0.75325,4.13387 -0.71874,7.89564 -7.78009,-0.69625 -15.93681,-4.19542 -20.45331,1.79308 -2.34379,3.11053 -5.9975,9.23107 -5.3808,13.27642 0.6047,3.97932 5.84595,5.84895 9.68873,10.04584 7.97215,8.7104 11.22224,28.38194 2.86895,39.82775 -1.60853,2.20874 -4.8076,5.06719 -8.96848,5.38229 -11.03468,0.83428 -12.73174,-6.86178 -13.99216,-16.50549 1.79009,-0.78026 4.17889,-2.26426 6.09653,-1.7931 1.52601,2.66189 2.15322,6.22108 3.23058,9.33011 9.41563,3.23657 11.7174,-14.60737 8.96998,-23.68088 -3.019,-9.98582 -18.3211,-11.00316 -16.50549,-25.83409 0.97082,-7.90164 7.02984,-17.18223 12.20206,-20.09469 6.8963,-3.88631 13.93364,-1.481 22.96215,0.35712 z"
     id="path6-5" /><path
     style="clip-rule:evenodd;mix-blend-mode:normal;fill:#ffffff;fill-rule:evenodd;stroke-width:1.50049"
     d="m 377.54799,270.56051 c -0.22658,2.64389 0.6017,6.34261 -0.71723,7.89562 -6.93682,0.0451 -16.4665,0.33012 -24.03951,-0.71873 -3.79928,6.12803 -4.05736,15.80026 -5.74243,24.03951 6.83929,0.0211 15.59772,-1.1479 22.24944,-2.51185 -0.31212,2.11571 1.69853,3.78877 0.71423,5.3823 -5.76043,4.56002 -16.23842,4.95465 -24.39663,6.09804 -1.28443,7.92712 -2.67539,15.74623 -3.5892,24.04099 7.57453,-1.36095 18.12154,-2.81343 26.55285,-3.58769 0.51917,2.38278 2.12319,5.75591 0.71875,7.89262 -4.72509,0.53418 -9.00901,1.80509 -13.63656,2.51333 -8.84545,1.35347 -21.92079,5.3628 -22.24341,-6.81677 -0.0585,-2.15919 0.81928,-4.16687 1.07284,-6.45814 1.56204,-13.95915 4.03186,-31.47897 7.1784,-45.57167 0.82828,-3.72123 2.75943,-8.18222 1.7931,-13.27492 10.12087,0.27309 23.67639,-0.0736 34.08536,1.07736 z"
     id="path11-8" /><path
     style="clip-rule:evenodd;mix-blend-mode:normal;fill:#ffffff;fill-rule:evenodd;stroke-width:1.50049"
     d="m 292.15304,272.71373 c 3.02801,-1.00384 6.11155,-0.21307 8.61136,0 -1.93415,16.27742 1.57253,32.7424 1.07286,47.72188 5.53085,-14.25175 11.73842,-28.83661 16.86563,-44.49281 0.63172,-1.93414 1.29343,-5.56685 2.15321,-6.45815 1.60704,-1.67004 7.15438,0.1185 7.89413,1.7916 0.48917,1.11336 -2.02567,7.13187 -2.87344,10.04884 -5.40032,18.6167 -12.26361,31.34544 -18.29711,49.87511 -1.97466,6.06652 -2.85995,18.3646 -9.68872,17.58135 -5.83245,-0.66773 -4.36047,-10.01433 -4.66506,-17.22423 -0.8763,-20.87344 -1.36096,-40.13086 -1.07286,-58.84359 z"
     id="path7-7" /><path
     style="clip-rule:evenodd;mix-blend-mode:normal;fill:#ffffff;fill-rule:evenodd;stroke-width:1.50049"
     d="m 263.44697,273.43098 c 4.44597,3.26506 9.24158,1.25891 13.63655,4.30642 3.04001,2.10969 4.63653,6.44315 5.02217,12.19906 0.71273,10.62353 -1.41346,20.84045 -4.30793,31.5765 -2.75943,10.25143 -4.89163,21.17356 -9.68574,26.19422 -6.48066,6.77926 -16.62404,3.62071 -19.01883,-4.66505 -4.41747,-15.28108 0.55219,-46.98962 5.74092,-57.76922 1.91163,-3.96732 6.56018,-8.31426 8.61286,-11.84193 z m 4.30643,8.61136 c -1.24991,2.03617 -3.75875,3.9358 -5.02667,6.45965 -4.06185,8.10419 -6.44015,30.13153 -6.45514,40.18637 -0.009,3.82178 0.22357,13.62004 3.22606,13.99366 3.33713,0.41563 5.90148,-9.08252 6.81828,-11.84044 4.53451,-13.62752 9.06751,-32.61036 5.73943,-47.36178 -1.41949,-0.49066 -2.15624,-1.66853 -4.30196,-1.43746 z"
     id="path16-1" /><path
     style="clip-rule:evenodd;mix-blend-mode:normal;fill:#ffffff;fill-rule:evenodd;stroke-width:1.50049"
     d="m 230.43598,272.35512 c -4.87514,21.79775 -7.80861,45.53415 -12.5607,67.45796 6.38763,-0.49368 14.17072,-2.30178 21.8908,-1.79462 0.53568,2.19222 1.59954,5.70491 0.35712,7.53401 -10.89211,0.5477 -30.2996,9.42314 -30.85628,-6.45964 -0.16956,-4.81061 2.04968,-11.35578 3.22907,-17.22124 3.08803,-15.3576 5.94948,-36.01649 9.68723,-50.23372 2.27326,-1.81861 5.18123,1.03984 8.25276,0.71725 z"
     id="path14-7" /><path
     style="clip-rule:evenodd;mix-blend-mode:normal;fill:#ffffff;fill-rule:evenodd;stroke-width:1.50049"
     d="m 166.41173,343.04212 c -2.19073,-0.0675 -4.88262,0.97385 -6.81677,0 -1.98666,-8.41778 -1.75108,-19.06234 -2.51184,-28.70453 -3.75124,-0.91381 -8.16272,-1.1659 -12.19906,-1.79462 -4.88563,10.66257 -8.79743,21.19908 -11.12471,33.72974 -3.03251,0.0181 -5.88346,-1.15688 -7.89263,-1.07736 3.43164,-19.31893 10.83511,-38.52383 19.01734,-55.97463 2.27926,-4.86763 5.20973,-13.70556 9.68723,-15.06949 11.88996,-3.62824 9.16955,19.17187 10.04584,30.14051 -0.27459,1.59053 1.499,1.13287 1.7946,2.1502 -1.59653,11.42182 1.28443,22.26443 0,36.60018 z m -18.30009,-38.75038 c 2.66188,0.26108 6.06202,1.52002 8.25275,1.07586 -0.97233,-6.02452 -0.52368,-12.12103 -1.43598,-17.58136 -2.52534,5.24576 -4.91714,10.62804 -6.81677,16.5055 z"
     id="path17-2" /><path
     style="clip-rule:evenodd;mix-blend-mode:normal;fill:#ffffff;fill-rule:evenodd;stroke-width:1.50049"
     d="m 325.13268,153.70065 c -0.0496,2.986 1.09986,5.99749 -0.71723,7.53552 -3.15706,2.67088 -12.62371,-0.51769 -18.65872,0.35711 -3.40763,24.3861 -7.86712,47.7924 -11.1247,70.68552 -1.70456,0.35413 -5.10621,0.0389 -7.17539,-0.35863 -1.38196,-7.14237 1.06536,-14.46629 2.15322,-21.52765 2.48782,-16.16189 4.82411,-32.68087 7.53399,-48.79924 -6.08152,-1.03534 -10.45096,-0.17406 -17.57984,-0.35711 -0.88529,-2.59588 -0.65721,-6.60821 -0.71873,-8.25276 6.28709,-0.57619 14.28625,0.018 20.81043,-0.36011 -0.0166,-0.61371 0.26707,-0.92882 0.71872,-1.07587 7.57603,1.39697 15.91282,2.02717 24.75825,2.15322 z"
     id="path5-2" /><path
     style="clip-rule:evenodd;mix-blend-mode:normal;fill:#ffffff;fill-rule:evenodd;stroke-width:1.50049"
     d="m 257.31609,150.8302 c 2.97999,1.60103 6.75975,1.02184 10.04885,2.87045 11.59587,6.52118 7.06436,29.37379 3.58771,43.77557 -2.54786,10.55301 -4.82563,21.15855 -10.04587,27.62869 -1.61904,2.00768 -5.18272,4.69957 -6.81676,5.02367 -5.26076,1.04286 -12.30559,-2.01968 -14.7109,-4.66504 -5.95999,-6.55568 -4.28993,-26.70139 -2.15322,-36.95731 1.2094,-5.80393 2.57335,-11.54184 4.66506,-16.86261 2.00917,-5.1152 4.02134,-11.4278 6.81677,-14.35377 2.08269,-2.17872 6.52718,-2.97399 7.53401,-5.74091 0.26109,-0.33611 0.65122,-0.54468 1.07435,-0.71874 z m 8.61287,22.2479 c 0.28659,-3.87278 0.34511,-12.65071 -5.38229,-12.55918 -2.1082,0.033 -3.83978,2.30927 -5.74091,2.51034 -7.01633,14.44231 -13.87362,36.64969 -9.33011,55.97613 1.74807,1.24241 3.79327,2.18621 6.45965,2.51182 8.25575,-9.44563 12.6522,-30.32808 13.99366,-48.43911 z"
     id="path3-2" /><path
     style="clip-rule:evenodd;mix-blend-mode:normal;fill:#ffffff;fill-rule:evenodd;stroke-width:1.50049"
     d="m 228.61152,153.70065 c 2.0587,14.73641 -6.66521,33.49416 -8.61135,49.51648 -0.95432,7.87012 1.92063,22.06034 -6.81528,21.88628 -6.8963,-0.1351 -8.90097,-13.70855 -10.76458,-19.73455 -2.61537,-8.44932 -5.6869,-14.74691 -8.25275,-22.24791 -3.2981,15.72524 -5.88646,34.73505 -7.89413,49.51647 -2.75642,0.83878 -5.75592,-0.21907 -8.25275,-0.35862 1.69556,-15.6397 4.29143,-32.34176 6.81827,-48.43911 1.12988,-7.21141 0.0945,-25.41546 8.25125,-25.11686 6.03801,0.22058 5.54735,8.77192 7.17689,14.71088 2.95298,10.76459 7.52952,21.42863 11.1247,30.85778 1.32495,-19.12687 8.78694,-32.1167 10.40446,-50.95096 0.77877,-0.79076 5.58488,-0.64822 6.81527,0.36012 z"
     id="path8-61" /><path
     style="clip-rule:evenodd;mix-blend-mode:normal;fill:#ffffff;fill-rule:evenodd;stroke-width:1.50049"
     d="m 374.60877,61.088195 c 0.25058,3.170555 -0.78328,4.930641 -0.35713,7.892628 -3.70022,0.112538 -6.5782,-0.5987 -9.68872,-1.074358 -1.86062,2.705399 -8.33378,12.208063 -6.45966,19.015828 1.1674,4.243414 9.53718,5.041678 13.99367,9.330105 7.79659,7.499502 6.66072,29.768412 -0.35861,37.314422 -2.92299,3.14355 -14.63138,8.46882 -19.7346,1.07736 -2.69638,-3.9058 -1.8621,-8.93098 -3.9463,-14.7109 2.11121,-0.46665 4.45498,-2.3918 6.81677,-1.43598 2.24626,2.77743 1.88464,8.16272 3.9463,11.12471 10.39247,1.56202 13.44149,-18.6167 8.25276,-25.8341 -3.8998,-5.42731 -16.72906,-6.050017 -17.94147,-15.786757 -0.34062,-2.736911 0.20257,-6.975823 1.07736,-10.047345 3.007,-10.560515 8.95197,-23.250239 24.39963,-16.865613 z"
     id="path18-5" /><path
     style="clip-rule:evenodd;mix-blend-mode:normal;fill:#ffffff;fill-rule:evenodd;stroke-width:1.50049"
     d="m 339.44455,61.805434 c -3.70923,25.952637 -4.7896,54.534146 -10.04584,78.938276 -0.97083,-0.66622 -4.37846,0.44115 -5.38231,-1.07586 -2.66638,-11.35128 1.79161,-27.77725 2.87047,-41.982474 0.95131,-12.532172 2.34227,-24.467144 4.30644,-35.164204 0,-0.358619 0,-0.717239 0,-1.075858 3.44364,-0.528176 5.73941,1.039846 8.25124,0.36012 z"
     id="path4-9" /><path
     style="clip-rule:evenodd;mix-blend-mode:normal;fill:#ffffff;fill-rule:evenodd;stroke-width:1.50049"
     d="m 281.74082,67.546345 c -0.45166,3.256083 -3.23208,4.186394 -4.30643,6.818268 -3.04603,-1.497498 -4.7626,-4.324437 -7.89265,-5.74091 -3.18105,1.366955 -11.3933,12.082021 -8.96998,18.29859 0.75326,1.934145 4.2209,2.810437 6.81677,4.665053 5.87745,4.199898 10.32194,10.410464 10.40748,20.093184 0.0644,7.62254 -2.28827,19.65955 -5.74243,24.75824 -3.94781,5.82945 -14.55786,7.91664 -19.73457,0 -3.58921,-5.48882 -2.73841,-11.83743 -4.66505,-19.37744 2.12621,-0.86729 5.83694,-2.32428 7.89412,-1.07436 1.84411,6.16705 1.03835,14.98849 6.45816,17.57985 5.03567,-4.2089 7.99315,-14.98399 7.17688,-24.75674 -1.03683,-12.415134 -16.91963,-9.552182 -17.58284,-22.605026 -0.35263,-6.963817 3.71072,-15.935302 8.61286,-21.170546 3.08653,-3.295096 6.89329,-6.075522 12.9178,-4.663552 2.90347,2.358787 6.15206,4.370955 8.60988,7.175389 z"
     id="path2-90" /><path
     style="clip-rule:evenodd;mix-blend-mode:normal;fill:#ffffff;fill-rule:evenodd;stroke-width:1.50049"
     d="m 238.68397,66.111868 c -1.12538,26.383281 -1.36695,53.651862 -5.7409,76.785052 -2.11872,-0.27459 -5.53386,0.75175 -6.09956,-1.07585 -0.38712,-15.52267 0.66773,-33.02149 2.15323,-49.516485 0.79226,-8.79743 0.97233,-16.844606 1.79609,-25.835599 2.45633,-0.639212 5.13921,-0.009 7.89114,-0.357118 z"
     id="path15-9" /><path
     style="clip-rule:evenodd;mix-blend-mode:normal;fill:#ffffff;fill-rule:evenodd;stroke-width:1.50049"
     d="m 209.9794,63.601531 c -1.49449,17.66838 0.0271,34.383945 -0.71873,51.311079 -0.39764,9.05552 0.0211,18.38862 -2.15323,25.47548 -1.74807,-0.16506 -4.2029,0.37362 -5.3823,-0.35862 -2.02267,-9.50416 -1.40297,-19.92813 -1.07586,-33.36961 -5.34628,0.31811 -8.30677,0.38563 -13.27642,0.71874 -1.15389,11.52384 -1.38646,23.97048 -3.94782,34.08685 -1.52901,-0.14705 -3.69573,0.34661 -4.66505,-0.35862 -2.24475,-23.14671 0.23558,-52.403444 3.23208,-75.713703 2.97399,-0.676725 4.57502,0.27009 8.25274,0.360122 -1.12387,10.96865 -2.7039,21.253071 -2.51183,32.652366 2.72791,1.13738 7.93014,0.576193 12.56068,0.717239 0.90631,-13.285421 -0.0165,-23.37478 1.43298,-35.164203 1.80211,-1.674558 6.5377,0.03601 8.25276,-0.35712 z"
     id="path10-1" /><path
     style="clip-rule:evenodd;mix-blend-mode:normal;fill:#ffffff;fill-rule:evenodd;stroke-width:1.50049"
     d="m 154.00474,72.930136 c -3.08803,19.102857 -0.14855,49.213384 -5.02367,68.173694 -2.12921,-0.61521 -4.23891,0.33611 -5.38079,-0.71724 -1.61604,-22.34244 0.24758,-48.305579 1.79309,-66.740716 -6.14304,-0.04201 -12.40763,-0.186061 -19.01733,-1.794597 -1.09237,-2.73391 0.42314,-6.398129 0.35712,-8.249746 15.12654,3.145048 30.9268,-0.3031 47.00465,-0.35862 1.06236,1.458486 2.21324,6.902298 0.36013,7.894129 -4.93515,2.34828 -14.89397,0.807267 -20.0932,1.793096 z"
     id="path9-7" /></svg>
