<?xml version="1.0" encoding="UTF-8" standalone="no"?>
<svg
   version="1.1"
   x="0px"
   y="0px"
   width="180"
   height="180"
   viewBox="0 0 180 180"
   xml:space="preserve"
   id="favicon.svg"
   sodipodi:docname="favicon-maskable-180x180.svg"
   inkscape:version="1.4.3 (1:1.4.3+202512261035+0d15f75042)"
   inkscape:export-filename="favicon-maskable-180x180.png"
   inkscape:export-xdpi="96"
   inkscape:export-ydpi="96"
   xmlns:inkscape="http://www.inkscape.org/namespaces/inkscape"
   xmlns:sodipodi="http://sodipodi.sourceforge.net/DTD/sodipodi-0.dtd"
   xmlns="http://www.w3.org/2000/svg"
   xmlns:svg="http://www.w3.org/2000/svg"><sodipodi:namedview
     id="namedview1"
     pagecolor="#ffffff"
     bordercolor="#000000"
     borderopacity="0.25"
     inkscape:showpageshadow="2"
     inkscape:pageopacity="0.0"
     inkscape:pagecheckerboard="0"
     inkscape:deskcolor="#d1d1d1"
     inkscape:zoom="1.016466"
     inkscape:cx="407.29351"
     inkscape:cy="365.48198"
     inkscape:window-width="2560"
     inkscape:window-height="1465"
     inkscape:window-x="0"
     inkscape:window-y="32"
     inkscape:window-maximized="1"
     inkscape:current-layer="favicon.svg" /><defs
     id="defs1" /><rect
     style="opacity:1;fill:#000000;stroke-width:0.351562"
     id="rect1"
     width="180"
     height="180"
     x="0"
     y="0" /><ellipse
     style="display:inline;fill:#999999;fill-opacity:1;stroke-width:0.999997;stroke-dasharray:none"
     id="path19-5"
     cx="91.499939"
     cy="91.499878"
     ry="88.5"
     rx="88.500061" /><circle
     style="display:inline;fill:#2d91d0;fill-opacity:1;stroke-width:0.999997;stroke-dasharray:none"
     id="path19"
     cx="88.5"
     cy="88.5"
     r="88.5" /><circle
     style="fill:#ffffff;stroke-width:0.589995"
     id="path20"
     cx="88.5"
     cy="88.5"
     inkscape:label="path20"
     r="2.9499996" /><path
     style="fill:none;fill-opacity:1;stroke:#ffffff;stroke-width:1.10453;stroke-linecap:round;stroke-dasharray:none;stroke-opacity:1"
     d="m 127.69199,138.76701 c 0,0 23.3583,-19.0014 24.30883,-48.817144 0.82058,-25.739141 -12.07053,-40.577501 -12.07053,-40.577501 v 0"
     id="path53" /><path
     style="fill:none;fill-opacity:1;stroke:#ffffff;stroke-width:1.10453;stroke-linecap:round;stroke-dasharray:none;stroke-opacity:1"
     d="m 142.87421,39.690885 c 5.85764,7.895085 18.59165,24.449295 17.44559,49.407949 -1.14606,24.958656 -15.31265,48.166376 -31.23015,59.117626"
     id="path54" /><path
     style="fill:none;fill-opacity:1;stroke:#ffffff;stroke-width:1.10453;stroke-linecap:round;stroke-dasharray:none;stroke-opacity:1"
     d="m 145.16342,30.026902 c 13.49039,13.038091 23.11766,29.001544 23.97721,57.710678 0.90043,30.07437 -17.28825,57.80762 -43.22066,72.75477"
     id="path55" /><path
     style="fill:none;fill-opacity:1;stroke:#ffffff;stroke-width:1.10453;stroke-linecap:round;stroke-dasharray:none;stroke-opacity:1"
     d="m 50.720033,139.3174 c 0,0 -23.358301,-19.00139 -24.308835,-48.817139 C 25.590622,64.76112 38.481731,49.922756 38.481731,49.922756 v 0"
     id="path53-6" /><path
     style="fill:none;fill-opacity:1;stroke:#ffffff;stroke-width:1.10453;stroke-linecap:round;stroke-dasharray:none;stroke-opacity:1"
     d="M 35.53781,40.241276 C 29.680169,48.136361 16.946167,64.690571 18.092225,89.649225 19.238283,114.60789 33.404869,137.8156 49.322374,148.76686"
     id="path54-8" /><path
     style="fill:none;fill-opacity:1;stroke:#ffffff;stroke-width:1.10453;stroke-linecap:round;stroke-dasharray:none;stroke-opacity:1"
     d="M 33.248601,30.577295 C 19.758207,43.615384 10.130943,59.578837 9.2713882,88.287971 8.3709551,118.36234 26.559646,146.0956 52.49205,161.04274"
     id="path55-9" /><path
     style="clip-rule:evenodd;mix-blend-mode:normal;fill:#ffffff;fill-rule:evenodd;stroke-width:0.527516"
     d="m 119.93389,129.98698 c -0.16721,1.13628 -1.16107,1.44594 -1.51451,2.396 -1.05345,-0.0528 -1.97661,-2.25725 -3.15404,-2.26992 -0.9258,-0.0105 -1.89168,1.76139 -2.52207,2.77476 -1.95973,3.14718 -3.53649,7.60577 -3.28012,12.23633 0.14348,2.59434 0.70952,5.47724 2.01883,6.68526 3.17883,-1.61316 3.72587,-5.86022 4.66749,-9.71322 -1.50396,-0.049 -2.79849,1.13734 -4.28874,1.51398 -0.32021,-0.88254 -1.30877,-1.69808 -0.88412,-2.64867 0.31916,-0.71427 3.21259,-1.67857 4.03763,-1.89168 2.60807,-0.67682 4.50977,1.20748 4.16266,4.16265 -0.50378,4.28029 -3.63144,11.03254 -6.93847,11.60542 -1.9439,0.33604 -3.21522,-0.69896 -3.90996,-1.76719 -1.82152,-2.79585 -2.01671,-8.06524 -1.76562,-11.47829 0.192,-2.62652 1.11255,-5.89714 2.2694,-8.19923 1.09565,-2.17813 2.97837,-4.91173 4.54194,-5.80272 2.66239,-1.51766 4.59786,0.69528 6.5597,2.39652 z"
     id="path1-6" /><path
     style="clip-rule:evenodd;mix-blend-mode:normal;fill:#ffffff;fill-rule:evenodd;stroke-width:0.527516"
     d="m 104.66959,128.97731 c 0.0396,4.86637 -1.61421,9.46318 -2.5226,14.12803 -0.70107,3.59662 -1.34043,7.16581 -1.89168,10.97503 -0.550205,0.44734 -0.826096,1.09883 -1.640593,1.13522 -2.553187,0.1134 -3.045896,-5.43872 -3.784421,-7.69439 -1.097242,-3.34974 -1.967122,-6.22473 -2.523656,-8.95622 -1.587833,5.89081 -2.154911,12.75805 -3.783371,18.29068 -1.077192,0.21521 -2.001934,-0.40725 -2.775807,-0.37823 1.277652,-6.59189 2.576408,-13.76141 3.784425,-20.81486 0.276938,-1.62107 0.320213,-5.76157 1.639534,-6.30702 2.533673,-1.04766 2.678209,2.70723 3.154035,4.79356 1.091963,4.79304 2.238791,9.54652 3.784425,13.24496 0.617198,-3.72271 1.803593,-8.5838 2.775279,-12.48797 0.36822,-1.48074 0.51012,-2.97625 0.88307,-4.16318 0.11764,-0.37612 0.5386,-1.49604 0.75646,-1.76613 0.0172,-0.0217 -0.17883,-0.3144 0,-0.37823 0.63725,-0.22737 1.57254,0.18885 2.1449,0.37875 z"
     id="path13-4" /><path
     style="clip-rule:evenodd;mix-blend-mode:normal;fill:#ffffff;fill-rule:evenodd;stroke-width:0.527516"
     d="m 78.683977,128.59908 c 1.766663,0.0791 2.854935,-0.3429 4.162658,1.00915 0.99648,1.03077 1.51029,3.55811 1.640584,5.67663 0.213637,3.50062 -0.678919,6.63883 -1.514509,10.4702 -0.697901,3.20099 -1.65588,7.14367 -3.280114,8.70354 -2.435557,2.34008 -5.696685,0.55232 -6.559706,-2.14331 -1.084579,-3.39458 0.05486,-7.81255 0.379286,-11.10111 0.393004,-3.98066 1.376828,-7.14894 2.774756,-9.96536 0.946898,-0.73696 2.123265,-1.24232 2.397045,-2.64974 z m -0.126075,4.66803 c -1.637422,2.13169 -2.109547,8.94619 -2.52207,12.61456 -0.206775,1.82944 -0.78864,6.44576 0.882537,6.5597 0.736425,0.0496 1.499741,-1.80675 1.891687,-2.90135 1.923863,-5.36224 2.897134,-11.83807 2.144366,-17.91245 -0.08441,0 -0.168262,0 -0.252675,0 -0.509576,0.72112 -1.590468,0.91894 -2.143833,1.63954 z"
     id="path12-9" /><path
     style="clip-rule:evenodd;mix-blend-mode:normal;fill:#ffffff;fill-rule:evenodd;stroke-width:0.527516"
     d="m 72.376958,128.85124 c -0.01838,1.29084 -0.264825,1.45331 -0.252675,2.77581 -2.735187,-0.24477 -5.602785,-1.47495 -7.190618,0.63038 -0.823987,1.09354 -2.108494,3.24529 -1.891687,4.66749 0.212587,1.39898 2.055217,2.05627 3.406196,3.53174 2.802709,3.06225 3.945319,9.97802 1.008615,14.00194 -0.5655,0.77651 -1.690174,1.78144 -3.152981,1.89222 -3.879379,0.29328 -4.476004,-2.41235 -4.919119,-5.80272 0.629329,-0.27431 1.469141,-0.79602 2.143312,-0.63038 0.536487,0.93582 0.75699,2.18709 1.135748,3.28011 3.310185,1.13786 4.119401,-5.1354 3.15351,-8.32531 -1.061366,-3.51063 -6.441011,-3.86829 -5.802713,-9.08229 0.341325,-2.77792 2.47143,-6.04063 4.289787,-7.06454 2.424483,-1.36628 4.898546,-0.52067 8.072632,0.12555 z"
     id="path6-5" /><path
     style="clip-rule:evenodd;mix-blend-mode:normal;fill:#ffffff;fill-rule:evenodd;stroke-width:0.527516"
     d="m 132.73171,95.118926 c -0.0796,0.929494 0.21154,2.229825 -0.25215,2.775803 -2.43872,0.01575 -5.789,0.116062 -8.45139,-0.252675 -1.33568,2.154386 -1.42642,5.554786 -2.01882,8.451386 2.40443,0.007 5.48357,-0.40355 7.82207,-0.88306 -0.10973,0.7438 0.59713,1.33198 0.2511,1.89221 -2.02515,1.60313 -5.70882,1.74187 -8.57694,2.14384 -0.45156,2.78688 -0.94057,5.53578 -1.26183,8.45191 2.66292,-0.47846 6.37085,-0.9891 9.33498,-1.2613 0.18252,0.8377 0.74644,2.02357 0.25268,2.77475 -1.66116,0.1878 -3.16723,0.6346 -4.79411,0.8836 -3.10972,0.47583 -7.70652,1.88535 -7.81994,-2.39652 -0.0206,-0.75909 0.28804,-1.46492 0.37717,-2.27045 0.54915,-4.90751 1.41745,-11.06682 2.52365,-16.021286 0.29119,-1.308244 0.97012,-2.876561 0.63039,-4.666961 3.55812,0.096 8.32373,-0.02587 11.98313,0.378757 z"
     id="path11-8" /><path
     style="clip-rule:evenodd;mix-blend-mode:normal;fill:#ffffff;fill-rule:evenodd;stroke-width:0.527516"
     d="m 102.71005,95.875916 c 1.06454,-0.352912 2.14859,-0.07493 3.02743,0 -0.67997,5.722534 0.55284,11.511004 0.37718,16.777224 1.94444,-5.01038 4.12679,-10.13787 5.92932,-15.642001 0.22208,-0.679973 0.45472,-1.957095 0.75699,-2.270445 0.56497,-0.587123 2.51521,0.04166 2.77528,0.629861 0.17197,0.391414 -0.71215,2.507295 -1.01019,3.532792 -1.89855,6.544933 -4.31143,11.019883 -6.43258,17.534223 -0.69422,2.13276 -1.00545,6.4563 -3.40619,6.18094 -2.05048,-0.23475 -1.53298,-3.52066 -1.64006,-6.05539 -0.30807,-7.33832 -0.47847,-14.10851 -0.37718,-20.687204 z"
     id="path7-7" /><path
     style="clip-rule:evenodd;mix-blend-mode:normal;fill:#ffffff;fill-rule:evenodd;stroke-width:0.527516"
     d="m 92.618074,96.128077 c 1.563034,1.147872 3.248992,0.442583 4.794097,1.513973 1.068754,0.74169 1.630032,2.265172 1.765609,4.28873 0.250575,3.73484 -0.49692,7.32672 -1.514509,11.10112 -0.97011,3.60402 -1.719712,7.44382 -3.405142,9.2089 -2.278358,2.38334 -5.84439,1.27291 -6.686307,-1.64005 -1.553017,-5.37226 0.194138,-16.51979 2.018292,-20.30949 0.672056,-1.394767 2.306314,-2.922986 3.02796,-4.163183 z m 1.51398,3.027432 c -0.439425,0.715841 -1.321436,1.383681 -1.767191,2.270971 -1.427993,2.84913 -2.264115,10.59311 -2.269384,14.12802 -0.0032,1.34359 0.0786,4.78829 1.134161,4.91964 1.17321,0.14614 2.07474,-3.19307 2.397053,-4.16265 1.594162,-4.79093 3.187796,-11.46458 2.017766,-16.650627 -0.499039,-0.1725 -0.758051,-0.58659 -1.512405,-0.505354 z"
     id="path16-1" /><path
     style="clip-rule:evenodd;mix-blend-mode:normal;fill:#ffffff;fill-rule:evenodd;stroke-width:0.527516"
     d="m 81.012645,95.749845 c -1.713915,7.663275 -2.745214,16.008095 -4.415869,23.715685 2.24565,-0.17355 4.981894,-0.80922 7.695983,-0.63092 0.188325,0.7707 0.562338,2.00563 0.12555,2.64868 -3.829257,0.19256 -10.652201,3.31282 -10.84791,-2.27097 -0.05962,-1.69123 0.720592,-3.99226 1.135218,-6.05434 1.085637,-5.39916 2.091615,-12.66205 3.405668,-17.660292 0.799192,-0.639357 1.821529,0.365587 2.90136,0.25215 z"
     id="path14-7" /><path
     style="clip-rule:evenodd;mix-blend-mode:normal;fill:#ffffff;fill-rule:evenodd;stroke-width:0.527516"
     d="m 58.504121,120.60074 c -0.770178,-0.0236 -1.716543,0.34238 -2.39652,0 -0.698434,-2.95937 -0.615615,-6.7016 -0.883069,-10.09144 -1.318796,-0.32126 -2.869706,-0.40988 -4.288732,-0.63091 -1.717605,3.74855 -3.092846,7.4528 -3.911029,11.85811 -1.066117,0.006 -2.068406,-0.40672 -2.774752,-0.37876 1.206435,-6.79182 3.809216,-13.54354 6.685781,-19.67858 0.801304,-1.711281 1.831545,-4.818366 3.405667,-5.297871 4.180066,-1.275551 3.223669,6.740111 3.531739,10.596271 -0.09652,0.55917 0.526995,0.39828 0.630915,0.75593 -0.561277,4.01549 0.45156,7.82734 0,12.86725 z m -6.433624,-13.62318 c 0.935817,0.0918 2.131178,0.53438 2.901357,0.37823 -0.34185,-2.11799 -0.184088,-4.2613 -0.504837,-6.18094 -0.887816,1.84421 -1.728682,3.73642 -2.39652,5.80271 z"
     id="path17-2" /><path
     style="clip-rule:evenodd;mix-blend-mode:normal;fill:#ffffff;fill-rule:evenodd;stroke-width:0.527516"
     d="m 114.30446,54.035385 c -0.0173,1.049764 0.38667,2.10849 -0.25216,2.649202 -1.1099,0.938982 -4.43802,-0.181987 -6.5597,0.125551 -1.198,8.573235 -2.76579,16.802013 -3.91103,24.850376 -0.59926,0.1245 -1.79515,0.0135 -2.5226,-0.126075 -0.48585,-2.510989 0.37455,-5.085803 0.757,-7.568314 0.87462,-5.681914 1.69597,-11.489366 2.64866,-17.15598 -2.13803,-0.363975 -3.67416,-0.0612 -6.180411,-0.12555 -0.31125,-0.912611 -0.231038,-2.323196 -0.252675,-2.90136 2.210306,-0.202575 5.022506,0.0064 7.316166,-0.1266 -0.006,-0.215737 0.0939,-0.32655 0.25268,-0.378236 2.66345,0.491122 5.59435,0.712676 8.70407,0.756994 z"
     id="path5-2" /><path
     style="clip-rule:evenodd;mix-blend-mode:normal;fill:#ffffff;fill-rule:evenodd;stroke-width:0.527516"
     d="m 90.462686,53.026241 c 1.047653,0.56286 2.376473,0.35925 3.532796,1.009144 4.076674,2.2926 2.483565,10.32672 1.261306,15.389846 -0.895733,3.710044 -1.696512,7.438553 -3.531751,9.713213 -0.569193,0.705825 -1.82205,1.65219 -2.396516,1.766134 -1.849488,0.366637 -4.326184,-0.710044 -5.171801,-1.640056 -2.095309,-2.304731 -1.508179,-9.387206 -0.756994,-12.992801 0.425183,-2.040446 0.904695,-4.05768 1.640063,-5.928262 0.70635,-1.798313 1.41375,-4.017585 2.39652,-5.046248 0.732195,-0.765956 2.294711,-1.045545 2.648673,-2.018287 0.0918,-0.118163 0.228938,-0.191475 0.377704,-0.252675 z m 3.02796,7.821525 c 0.100763,-1.361523 0.121313,-4.447515 -1.892208,-4.415336 -0.741166,0.01163 -1.349925,0.811853 -2.018292,0.882544 -2.466679,5.077372 -4.877445,12.884655 -3.280114,19.679107 0.614554,0.436785 1.333572,0.768589 2.27097,0.883061 2.90241,-3.32073 4.448037,-10.662217 4.919644,-17.029376 z"
     id="path3-2" /><path
     style="clip-rule:evenodd;mix-blend-mode:normal;fill:#ffffff;fill-rule:evenodd;stroke-width:0.527516"
     d="m 80.371234,54.035385 c 0.723761,5.180767 -2.343237,11.775289 -3.027428,17.408134 -0.335512,2.76684 0.675221,7.755588 -2.395995,7.694396 -2.42448,-0.04751 -3.129247,-4.81941 -3.784425,-6.937928 -0.919462,-2.970465 -1.999297,-5.184461 -2.901356,-7.821528 -1.159489,5.528403 -2.069456,12.211537 -2.775278,17.40813 -0.969056,0.2949 -2.023567,-0.07703 -2.90136,-0.126075 0.596097,-5.498333 1.508708,-11.37015 2.397049,-17.029377 0.397223,-2.535258 0.03338,-8.935121 2.900831,-8.830143 2.122737,0.07755 1.95024,3.083876 2.523124,5.171793 1.038158,3.784425 2.647099,7.533503 3.911029,10.848439 0.465802,-6.72429 3.089156,-11.291029 3.657817,-17.912449 0.273788,-0.277987 1.963433,-0.227887 2.395992,0.1266 z"
     id="path8-61" /><path
     style="clip-rule:evenodd;mix-blend-mode:normal;fill:#ffffff;fill-rule:evenodd;stroke-width:0.527516"
     d="m 131.69839,21.476318 c 0.0881,1.114648 -0.27536,1.733428 -0.12555,2.774752 -1.30086,0.03956 -2.31265,-0.21048 -3.40619,-0.377704 -0.65412,0.951117 -2.92984,4.291897 -2.27097,6.685252 0.41041,1.491825 3.35291,1.772464 4.91965,3.280114 2.74098,2.636544 2.34166,10.465459 -0.12608,13.118352 -1.02761,1.105155 -5.14384,2.97732 -6.93794,0.378757 -0.94795,-1.37313 -0.65465,-3.139796 -1.38737,-5.171797 0.74222,-0.164063 1.5662,-0.84087 2.39652,-0.504837 0.7897,0.97644 0.66257,2.869707 1.38737,3.911029 3.6536,0.549146 4.72552,-6.544931 2.90136,-9.0823 -1.37103,-1.908038 -5.88131,-2.126959 -6.30755,-5.550032 -0.11975,-0.962195 0.0712,-2.452437 0.37876,-3.532269 1.05715,-3.712681 3.14717,-8.173912 8.57799,-5.929317 z"
     id="path18-5" /><path
     style="clip-rule:evenodd;mix-blend-mode:normal;fill:#ffffff;fill-rule:evenodd;stroke-width:0.527516"
     d="m 119.33597,21.728472 c -1.30403,9.123974 -1.68384,19.172159 -3.53174,27.751735 -0.34129,-0.234224 -1.5393,0.1551 -1.89222,-0.378228 -0.9374,-3.990686 0.62987,-9.765443 1.00915,-14.759465 0.33446,-4.405842 0.82346,-8.60173 1.51398,-12.362415 0,-0.126079 0,-0.252154 0,-0.378232 1.21066,-0.185688 2.01777,0.365573 2.90083,0.126605 z"
     id="path4-9" /><path
     style="clip-rule:evenodd;mix-blend-mode:normal;fill:#ffffff;fill-rule:evenodd;stroke-width:0.527516"
     d="m 99.049504,23.746761 c -0.158787,1.144717 -1.136276,1.471779 -1.51398,2.397048 -1.070869,-0.526465 -1.674349,-1.52031 -2.77476,-2.018289 -1.118337,0.48057 -4.005454,4.247585 -3.153507,6.433098 0.264826,0.679972 1.483909,0.988044 2.39652,1.640057 2.066292,1.476527 3.628808,3.659929 3.658879,7.064009 0.0225,2.679798 -0.804469,6.911561 -2.018824,8.704068 -1.387901,2.049417 -5.117996,2.783194 -6.937935,0 -1.26183,-1.929663 -0.962718,-4.161596 -1.640055,-6.812381 0.747495,-0.304912 2.052049,-0.817128 2.775278,-0.377703 0.648319,2.168103 0.365062,5.269391 2.270445,6.180416 1.770352,-1.47969 2.810092,-5.267809 2.523124,-8.70354 -0.3645,-4.364697 -5.94831,-3.35819 -6.181467,-7.947081 -0.123975,-2.448217 1.30455,-5.602254 3.027957,-7.44277 1.085107,-1.158432 2.423422,-2.135925 4.541415,-1.639529 1.02075,0.829261 2.162831,1.536664 3.02691,2.522597 z"
     id="path2-90" /><path
     style="clip-rule:evenodd;mix-blend-mode:normal;fill:#ffffff;fill-rule:evenodd;stroke-width:0.527516"
     d="m 83.912333,23.242453 c -0.395644,9.275372 -0.48057,18.861981 -2.018288,26.994744 -0.744863,-0.09652 -1.945496,0.2643 -2.144377,-0.378228 -0.136088,-5.457188 0.23475,-11.609119 0.756997,-17.408139 0.278513,-3.092847 0.34185,-5.921932 0.631436,-9.082828 0.863554,-0.224722 1.806754,-0.0032 2.774232,-0.125549 z"
     id="path15-9" /><path
     style="clip-rule:evenodd;mix-blend-mode:normal;fill:#ffffff;fill-rule:evenodd;stroke-width:0.527516"
     d="m 73.82088,22.359913 c -0.525405,6.211539 0.0094,12.088105 -0.252675,18.039051 -0.1398,3.183581 0.0075,6.464749 -0.756994,8.956222 -0.614557,-0.05801 -1.477582,0.131363 -1.892216,-0.126075 -0.711094,-3.341306 -0.49323,-7.005982 -0.378233,-11.731501 -1.879548,0.111832 -2.920346,0.13557 -4.66749,0.252678 -0.405663,4.05135 -0.487428,8.427124 -1.387905,11.983662 -0.537543,-0.05171 -1.299281,0.121837 -1.640055,-0.126075 -0.789172,-8.137515 0.0828,-18.423105 1.136277,-26.618118 1.045545,-0.237911 1.608405,0.09495 2.901352,0.126604 -0.395107,3.856166 -0.950587,7.471783 -0.883065,11.479347 0.959033,0.39986 2.787942,0.202567 4.415865,0.252154 0.318638,-4.670656 -0.0056,-8.217696 0.503783,-12.362415 0.633555,-0.588712 2.298408,0.01267 2.90136,-0.12555 z"
     id="path10-1" /><path
     style="clip-rule:evenodd;mix-blend-mode:normal;fill:#ffffff;fill-rule:evenodd;stroke-width:0.527516"
     d="m 54.14229,25.6395 c -1.085636,6.715848 -0.05224,17.301581 -1.766134,23.967315 -0.748552,-0.2163 -1.490242,0.118163 -1.891683,-0.25215 -0.56814,-7.854761 0.08704,-16.982428 0.630382,-23.463531 -2.159663,-0.01478 -4.362056,-0.06541 -6.685781,-0.630913 -0.384034,-0.96114 0.148762,-2.249342 0.12555,-2.900301 5.317923,1.105681 10.872705,-0.10656 16.525072,-0.126079 0.3735,0.51275 0.778091,2.426589 0.1266,2.77528 -1.735012,0.825567 -5.236159,0.283804 -7.064014,0.630385 z"
     id="path9-7" /></svg>
