<?xml version="1.0" encoding="UTF-8" standalone="no"?>
<svg
   version="1.1"
   x="0px"
   y="0px"
   width="180"
   height="180"
   viewBox="0 0 180 180"
   xml:space="preserve"
   id="favicon.svg"
   xmlns="http://www.w3.org/2000/svg"
   xmlns:svg="http://www.w3.org/2000/svg"><defs
     id="defs1" /><rect
     style="opacity:1;fill:#000000;stroke-width:0.351562"
     id="rect1"
     width="180"
     height="180"
     x="0"
     y="0" /><ellipse
     style="display:inline;fill:#999999;fill-opacity:1;stroke-width:0.799998;stroke-dasharray:none"
     id="path19-5"
     cx="91.199951"
     cy="91.199905"
     ry="70.800003"
     rx="70.800049" /><circle
     style="display:inline;fill:#2d91d0;fill-opacity:1;stroke-width:0.799998;stroke-dasharray:none"
     id="path19"
     cx="88.800003"
     cy="88.800003"
     r="70.800003" /><circle
     style="fill:#ffffff;stroke-width:0.471996"
     id="path20"
     cx="88.800003"
     cy="88.800003"
     r="2.3599997" /><path
     style="fill:none;fill-opacity:1;stroke:#ffffff;stroke-width:0.883624;stroke-linecap:round;stroke-dasharray:none;stroke-opacity:1"
     d="m 120.15359,129.01361 c 0,0 18.68664,-15.20112 19.44707,-39.053717 0.65646,-20.591313 -9.65643,-32.462001 -9.65643,-32.462001 v 0"
     id="path53" /><path
     style="fill:none;fill-opacity:1;stroke:#ffffff;stroke-width:0.883624;stroke-linecap:round;stroke-dasharray:none;stroke-opacity:1"
     d="m 132.29937,49.752708 c 4.68611,6.316068 14.87332,19.559436 13.95647,39.526359 -0.91685,19.966923 -12.25012,38.533103 -24.98412,47.294103"
     id="path54" /><path
     style="fill:none;fill-opacity:1;stroke:#ffffff;stroke-width:0.883624;stroke-linecap:round;stroke-dasharray:none;stroke-opacity:1"
     d="m 134.13074,42.021522 c 10.79231,10.430472 18.49412,23.201235 19.18176,46.168542 0.72035,24.059496 -13.8306,46.246096 -34.57652,58.203816"
     id="path55" /><path
     style="fill:none;fill-opacity:1;stroke:#ffffff;stroke-width:0.883624;stroke-linecap:round;stroke-dasharray:none;stroke-opacity:1"
     d="m 58.576026,129.45392 c 0,0 -18.68664,-15.20111 -19.447068,-39.053711 -0.65646,-20.591313 9.656427,-32.462004 9.656427,-32.462004 v 0"
     id="path53-6" /><path
     style="fill:none;fill-opacity:1;stroke:#ffffff;stroke-width:0.883624;stroke-linecap:round;stroke-dasharray:none;stroke-opacity:1"
     d="M 46.430248,50.193021 C 41.744135,56.509089 31.556934,69.752457 32.47378,89.71938 c 0.916846,19.96693 12.250115,38.5331 24.984119,47.29411"
     id="path54-8" /><path
     style="fill:none;fill-opacity:1;stroke:#ffffff;stroke-width:0.883624;stroke-linecap:round;stroke-dasharray:none;stroke-opacity:1"
     d="M 44.598881,42.461836 C 33.806566,52.892307 26.104754,65.66307 25.417111,88.630377 24.696764,112.68987 39.247717,134.87648 59.99364,146.83419"
     id="path55-9" /><path
     style="clip-rule:evenodd;mix-blend-mode:normal;fill:#ffffff;fill-rule:evenodd;stroke-width:0.422013"
     d="m 113.94711,121.98958 c -0.13377,0.90903 -0.92885,1.15676 -1.21161,1.9168 -0.84276,-0.0422 -1.58128,-1.8058 -2.52323,-1.81593 -0.74064,-0.008 -1.51334,1.40911 -2.01765,2.21981 -1.56779,2.51774 -2.8292,6.08461 -2.6241,9.78906 0.11478,2.07547 0.56762,4.38179 1.61506,5.34821 2.54307,-1.29053 2.9807,-4.68818 3.734,-7.77058 -1.20317,-0.0392 -2.2388,0.90987 -3.431,1.21119 -0.25616,-0.70604 -1.04701,-1.35847 -0.70729,-2.11894 0.25533,-0.57142 2.57007,-1.34286 3.2301,-1.51334 2.08646,-0.54146 3.60782,0.96598 3.33013,3.33012 -0.40302,3.42423 -2.90515,8.82603 -5.55078,9.28433 -1.55512,0.26883 -2.57217,-0.55917 -3.12796,-1.41375 -1.45722,-2.23668 -1.61337,-6.45219 -1.4125,-9.18263 0.1536,-2.10122 0.89004,-4.71771 1.81552,-6.55939 0.87652,-1.7425 2.3827,-3.92938 3.63355,-4.64217 2.12991,-1.21413 3.67829,0.55622 5.24776,1.91721 z"
     id="path1-6" /><path
     style="clip-rule:evenodd;mix-blend-mode:normal;fill:#ffffff;fill-rule:evenodd;stroke-width:0.422013"
     d="m 101.73567,121.18185 c 0.0317,3.89309 -1.29137,7.57054 -2.018078,11.30242 -0.560856,2.8773 -1.072344,5.73265 -1.513344,8.78003 -0.440164,0.35787 -0.660877,0.87906 -1.312474,0.90817 -2.04255,0.0907 -2.436717,-4.35097 -3.027537,-6.15551 -0.877794,-2.67979 -1.573698,-4.97978 -2.018925,-7.16498 -1.270266,4.71265 -1.723929,10.20644 -3.026697,14.63255 -0.861753,0.17217 -1.601547,-0.3258 -2.220645,-0.30259 1.022121,-5.27351 2.061126,-11.00912 3.02754,-16.65188 0.22155,-1.29686 0.25617,-4.60926 1.311627,-5.04562 2.026938,-0.83813 2.142567,2.16578 2.523228,3.83485 0.87357,3.83443 1.791033,7.63721 3.02754,10.59597 0.493758,-2.97817 1.442874,-6.86704 2.220223,-9.99038 0.294576,-1.18459 0.408096,-2.381 0.706456,-3.33054 0.09411,-0.3009 0.43088,-1.19684 0.605166,-1.41291 0.0138,-0.0174 -0.143062,-0.25152 0,-0.30258 0.5098,-0.1819 1.25803,0.15108 1.71592,0.303 z"
     id="path13-4" /><path
     style="clip-rule:evenodd;mix-blend-mode:normal;fill:#ffffff;fill-rule:evenodd;stroke-width:0.422013"
     d="m 80.947182,120.87926 c 1.41333,0.0633 2.283948,-0.27432 3.330126,0.80732 0.797184,0.82462 1.208232,2.84649 1.312467,4.54131 0.17091,2.80049 -0.543135,5.31106 -1.211607,8.37616 -0.558321,2.56079 -1.324704,5.71493 -2.624091,6.96283 -1.948446,1.87206 -4.557348,0.44186 -5.247765,-1.71465 -0.867663,-2.71566 0.04389,-6.25004 0.303429,-8.88089 0.314403,-3.18452 1.101462,-5.71915 2.219805,-7.97228 0.757518,-0.58957 1.698612,-0.99386 1.917636,-2.1198 z m -0.10086,3.73443 c -1.309938,1.70535 -1.687638,7.15695 -2.017656,10.09165 -0.16542,1.46355 -0.630912,5.1566 0.706029,5.24776 0.58914,0.0397 1.199793,-1.4454 1.51335,-2.32108 1.53909,-4.2898 2.317707,-9.47046 1.715493,-14.32996 -0.06753,0 -0.13461,0 -0.20214,0 -0.407661,0.57689 -1.272375,0.73515 -1.715067,1.31163 z"
     id="path12-9" /><path
     style="clip-rule:evenodd;mix-blend-mode:normal;fill:#ffffff;fill-rule:evenodd;stroke-width:0.422013"
     d="m 75.901566,121.08099 c -0.0147,1.03267 -0.21186,1.16265 -0.20214,2.22065 -2.188149,-0.19582 -4.482228,-1.17996 -5.752494,0.5043 -0.65919,0.87484 -1.686795,2.59624 -1.51335,3.734 0.17007,1.11918 1.644174,1.64501 2.724957,2.82539 2.242167,2.4498 3.156255,7.98241 0.806892,11.20155 -0.4524,0.62121 -1.352139,1.42515 -2.522385,1.51378 -3.103503,0.23462 -3.580803,-1.92988 -3.935295,-4.64218 0.503463,-0.21945 1.175313,-0.63682 1.71465,-0.5043 0.429189,0.74865 0.605592,1.74967 0.908598,2.62408 2.648148,0.91029 3.295521,-4.10832 2.522808,-6.66024 -0.849093,-2.80851 -5.152809,-3.09464 -4.64217,-7.26584 0.27306,-2.22233 1.977144,-4.8325 3.431829,-5.65163 1.939587,-1.09302 3.918837,-0.41653 6.458106,0.10044 z"
     id="path6-5" /><path
     style="clip-rule:evenodd;mix-blend-mode:normal;fill:#ffffff;fill-rule:evenodd;stroke-width:0.422013"
     d="m 124.18537,94.095141 c -0.0637,0.743595 0.16923,1.78386 -0.20172,2.220642 -1.95098,0.0126 -4.6312,0.09285 -6.76111,-0.20214 -1.06855,1.723509 -1.14114,4.443827 -1.61506,6.761107 1.92354,0.006 4.38686,-0.32284 6.25766,-0.70645 -0.0878,0.59504 0.4777,1.06559 0.20088,1.51377 -1.62012,1.28251 -4.56706,1.3935 -6.86156,1.71507 -0.36124,2.22951 -0.75245,4.42863 -1.00946,6.76153 2.13034,-0.38277 5.09668,-0.79128 7.46798,-1.00904 0.14602,0.67016 0.59716,1.61886 0.20215,2.2198 -1.32893,0.15024 -2.53379,0.50768 -3.83529,0.70688 -2.48778,0.38067 -6.16522,1.50828 -6.25595,-1.91721 -0.0165,-0.60728 0.23043,-1.17194 0.30173,-1.81636 0.43932,-3.92601 1.13396,-8.85346 2.01892,-12.817033 0.23296,-1.046595 0.7761,-2.301249 0.50432,-3.733569 2.84649,0.0768 6.65898,-0.0207 9.5865,0.303006 z"
     id="path11-8" /><path
     style="clip-rule:evenodd;mix-blend-mode:normal;fill:#ffffff;fill-rule:evenodd;stroke-width:0.422013"
     d="m 100.16804,94.700733 c 0.85163,-0.28233 1.71887,-0.05994 2.42194,0 -0.54397,4.578027 0.44228,9.208807 0.30175,13.421777 1.55555,-4.0083 3.30143,-8.11029 4.74345,-12.513599 0.17767,-0.543978 0.36378,-1.565676 0.6056,-1.816356 0.45197,-0.469698 2.01216,0.03333 2.22022,0.503889 0.13758,0.313131 -0.56972,2.005836 -0.80815,2.826234 -1.51884,5.235942 -3.44915,8.815902 -5.14607,14.027382 -0.55537,1.7062 -0.80436,5.16504 -2.72495,4.94475 -1.64038,-0.1878 -1.22638,-2.81653 -1.31205,-4.84431 -0.24645,-5.87066 -0.38277,-11.286812 -0.30174,-16.549767 z"
     id="path7-7" /><path
     style="clip-rule:evenodd;mix-blend-mode:normal;fill:#ffffff;fill-rule:evenodd;stroke-width:0.422013"
     d="m 92.094459,94.902462 c 1.250427,0.918297 2.599194,0.354066 3.835278,1.211178 0.855003,0.593352 1.304025,1.812138 1.412487,3.430984 0.20046,2.987876 -0.397536,5.861376 -1.211607,8.880896 -0.776088,2.88322 -1.37577,5.95506 -2.724114,7.36712 -1.822686,1.90667 -4.675512,1.01833 -5.349045,-1.31204 -1.242414,-4.29781 0.15531,-13.21583 1.614633,-16.247592 0.537645,-1.115814 1.845051,-2.338389 2.422368,-3.330546 z m 1.211184,2.421945 c -0.35154,0.572673 -1.057149,1.106945 -1.413753,1.816777 -1.142394,2.279306 -1.811292,8.474486 -1.815507,11.302416 -0.0026,1.07487 0.06288,3.83063 0.907329,3.93571 0.938568,0.11691 1.659792,-2.55445 1.917642,-3.33012 1.27533,-3.83274 2.550237,-9.17166 1.614213,-13.3205 -0.399231,-0.138 -0.606441,-0.469272 -1.209924,-0.404283 z"
     id="path16-1" /><path
     style="clip-rule:evenodd;mix-blend-mode:normal;fill:#ffffff;fill-rule:evenodd;stroke-width:0.422013"
     d="m 82.810116,94.599876 c -1.371132,6.130624 -2.196171,12.806474 -3.532695,18.972544 1.79652,-0.13884 3.985515,-0.64737 6.156786,-0.50473 0.15066,0.61656 0.449871,1.6045 0.10044,2.11894 -3.063405,0.15405 -8.521761,2.65026 -8.678328,-1.81677 -0.0477,-1.35299 0.576474,-3.19381 0.908175,-4.84348 0.868509,-4.31932 1.673292,-10.129636 2.724534,-14.12823 0.639354,-0.511485 1.457223,0.29247 2.321088,0.20172 z"
     id="path14-7" /><path
     style="clip-rule:evenodd;mix-blend-mode:normal;fill:#ffffff;fill-rule:evenodd;stroke-width:0.422013"
     d="m 64.803297,114.48059 c -0.616143,-0.0189 -1.373235,0.27391 -1.917216,0 -0.558747,-2.36749 -0.492492,-5.36128 -0.706455,-8.07315 -1.055037,-0.25701 -2.295765,-0.3279 -3.430986,-0.50473 -1.374084,2.99884 -2.474277,5.96224 -3.128823,9.48649 -0.852894,0.005 -1.654725,-0.32538 -2.219802,-0.30301 0.965148,-5.43345 3.047373,-10.83483 5.348625,-15.742862 0.641043,-1.369025 1.465236,-3.854693 2.724534,-4.238297 3.344052,-1.020441 2.578935,5.392089 2.825391,8.477019 -0.07722,0.44733 0.421596,0.31862 0.504732,0.60474 -0.449022,3.21239 0.361248,6.26187 0,10.2938 z m -5.146899,-10.89854 c 0.748653,0.0734 1.704942,0.4275 2.321085,0.30258 -0.27348,-1.69439 -0.14727,-3.40904 -0.403869,-4.94475 -0.710253,1.47537 -1.382946,2.98914 -1.917216,4.64217 z"
     id="path17-2" /><path
     style="clip-rule:evenodd;mix-blend-mode:normal;fill:#ffffff;fill-rule:evenodd;stroke-width:0.422013"
     d="m 109.44357,61.228308 c -0.0138,0.839811 0.30933,1.686792 -0.20173,2.119362 -0.88792,0.751185 -3.55042,-0.14559 -5.24776,0.10044 -0.9584,6.858588 -2.21263,13.441611 -3.12882,19.880301 -0.47941,0.0996 -1.436124,0.0108 -2.018084,-0.10086 -0.38868,-2.008791 0.29964,-4.068642 0.6056,-6.054651 0.699694,-4.545531 1.356774,-9.191493 2.118924,-13.724784 -1.71042,-0.29118 -2.939324,-0.04896 -4.944325,-0.10044 -0.249,-0.730089 -0.18483,-1.858557 -0.20214,-2.321088 1.768245,-0.16206 4.018005,0.0051 5.852935,-0.10128 -0.005,-0.17259 0.0751,-0.26124 0.20214,-0.302589 2.13076,0.392898 4.47548,0.570141 6.96326,0.605595 z"
     id="path5-2" /><path
     style="clip-rule:evenodd;mix-blend-mode:normal;fill:#ffffff;fill-rule:evenodd;stroke-width:0.422013"
     d="m 90.370149,60.420993 c 0.838122,0.450288 1.901178,0.2874 2.826237,0.807315 3.261339,1.83408 1.986852,8.261376 1.009044,12.311877 -0.716586,2.968035 -1.357209,5.950842 -2.8254,7.77057 -0.455355,0.56466 -1.45764,1.321752 -1.917213,1.412907 -1.479591,0.29331 -3.460947,-0.568035 -4.137441,-1.312044 -1.676247,-1.843785 -1.206543,-7.509765 -0.605595,-10.394241 0.340146,-1.632357 0.723756,-3.246144 1.31205,-4.74261 0.56508,-1.43865 1.131,-3.214068 1.917216,-4.036998 0.585756,-0.612765 1.835769,-0.836436 2.118939,-1.61463 0.07344,-0.09453 0.18315,-0.15318 0.302163,-0.20214 z m 2.422368,6.25722 c 0.08061,-1.089219 0.09705,-3.558012 -1.513767,-3.532269 -0.592932,0.0093 -1.07994,0.649482 -1.614633,0.706035 -1.973343,4.061898 -3.901956,10.307724 -2.624091,15.743286 0.491643,0.349428 1.066857,0.614871 1.816776,0.706449 2.321928,-2.656584 3.558429,-8.529774 3.935715,-13.623501 z"
     id="path3-2" /><path
     style="clip-rule:evenodd;mix-blend-mode:normal;fill:#ffffff;fill-rule:evenodd;stroke-width:0.422013"
     d="m 82.296987,61.228308 c 0.579009,4.144614 -1.874589,9.420231 -2.421942,13.926507 -0.26841,2.213472 0.540177,6.204471 -1.916796,6.155517 -1.939584,-0.03801 -2.503398,-3.855528 -3.02754,-5.550342 -0.73557,-2.376372 -1.599438,-4.147569 -2.321085,-6.257223 -0.927591,4.422723 -1.655565,9.76923 -2.220222,13.926504 -0.775245,0.23592 -1.618854,-0.06162 -2.321088,-0.10086 0.476877,-4.398666 1.206966,-9.09612 1.917639,-13.623501 0.317778,-2.028207 0.0267,-7.148097 2.320665,-7.064115 1.698189,0.06204 1.560192,2.467101 2.018499,4.137435 0.830526,3.02754 2.117679,6.026802 3.128823,8.678751 0.372642,-5.379432 2.471325,-9.032823 2.926254,-14.329959 0.21903,-0.22239 1.570746,-0.18231 1.916793,0.10128 z"
     id="path8-61" /><path
     style="clip-rule:evenodd;mix-blend-mode:normal;fill:#ffffff;fill-rule:evenodd;stroke-width:0.422013"
     d="m 123.35871,35.181054 c 0.0705,0.891719 -0.22029,1.386743 -0.10044,2.219802 -1.04069,0.03165 -1.85012,-0.168384 -2.72495,-0.302163 -0.5233,0.760893 -2.34387,3.433517 -1.81678,5.348201 0.32833,1.19346 2.68233,1.417972 3.93572,2.624092 2.19279,2.109235 1.87333,8.372367 -0.10086,10.494681 -0.82209,0.884124 -4.11507,2.381856 -5.55035,0.303006 -0.75836,-1.098504 -0.52372,-2.511837 -1.1099,-4.137438 0.59378,-0.13125 1.25296,-0.672696 1.91722,-0.403869 0.63176,0.781152 0.53005,2.295765 1.10989,3.128823 2.92288,0.439317 3.78042,-5.235945 2.32109,-7.26584 -1.09682,-1.526431 -4.70505,-1.701567 -5.04604,-4.440026 -0.0958,-0.769756 0.057,-1.961949 0.30301,-2.825815 0.84572,-2.970145 2.51774,-6.53913 6.86239,-4.743454 z"
     id="path18-5" /><path
     style="clip-rule:evenodd;mix-blend-mode:normal;fill:#ffffff;fill-rule:evenodd;stroke-width:0.422013"
     d="m 113.46878,35.382778 c -1.04323,7.299179 -1.34708,15.337727 -2.8254,22.201388 -0.27303,-0.18738 -1.23144,0.12408 -1.51377,-0.302583 -0.74992,-3.192549 0.50389,-7.812354 0.80732,-11.807572 0.26757,-3.524673 0.65877,-6.881384 1.21118,-9.889932 0,-0.100863 0,-0.201723 0,-0.302585 0.96853,-0.148551 1.61422,0.292458 2.32067,0.101284 z"
     id="path4-9" /><path
     style="clip-rule:evenodd;mix-blend-mode:normal;fill:#ffffff;fill-rule:evenodd;stroke-width:0.422013"
     d="m 97.239603,36.997409 c -0.127029,0.915773 -0.909021,1.177423 -1.211184,1.917638 -0.856695,-0.421172 -1.339479,-1.216248 -2.219808,-1.614631 -0.894669,0.384456 -3.204363,3.398068 -2.522805,5.146478 0.21186,0.543978 1.187127,0.790436 1.917216,1.312046 1.653033,1.181222 2.903046,2.927943 2.927103,5.651207 0.018,2.143839 -0.643575,5.529249 -1.615059,6.963255 -1.110321,1.639533 -4.094397,2.226555 -5.550348,0 -1.009464,-1.543731 -0.770175,-3.329277 -1.312044,-5.449905 0.597996,-0.24393 1.641639,-0.653703 2.220222,-0.302163 0.518655,1.734483 0.29205,4.215513 1.816356,4.944333 1.416282,-1.183752 2.248074,-4.214247 2.018499,-6.962832 -0.2916,-3.491757 -4.758648,-2.686552 -4.945173,-6.357665 -0.09918,-1.958573 1.04364,-4.481803 2.422365,-5.954216 0.868086,-0.926745 1.938738,-1.70874 3.633132,-1.311623 0.8166,0.663409 1.730265,1.229331 2.421528,2.018078 z"
     id="path2-90" /><path
     style="clip-rule:evenodd;mix-blend-mode:normal;fill:#ffffff;fill-rule:evenodd;stroke-width:0.422013"
     d="m 85.129866,36.593962 c -0.316515,7.420298 -0.384456,15.089585 -1.61463,21.595796 -0.59589,-0.07722 -1.556397,0.21144 -1.715502,-0.302583 -0.10887,-4.36575 0.1878,-9.287295 0.605598,-13.926511 0.22281,-2.474278 0.27348,-4.737546 0.505149,-7.266262 0.690843,-0.179778 1.445403,-0.0026 2.219385,-0.10044 z"
     id="path15-9" /><path
     style="clip-rule:evenodd;mix-blend-mode:normal;fill:#ffffff;fill-rule:evenodd;stroke-width:0.422013"
     d="m 77.056704,35.88793 c -0.420324,4.969232 0.0075,9.670484 -0.20214,14.431241 -0.11184,2.546865 0.006,5.171799 -0.605595,7.164978 -0.491646,-0.04641 -1.182066,0.10509 -1.513773,-0.10086 -0.568875,-2.673045 -0.394584,-5.604786 -0.302586,-9.385201 -1.503639,0.08947 -2.336277,0.108456 -3.733992,0.202142 -0.324531,3.24108 -0.389943,6.7417 -1.110324,9.58693 -0.430035,-0.04137 -1.039425,0.09747 -1.312044,-0.10086 -0.631338,-6.510012 0.06624,-14.738484 0.909021,-21.294494 0.836436,-0.190329 1.286724,0.07596 2.321082,0.101283 -0.316086,3.084933 -0.76047,5.977426 -0.706452,9.183477 0.767226,0.319888 2.230353,0.162054 3.532692,0.201724 0.25491,-3.736525 -0.0045,-6.574157 0.403026,-9.889932 0.506844,-0.47097 1.838727,0.01014 2.321088,-0.10044 z"
     id="path10-1" /><path
     style="clip-rule:evenodd;mix-blend-mode:normal;fill:#ffffff;fill-rule:evenodd;stroke-width:0.422013"
     d="m 61.313832,38.5116 c -0.868509,5.372678 -0.04179,13.841265 -1.412907,19.173852 -0.598842,-0.17304 -1.192194,0.09453 -1.513347,-0.20172 -0.454512,-6.283809 0.06963,-13.585942 0.504306,-18.770825 -1.72773,-0.01182 -3.489645,-0.05233 -5.348625,-0.50473 -0.307227,-0.768912 0.11901,-1.799474 0.10044,-2.320241 4.254339,0.884545 8.698164,-0.08525 13.220058,-0.100863 0.2988,0.4102 0.622473,1.941271 0.10128,2.220224 -1.38801,0.660453 -4.188927,0.227043 -5.651211,0.504308 z"
     id="path9-7" /></svg>
