<?xml version="1.0" encoding="UTF-8" standalone="no"?>
<svg
   version="1.1"
   x="0px"
   y="0px"
   width="512"
   height="512"
   viewBox="0 0 512 512"
   xml:space="preserve"
   id="favicon.svg"
   xmlns="http://www.w3.org/2000/svg"
   xmlns:svg="http://www.w3.org/2000/svg"><defs
     id="defs1" /><rect
     style="opacity:1;fill:#000000;stroke-width:0.999999"
     id="rect1"
     width="512"
     height="512"
     x="0"
     y="0" /><ellipse
     style="display:inline;fill:#999999;fill-opacity:1;stroke-width:2.33333;stroke-dasharray:none"
     id="path19-5"
     cx="259.49988"
     cy="259.49969"
     rx="206.50014"
     ry="206.5" /><circle
     style="display:inline;fill:#2d91d0;fill-opacity:1;stroke-width:2.33333;stroke-dasharray:none"
     id="path19"
     cx="252.5"
     cy="252.5"
     r="206.5" /><circle
     style="fill:#ffffff;stroke-width:1.37666"
     id="path20"
     cx="252.5"
     cy="252.5"
     r="6.8833327" /><path
     style="fill:none;fill-opacity:1;stroke:#ffffff;stroke-width:2.57723;stroke-linecap:round;stroke-dasharray:none;stroke-opacity:1"
     d="m 343.94797,369.78968 c 0,0 54.50271,-44.33658 56.72062,-113.90665 1.91467,-60.058 -28.16458,-94.68085 -28.16458,-94.68085 v 0"
     id="path53" /><path
     style="fill:none;fill-opacity:1;stroke:#ffffff;stroke-width:2.57723;stroke-linecap:round;stroke-dasharray:none;stroke-opacity:1"
     d="m 379.37315,138.61206 c 13.66784,18.42187 43.38051,57.04836 40.70638,115.28522 -2.67414,58.23687 -35.72951,112.38821 -72.87035,137.94113"
     id="path54" /><path
     style="fill:none;fill-opacity:1;stroke:#ffffff;stroke-width:2.57723;stroke-linecap:round;stroke-dasharray:none;stroke-opacity:1"
     d="m 384.71465,116.06277 c 31.47759,30.42221 53.9412,67.67027 55.94683,134.65825 2.10101,70.17352 -40.33927,134.88446 -100.84821,169.76113"
     id="path55" /><path
     style="fill:none;fill-opacity:1;stroke:#ffffff;stroke-width:2.57723;stroke-linecap:round;stroke-dasharray:none;stroke-opacity:1"
     d="m 164.34674,371.07393 c 0,0 -54.5027,-44.33658 -56.72061,-113.90666 -1.91468,-60.05799 28.16458,-94.68084 28.16458,-94.68084 v 0"
     id="path53-6" /><path
     style="fill:none;fill-opacity:1;stroke:#ffffff;stroke-width:2.57723;stroke-linecap:round;stroke-dasharray:none;stroke-opacity:1"
     d="m 128.92156,139.89631 c -13.66783,18.42187 -43.3805,57.04836 -40.70637,115.28522 2.67414,58.23687 35.7295,112.38821 72.87035,137.94113"
     id="path54-8" /><path
     style="fill:none;fill-opacity:1;stroke:#ffffff;stroke-width:2.57723;stroke-linecap:round;stroke-dasharray:none;stroke-opacity:1"
     d="m 123.58007,117.34702 c -31.47759,30.42221 -53.9412,67.67027 -55.94683,134.65825 -2.10101,70.17352 40.33927,134.88446 100.84821,169.76113"
     id="path55-9" /><path
     style="clip-rule:evenodd;mix-blend-mode:normal;fill:#ffffff;fill-rule:evenodd;stroke-width:1.23087"
     d="m 325.84574,349.30296 c -0.39018,2.65132 -2.70916,3.37385 -3.53384,5.59066 -2.45807,-0.12309 -4.61211,-5.26693 -7.35943,-5.29648 -2.1602,-0.0246 -4.41394,4.10992 -5.88483,6.47443 -4.57272,7.34342 -8.25183,17.7468 -7.65361,28.55144 0.3348,6.05347 1.65554,12.78023 4.71058,15.59893 7.41727,-3.76402 8.69369,-13.67383 10.89081,-22.66416 -3.50924,-0.11447 -6.52981,2.65378 -10.00705,3.53261 -0.74713,-2.05926 -3.05379,-3.96218 -2.06294,-6.18024 0.74469,-1.66661 7.49604,-3.91665 9.42113,-4.41392 6.08548,-1.57922 10.52279,2.81747 9.71287,9.71286 -1.17549,9.98735 -8.47337,25.7426 -16.18975,27.07932 -4.53578,0.78406 -7.5022,-1.6309 -9.12326,-4.12344 -4.25021,-6.52366 -4.70565,-18.81889 -4.11976,-26.78268 0.44803,-6.12855 2.59593,-13.75999 5.29525,-19.13154 2.55653,-5.0823 6.94953,-11.46071 10.59786,-13.53967 6.21225,-3.54123 10.72834,1.6223 15.30597,5.59188 z"
     id="path1-6" /><path
     style="clip-rule:evenodd;mix-blend-mode:normal;fill:#ffffff;fill-rule:evenodd;stroke-width:1.23087"
     d="m 290.22905,346.94706 c 0.0924,11.35487 -3.7665,22.08074 -5.88608,32.96539 -1.63583,8.39213 -3.12765,16.72024 -4.41392,25.60843 -1.28381,1.04379 -1.92755,2.56391 -3.82805,2.64884 -5.95743,0.26463 -7.10708,-12.69035 -8.83031,-17.95359 -2.56023,-7.81607 -4.58995,-14.52436 -5.88853,-20.89785 -3.70494,13.74523 -5.02813,29.76879 -8.82786,42.67825 -2.51345,0.50219 -4.67118,-0.95024 -6.47689,-0.88253 2.98119,-15.38107 6.01162,-32.10995 8.83033,-48.56802 0.64622,-3.78247 0.74715,-13.44365 3.82558,-14.71637 5.9119,-2.44453 6.24915,6.31687 7.35941,11.18499 2.54792,11.18376 5.22385,22.2752 8.83032,30.90489 1.44013,-8.6863 4.20839,-20.02885 6.47566,-29.13858 0.85917,-3.45507 1.19027,-6.9446 2.0605,-9.71409 0.27448,-0.87763 1.25672,-3.49077 1.76507,-4.12098 0.0407,-0.0504 -0.41727,-0.7336 0,-0.88254 1.48691,-0.53051 3.66925,0.44065 5.00477,0.88376 z"
     id="path13-4" /><path
     style="clip-rule:evenodd;mix-blend-mode:normal;fill:#ffffff;fill-rule:evenodd;stroke-width:1.23087"
     d="m 229.59595,346.06452 c 4.12221,0.18464 6.66151,-0.80007 9.71287,2.35467 2.32512,2.40514 3.524,8.30228 3.82803,13.24548 0.49851,8.16812 -1.58415,15.49061 -3.53386,24.43048 -1.62844,7.46897 -3.86372,16.66856 -7.6536,20.30826 -5.68297,5.46018 -13.29226,1.28873 -15.30598,-5.00107 -2.53068,-7.92069 0.12802,-18.22929 0.885,-25.90259 0.91701,-9.28821 3.2126,-16.68086 6.47443,-23.25251 2.20943,-1.71956 4.95429,-2.89874 5.59311,-6.18272 z m -0.29417,10.89206 c -3.82066,4.97396 -4.92229,20.87445 -5.88484,29.43398 -0.4825,4.26869 -1.84016,15.04011 2.05925,15.30596 1.71833,0.11571 3.4994,-4.21574 4.41394,-6.76981 4.48901,-12.51188 6.75998,-27.62215 5.00352,-41.79571 -0.19694,0 -0.39264,0 -0.5896,0 -1.18901,1.68261 -3.71109,2.14418 -5.00227,3.82558 z"
     id="path12-9" /><path
     style="clip-rule:evenodd;mix-blend-mode:normal;fill:#ffffff;fill-rule:evenodd;stroke-width:1.23087"
     d="m 214.87957,346.65289 c -0.0431,3.01196 -0.6179,3.39106 -0.58959,6.47689 -6.38211,-0.57114 -13.07317,-3.44155 -16.77811,1.47089 -1.92264,2.5516 -4.91982,7.57236 -4.41394,10.89081 0.49605,3.26429 4.79551,4.79797 7.94779,8.24073 6.53965,7.14525 9.20574,23.28206 2.35343,32.6712 -1.31949,1.81186 -3.94373,4.15668 -7.35695,4.41516 -9.05189,0.68437 -10.44401,-5.62881 -11.47795,-13.53966 1.46844,-0.64006 3.428,-1.8574 5.00106,-1.4709 1.25181,2.18358 1.76632,5.10323 2.65009,7.6536 7.72376,2.655 9.61193,-11.98261 7.35819,-19.42572 -2.47653,-8.19149 -15.02903,-9.02603 -13.53966,-21.19203 0.79637,-6.48181 5.76666,-14.09479 10.0095,-16.48392 5.65712,-3.18799 11.42994,-1.21488 18.83614,0.29295 z"
     id="path6-5" /><path
     style="clip-rule:evenodd;mix-blend-mode:normal;fill:#ffffff;fill-rule:evenodd;stroke-width:1.23087"
     d="m 355.70733,267.94416 c -0.18587,2.16882 0.49358,5.20292 -0.58836,6.47688 -5.69036,0.037 -13.50767,0.2708 -19.71991,-0.58959 -3.11659,5.0269 -3.3283,12.96115 -4.71058,19.71991 5.61035,0.0173 12.795,-0.94163 18.25149,-2.0605 -0.25604,1.73555 1.39333,3.10798 0.58589,4.41517 -4.72535,3.74064 -13.32058,4.06436 -20.01286,5.0023 -1.05363,6.50271 -2.19465,12.91683 -2.94426,19.72112 6.21348,-1.1164 14.86532,-2.30789 21.78163,-2.94302 0.42588,1.95462 1.74168,4.72164 0.5896,6.47441 -3.87605,0.43819 -7.3902,1.48074 -11.18624,2.06172 -7.25603,1.11026 -17.9819,4.39917 -18.24655,-5.59189 -0.048,-1.77121 0.67207,-3.41813 0.88007,-5.29769 1.28136,-11.45086 3.30738,-25.82259 5.88853,-37.38301 0.67945,-3.05257 2.26359,-6.71197 1.4709,-10.88958 8.30228,0.22402 19.42204,-0.0604 27.96065,0.88377 z"
     id="path11-8" /><path
     style="clip-rule:evenodd;mix-blend-mode:normal;fill:#ffffff;fill-rule:evenodd;stroke-width:1.23087"
     d="m 285.65678,269.71047 c 2.48392,-0.82346 5.01338,-0.17478 7.06401,0 -1.58661,13.35258 1.28997,26.859 0.88008,39.14686 4.53703,-11.69089 9.62917,-23.65503 13.83509,-36.49801 0.5182,-1.5866 1.06101,-4.56656 1.7663,-5.2977 1.31828,-1.36995 5.86883,0.0972 6.47566,1.46967 0.40127,0.91331 -1.66169,5.85036 -2.35712,8.24319 -4.42995,15.27151 -10.06,25.71306 -15.00935,40.91318 -1.61984,4.97644 -2.34605,15.06471 -7.94778,14.4222 -4.78443,-0.54775 -3.57695,-8.21488 -3.82681,-14.12925 -0.71884,-17.12275 -1.11641,-32.91985 -0.88008,-48.27014 z"
     id="path7-7" /><path
     style="clip-rule:evenodd;mix-blend-mode:normal;fill:#ffffff;fill-rule:evenodd;stroke-width:1.23087"
     d="m 262.10884,270.29884 c 3.64708,2.67837 7.58098,1.0327 11.18623,3.53261 2.49376,1.73061 3.8034,5.2854 4.11975,10.00705 0.58466,8.71461 -1.15948,17.09568 -3.53385,25.90259 -2.2636,8.40938 -4.01267,17.36894 -7.94534,21.48745 -5.31616,5.56111 -13.6369,2.97011 -15.60138,-3.8268 -3.6237,-12.53526 0.45297,-38.54617 4.70935,-47.38881 1.56813,-3.25445 5.3814,-6.82029 7.06524,-9.71409 z m 3.53261,7.06401 c -1.02531,1.6703 -3.08335,3.22859 -4.12344,5.29893 -3.33198,6.64797 -5.28293,24.71727 -5.29523,32.96538 -0.007,3.13506 0.1834,11.17269 2.64638,11.47918 2.73749,0.34094 4.84106,-7.45051 5.59312,-9.71286 3.71971,-11.17883 7.43819,-26.75069 4.70813,-38.85146 -1.16443,-0.4025 -1.76879,-1.36872 -3.52896,-1.17917 z"
     id="path16-1" /><path
     style="clip-rule:evenodd;mix-blend-mode:normal;fill:#ffffff;fill-rule:evenodd;stroke-width:1.23087"
     d="m 235.02951,269.4163 c -3.99914,17.88097 -6.4055,37.35223 -10.3037,55.33661 5.23985,-0.40497 11.62442,-1.88818 17.9573,-1.47215 0.43942,1.79831 1.31212,4.67981 0.29295,6.18024 -8.93494,0.44929 -24.85514,7.72992 -25.31179,-5.29892 -0.1391,-3.9462 1.68137,-9.31529 2.64884,-14.1268 2.53315,-12.59803 4.88043,-29.54478 7.94656,-41.20735 1.86478,-1.49182 4.25022,0.853 6.76984,0.58837 z"
     id="path14-7" /><path
     style="clip-rule:evenodd;mix-blend-mode:normal;fill:#ffffff;fill-rule:evenodd;stroke-width:1.23087"
     d="m 182.50962,327.40173 c -1.79708,-0.0554 -4.00528,0.79886 -5.59188,0 -1.62969,-6.90521 -1.43644,-15.63707 -2.0605,-23.54668 -3.07719,-0.74961 -6.69598,-0.95641 -10.00704,-1.47215 -4.00774,8.74664 -7.21664,17.38987 -9.12574,27.66892 -2.4876,0.0148 -4.82627,-0.949 -6.47442,-0.88377 2.81502,-15.84756 8.88818,-31.60158 15.60016,-45.91669 1.86971,-3.99297 4.27361,-11.24284 7.94656,-12.36169 9.75348,-2.97629 7.52189,15.72693 8.24073,24.72464 -0.22525,1.30473 1.22964,0.92931 1.47213,1.76384 -1.30966,9.36946 1.05363,18.26379 0,30.02358 z m -15.01179,-31.78742 c 2.18357,0.21417 4.97275,1.24689 6.76983,0.88254 -0.79761,-4.94199 -0.42958,-9.94303 -1.17795,-14.42221 -2.07157,4.30317 -4.03359,8.71832 -5.59188,13.53967 z"
     id="path17-2" /><path
     style="clip-rule:evenodd;mix-blend-mode:normal;fill:#ffffff;fill-rule:evenodd;stroke-width:1.23087"
     d="m 312.71039,172.08256 c -0.0407,2.44945 0.90223,4.91982 -0.58835,6.18148 -2.58977,2.19096 -10.35539,-0.42467 -15.30598,0.29294 -2.79532,20.00423 -6.4535,39.20471 -9.12573,57.98422 -1.39827,0.29049 -4.18869,0.0319 -5.88606,-0.29419 -1.13364,-5.85898 0.87393,-11.86688 1.76631,-17.6594 2.04079,-13.2578 3.95728,-26.80853 6.18023,-40.03063 -4.98875,-0.8493 -8.57306,-0.14278 -14.42096,-0.29294 -0.72622,-2.12943 -0.53912,-5.4208 -0.58959,-6.76984 5.15738,-0.47266 11.71919,0.0148 17.07106,-0.2954 -0.0136,-0.50344 0.21908,-0.76193 0.58957,-0.88255 6.21471,1.14595 13.05349,1.66291 20.3095,1.76631 z"
     id="path5-2" /><path
     style="clip-rule:evenodd;mix-blend-mode:normal;fill:#ffffff;fill-rule:evenodd;stroke-width:1.23087"
     d="m 257.0796,169.72789 c 2.44452,1.31335 5.54511,0.83823 8.2432,2.35467 9.51223,5.34941 5.79498,24.09569 2.94304,35.90965 -2.09004,8.65676 -3.95853,17.35662 -8.24075,22.66416 -1.32812,1.64692 -4.25145,3.85511 -5.59188,4.12098 -4.31546,0.85547 -10.09443,-1.65677 -12.06753,-3.8268 -4.88906,-5.3777 -3.51908,-21.90348 -1.76631,-30.31654 0.99208,-4.76103 2.11095,-9.46791 3.8268,-13.83261 1.64815,-4.19606 3.29876,-9.37436 5.59188,-11.77457 1.70846,-1.78723 5.35433,-2.4396 6.18025,-4.70934 0.21417,-0.27572 0.5342,-0.44681 0.8813,-0.5896 z m 7.06524,18.25023 c 0.2351,-3.17689 0.2831,-10.37753 -4.41516,-10.30245 -1.72938,0.0271 -3.14982,1.89433 -4.70934,2.05927 -5.75558,11.8472 -11.3807,30.06419 -7.6536,45.91791 1.43396,1.01917 3.11166,1.79338 5.29893,2.06048 6.77229,-7.74837 10.37876,-24.8785 11.47917,-39.73521 z"
     id="path3-2" /><path
     style="clip-rule:evenodd;mix-blend-mode:normal;fill:#ffffff;fill-rule:evenodd;stroke-width:1.23087"
     d="m 233.53288,172.08256 c 1.68878,12.08846 -5.46755,27.47568 -7.064,40.61899 -0.78284,6.45595 1.57552,18.09637 -5.59066,17.95359 -5.65712,-0.11083 -7.30157,-11.2453 -8.83031,-16.1885 -2.14543,-6.93108 -4.66504,-12.09708 -6.76984,-18.25024 -2.70547,12.89961 -4.82873,28.49359 -6.47565,40.61898 -2.26113,0.68806 -4.72165,-0.17971 -6.76984,-0.29418 1.39089,-12.82944 3.52032,-26.53035 5.59312,-39.73521 0.92685,-5.91561 0.0775,-20.84862 6.7686,-20.60367 4.95305,0.18094 4.55056,7.19571 5.88729,12.06752 2.42237,8.83032 6.17656,17.57817 9.12573,25.31302 1.08688,-15.69001 7.20804,-26.34573 8.53491,-41.79571 0.63884,-0.64867 4.58135,-0.53174 5.59065,0.29541 z"
     id="path8-61" /><path
     style="clip-rule:evenodd;mix-blend-mode:normal;fill:#ffffff;fill-rule:evenodd;stroke-width:1.23087"
     d="m 353.29625,96.111408 c 0.20555,2.600846 -0.64254,4.044662 -0.29296,6.474422 -3.03534,0.0923 -5.39618,-0.49112 -7.94778,-0.88131 -1.52629,2.21927 -6.8363,10.01443 -5.29894,15.59892 0.95763,3.48093 7.82347,4.13575 11.47918,7.6536 6.39564,6.15194 5.46388,24.4194 -0.29417,30.60949 -2.39776,2.57869 -12.0023,6.94708 -16.18854,0.88377 -2.21187,-3.20398 -1.5275,-7.32619 -3.2372,-12.06753 1.73186,-0.3828 3.65448,-1.96203 5.59189,-1.17796 1.84263,2.27836 1.54599,6.69598 3.23719,9.12574 8.52508,1.28135 11.02623,-15.27151 6.76985,-21.19203 -3.19906,-4.45209 -13.72306,-4.96291 -14.71762,-12.95008 -0.27941,-2.24512 0.16618,-5.72235 0.88378,-8.24196 2.46668,-8.66292 7.34341,-19.07246 20.01532,-13.835072 z"
     id="path18-5" /><path
     style="clip-rule:evenodd;mix-blend-mode:normal;fill:#ffffff;fill-rule:evenodd;stroke-width:1.23087"
     d="m 324.4506,96.699769 c -3.04273,21.289271 -3.92897,44.735041 -8.24073,64.754051 -0.79638,-0.54651 -3.5917,0.36188 -4.41517,-0.88254 -2.18727,-9.3116 1.46968,-22.78603 2.35468,-34.43875 0.78037,-10.28029 1.92139,-20.0707 3.53262,-28.845633 0,-0.294179 0,-0.58836 0,-0.882539 2.82486,-0.43327 4.70811,0.852998 6.7686,0.295411 z"
     id="path4-9" /><path
     style="clip-rule:evenodd;mix-blend-mode:normal;fill:#ffffff;fill-rule:evenodd;stroke-width:1.23087"
     d="m 277.11551,101.40911 c -0.3705,2.67101 -2.65132,3.43415 -3.53262,5.59311 -2.4987,-1.22842 -3.90682,-3.54739 -6.47444,-4.70934 -2.60945,1.12133 -9.34606,9.91103 -7.35818,15.01056 0.6179,1.58661 3.46245,2.30544 5.59188,3.8268 4.82134,3.44523 8.46721,8.53984 8.53738,16.48269 0.0528,6.25287 -1.87709,16.12698 -4.71058,20.3095 -3.23844,4.78197 -11.942,6.49411 -16.18852,0 -2.94427,-4.50255 -2.24635,-9.7104 -3.8268,-15.89556 1.74416,-0.71145 4.78812,-1.90664 6.47565,-0.88131 1.51274,5.05891 0.85177,12.29524 5.29771,14.42097 4.13082,-3.45261 6.55688,-12.29156 5.88728,-20.30826 -0.85052,-10.18429 -13.87938,-7.83578 -14.42342,-18.54319 -0.28927,-5.7125 3.04395,-13.07193 7.06524,-17.366462 2.53191,-2.703008 5.65465,-4.983826 10.59663,-3.82557 2.38175,1.934943 5.04661,3.585549 7.06279,5.886062 z"
     id="path2-90" /><path
     style="clip-rule:evenodd;mix-blend-mode:normal;fill:#ffffff;fill-rule:evenodd;stroke-width:1.23087"
     d="m 241.79544,100.23239 c -0.92316,21.64254 -1.12133,44.01129 -4.70933,62.98774 -1.73802,-0.22525 -4.5395,0.61667 -5.00355,-0.88254 -0.31756,-12.73344 0.54775,-27.08794 1.76632,-40.61899 0.6499,-7.21664 0.79762,-13.81784 1.47336,-21.19326 2.01496,-0.52435 4.21576,-0.007 6.4732,-0.29295 z"
     id="path15-9" /><path
     style="clip-rule:evenodd;mix-blend-mode:normal;fill:#ffffff;fill-rule:evenodd;stroke-width:1.23087"
     d="m 218.24872,98.173129 c -1.22595,14.493591 0.0222,28.205581 -0.58958,42.091121 -0.32619,7.42835 0.0173,15.08441 -1.76632,20.89785 -1.43397,-0.1354 -3.44769,0.30649 -4.41517,-0.29418 -1.65922,-7.79638 -1.15087,-16.34729 -0.88254,-27.37351 -4.38562,0.26095 -6.81415,0.31634 -10.89082,0.58959 -0.94655,9.45316 -1.13733,19.66329 -3.23844,27.96187 -1.25427,-0.12062 -3.03165,0.28433 -3.8268,-0.29418 -1.8414,-18.98753 0.19325,-42.9872 2.65132,-62.108892 2.4396,-0.555126 3.75294,0.221558 6.76982,0.295412 -0.92192,8.99772 -2.21804,17.43416 -2.06048,26.78514 2.23773,0.93301 6.50519,0.47266 10.30368,0.58836 0.74346,-10.89819 -0.0135,-19.17462 1.17549,-28.845631 1.47829,-1.37366 5.36296,0.02954 6.76984,-0.29295 z"
     id="path10-1" /><path
     style="clip-rule:evenodd;mix-blend-mode:normal;fill:#ffffff;fill-rule:evenodd;stroke-width:1.23087"
     d="m 172.33201,105.8255 c -2.53315,15.67031 -0.12186,40.37035 -4.12098,55.92373 -1.74662,-0.50466 -3.47723,0.27572 -4.41393,-0.58836 -1.32566,-18.32778 0.20309,-39.62567 1.4709,-54.74824 -5.03922,-0.0345 -10.17814,-0.15263 -15.60016,-1.47213 -0.89608,-2.24266 0.34711,-5.248466 0.29295,-6.767371 12.40849,2.579921 25.36964,-0.248636 38.5585,-0.29418 0.87147,1.196414 1.81555,5.662041 0.29542,6.475651 -4.04836,1.92632 -12.21771,0.66221 -16.4827,1.4709 z"
     id="path9-7" /></svg>
