<?xml version="1.0" encoding="UTF-8" standalone="no"?>
<svg
   version="1.1"
   x="0px"
   y="0px"
   width="48"
   height="48"
   viewBox="0 0 48 48"
   xml:space="preserve"
   id="favicon.svg"
   xmlns="http://www.w3.org/2000/svg"
   xmlns:svg="http://www.w3.org/2000/svg"><defs
     id="defs1" /><rect
     style="opacity:1;fill:#000000;stroke-width:0.0625"
     id="rect1"
     width="32"
     height="32"
     x="0"
     y="0" /><ellipse
     style="display:inline;fill:#999999;fill-opacity:1;stroke-width:0.145833;stroke-dasharray:none"
     id="path19-5"
     cx="16.218742"
     cy="16.218731"
     rx="12.906259"
     ry="12.90625" /><circle
     style="display:inline;fill:#2d91d0;fill-opacity:1;stroke-width:0.145833;stroke-dasharray:none"
     id="path19"
     cx="15.78125"
     cy="15.78125"
     r="12.90625" /><circle
     style="fill:#ffffff;stroke-width:0.0860413"
     id="path20"
     cx="15.78125"
     cy="15.78125"
     r="0.4302083" /><path
     style="fill:none;fill-opacity:1;stroke:#ffffff;stroke-width:0.161077;stroke-linecap:round;stroke-dasharray:none;stroke-opacity:1"
     d="m 21.496748,23.111855 c 0,0 3.406419,-2.771037 3.545039,-7.119166 C 25.161453,12.239065 23.2815,10.075136 23.2815,10.075136 v 0"
     id="path53" /><path
     style="fill:none;fill-opacity:1;stroke:#ffffff;stroke-width:0.161077;stroke-linecap:round;stroke-dasharray:none;stroke-opacity:1"
     d="m 23.710821,8.663254 c 0.85424,1.1513667 2.711282,3.565522 2.544149,7.205326 -0.167133,3.639805 -2.233093,7.024263 -4.554397,8.62132"
     id="path54" /><path
     style="fill:none;fill-opacity:1;stroke:#ffffff;stroke-width:0.161077;stroke-linecap:round;stroke-dasharray:none;stroke-opacity:1"
     d="m 24.044665,7.2539233 c 1.96735,1.901388 3.371325,4.2293917 3.496677,8.4161407 0.131313,4.385845 -2.521203,8.430278 -6.303012,10.610071"
     id="path55" /><path
     style="fill:none;fill-opacity:1;stroke:#ffffff;stroke-width:0.161077;stroke-linecap:round;stroke-dasharray:none;stroke-opacity:1"
     d="m 10.271671,23.19212 c 0,0 -3.4064183,-2.771035 -3.5450377,-7.119166 -0.1196676,-3.753624 1.760286,-5.917552 1.760286,-5.917552 v 0"
     id="path53-6" /><path
     style="fill:none;fill-opacity:1;stroke:#ffffff;stroke-width:0.161077;stroke-linecap:round;stroke-dasharray:none;stroke-opacity:1"
     d="M 8.0575973,8.7435193 C 7.203358,9.894886 5.3463162,12.309042 5.5134493,15.948845 c 0.1671339,3.639805 2.233094,7.024263 4.5543967,8.621322"
     id="path54-8" /><path
     style="fill:none;fill-opacity:1;stroke:#ffffff;stroke-width:0.161077;stroke-linecap:round;stroke-dasharray:none;stroke-opacity:1"
     d="M 7.7237547,7.3341887 C 5.756405,9.2355767 4.3524293,11.563581 4.2270775,15.750329 4.0957643,20.136175 6.748282,24.180609 10.530091,26.3604"
     id="path55-9" /><path
     style="clip-rule:evenodd;mix-blend-mode:normal;fill:#ffffff;fill-rule:evenodd;stroke-width:0.0769293"
     d="m 20.365358,21.831435 c -0.02439,0.165706 -0.169321,0.210865 -0.220865,0.349416 -0.153628,-0.0077 -0.288256,-0.329183 -0.459963,-0.33103 -0.135013,-0.0015 -0.275872,0.256871 -0.367803,0.404652 -0.285796,0.458964 -0.515739,1.109175 -0.47835,1.784466 0.02093,0.378341 0.103471,0.798762 0.294411,0.974933 0.463579,-0.235252 0.543355,-0.854615 0.680675,-1.41651 -0.219326,-0.0072 -0.408113,0.165861 -0.62544,0.220788 -0.0467,-0.128705 -0.190861,-0.247637 -0.128933,-0.386265 0.04654,-0.104163 0.468501,-0.244792 0.58882,-0.27587 0.380341,-0.0987 0.657675,0.176092 0.607055,0.607054 -0.07347,0.624208 -0.529587,1.608911 -1.01186,1.692456 -0.283487,0.04901 -0.468888,-0.10193 -0.570204,-0.257715 -0.265638,-0.407728 -0.294103,-1.17618 -0.257484,-1.673917 0.028,-0.383034 0.162244,-0.86 0.330953,-1.195721 0.159781,-0.317643 0.434345,-0.716295 0.662365,-0.84623 0.388266,-0.221327 0.670522,0.101395 0.956623,0.349493 z"
     id="path1-6" /><path
     style="clip-rule:evenodd;mix-blend-mode:normal;fill:#ffffff;fill-rule:evenodd;stroke-width:0.0769293"
     d="m 18.139315,21.684192 c 0.0057,0.709678 -0.235405,1.380045 -0.36788,2.060337 -0.102238,0.524508 -0.195478,1.045014 -0.27587,1.600526 -0.08024,0.06523 -0.120472,0.160245 -0.239253,0.165552 -0.372339,0.01653 -0.444192,-0.793147 -0.551893,-1.122098 -0.160015,-0.488506 -0.286873,-0.907774 -0.368034,-1.306116 -0.231559,0.859077 -0.314258,1.860549 -0.551741,2.66739 -0.157091,0.03139 -0.291949,-0.05939 -0.404806,-0.05516 0.186325,-0.961316 0.375727,-2.006872 0.551896,-3.035502 0.04039,-0.236403 0.04669,-0.840228 0.239099,-0.919773 0.369493,-0.152781 0.390572,0.394805 0.459963,0.699063 0.159244,0.698986 0.326491,1.3922 0.551894,1.931556 0.09001,-0.542894 0.263025,-1.251804 0.40473,-1.821162 0.0537,-0.215942 0.07439,-0.434037 0.12878,-0.60713 0.01715,-0.05485 0.07854,-0.218174 0.110317,-0.257562 0.0025,-0.0031 -0.02608,-0.04585 0,-0.05516 0.09293,-0.03315 0.229328,0.02754 0.312798,0.05523 z"
     id="path13-4" /><path
     style="clip-rule:evenodd;mix-blend-mode:normal;fill:#ffffff;fill-rule:evenodd;stroke-width:0.0769293"
     d="m 14.349747,21.629033 c 0.257638,0.01153 0.416344,-0.05001 0.607054,0.147167 0.14532,0.15032 0.22025,0.518892 0.239252,0.827842 0.03115,0.510508 -0.09901,0.968163 -0.220866,1.526905 -0.101778,0.46681 -0.241482,1.041785 -0.47835,1.269266 -0.355186,0.341262 -0.830766,0.08055 -0.956624,-0.312566 -0.158167,-0.495044 0.008,-1.139332 0.05531,-1.618912 0.05731,-0.580514 0.200787,-1.042555 0.404651,-1.453283 0.138089,-0.107472 0.309643,-0.18117 0.349569,-0.386419 z m -0.01839,0.680754 c -0.238791,0.310871 -0.307643,1.304653 -0.367803,1.839623 -0.03015,0.266793 -0.11501,0.940007 0.128704,0.956623 0.107395,0.0072 0.218712,-0.263484 0.275871,-0.423113 0.280563,-0.781993 0.422499,-1.726385 0.31272,-2.612232 -0.01231,0 -0.02454,0 -0.03685,0 -0.07431,0.105162 -0.231944,0.13401 -0.312642,0.239099 z"
     id="path12-9" /><path
     style="clip-rule:evenodd;mix-blend-mode:normal;fill:#ffffff;fill-rule:evenodd;stroke-width:0.0769293"
     d="m 13.429973,21.665805 c -0.0027,0.188248 -0.03862,0.211942 -0.03685,0.404807 -0.398882,-0.03569 -0.817074,-0.215097 -1.048632,0.09193 -0.120166,0.159475 -0.307489,0.473273 -0.275872,0.680675 0.031,0.204018 0.29972,0.299873 0.496737,0.515046 0.408729,0.446579 0.575359,1.455129 0.147089,2.04195 -0.08247,0.113242 -0.246482,0.259792 -0.459809,0.275947 -0.565743,0.04277 -0.652751,-0.3518 -0.717371,-0.846229 0.09178,-0.04 0.21425,-0.116086 0.312566,-0.09193 0.07824,0.136475 0.110394,0.318953 0.16563,0.47835 0.482735,0.165939 0.600746,-0.748913 0.459887,-1.214107 -0.154783,-0.511968 -0.939314,-0.564126 -0.846229,-1.324502 0.04977,-0.405112 0.360416,-0.880924 0.625594,-1.030244 0.35357,-0.19925 0.714372,-0.07593 1.177259,0.01831 z"
     id="path6-5" /><path
     style="clip-rule:evenodd;mix-blend-mode:normal;fill:#ffffff;fill-rule:evenodd;stroke-width:0.0769293"
     d="m 22.231709,16.74651 c -0.01162,0.135552 0.03085,0.325183 -0.03677,0.404805 -0.355647,0.0023 -0.844228,0.01693 -1.232493,-0.03685 -0.194787,0.314182 -0.20802,0.810072 -0.294412,1.232495 0.350647,0.001 0.799687,-0.05885 1.140719,-0.128781 -0.016,0.108471 0.08708,0.194249 0.03662,0.275948 -0.295335,0.23379 -0.832537,0.254023 -1.250805,0.312643 -0.06585,0.40642 -0.137165,0.807304 -0.184015,1.23257 0.388342,-0.06977 0.929082,-0.144241 1.361352,-0.183938 0.02661,0.122164 0.108854,0.295104 0.03685,0.404652 -0.242253,0.02739 -0.461889,0.09254 -0.69914,0.128856 -0.453502,0.06939 -1.123869,0.274949 -1.14041,-0.349493 -0.003,-0.1107 0.04201,-0.213633 0.05501,-0.331105 0.08008,-0.715678 0.206711,-1.613912 0.368033,-2.336438 0.04247,-0.190787 0.141473,-0.419498 0.09193,-0.680598 0.518893,0.014 1.213879,-0.0037 1.747542,0.05523 z"
     id="path11-8" /><path
     style="clip-rule:evenodd;mix-blend-mode:normal;fill:#ffffff;fill-rule:evenodd;stroke-width:0.0769293"
     d="m 17.853548,16.856905 c 0.155245,-0.05147 0.313337,-0.01093 0.441502,0 -0.09916,0.834535 0.08062,1.678686 0.05501,2.446678 0.283563,-0.730682 0.601823,-1.47844 0.864693,-2.281126 0.03239,-0.09916 0.06631,-0.28541 0.110393,-0.331106 0.08239,-0.08562 0.366802,0.0061 0.404729,0.09185 0.02508,0.05708 -0.103855,0.365648 -0.14732,0.5152 -0.276872,0.95447 -0.62875,1.607066 -0.938085,2.557073 -0.10124,0.311029 -0.146627,0.941545 -0.496735,0.901389 -0.299027,-0.03423 -0.22356,-0.51343 -0.239177,-0.883079 -0.04493,-1.070171 -0.06977,-2.057491 -0.05501,-3.016883 z"
     id="path7-7" /><path
     style="clip-rule:evenodd;mix-blend-mode:normal;fill:#ffffff;fill-rule:evenodd;stroke-width:0.0769293"
     d="m 16.381803,16.893678 c 0.227942,0.167397 0.47381,0.06455 0.699138,0.220787 0.15586,0.108163 0.237714,0.330338 0.257486,0.625442 0.03654,0.544663 -0.07247,1.06848 -0.220867,1.618912 -0.141475,0.525586 -0.250792,1.085558 -0.496583,1.342964 -0.33226,0.34757 -0.852306,0.185632 -0.975086,-0.239175 -0.226482,-0.783453 0.02831,-2.409135 0.294334,-2.9618 0.09801,-0.203403 0.336338,-0.426268 0.441578,-0.60713 z m 0.220788,0.4415 c -0.06408,0.104394 -0.19271,0.201787 -0.257716,0.331183 -0.208248,0.415499 -0.330182,1.544829 -0.330952,2.060336 -4.33e-4,0.195941 0.01147,0.698293 0.1654,0.71745 0.171093,0.02131 0.302566,-0.465657 0.34957,-0.607056 0.232482,-0.698676 0.464887,-1.671916 0.294257,-2.428214 -0.07278,-0.02516 -0.110549,-0.08555 -0.220559,-0.0737 z"
     id="path16-1" /><path
     style="clip-rule:evenodd;mix-blend-mode:normal;fill:#ffffff;fill-rule:evenodd;stroke-width:0.0769293"
     d="m 14.689344,16.838518 c -0.249946,1.117562 -0.400343,2.334515 -0.643981,3.458539 0.32749,-0.02531 0.726526,-0.118012 1.122331,-0.09201 0.02747,0.112394 0.08201,0.292488 0.01831,0.386266 -0.558434,0.02808 -1.553446,0.48312 -1.581987,-0.331183 -0.0087,-0.246637 0.105086,-0.582205 0.165553,-0.882925 0.158322,-0.787376 0.305026,-1.846548 0.49666,-2.57546 0.116548,-0.09324 0.265638,0.05331 0.423114,0.03677 z"
     id="path14-7" /><path
     style="clip-rule:evenodd;mix-blend-mode:normal;fill:#ffffff;fill-rule:evenodd;stroke-width:0.0769293"
     d="m 11.406851,20.462608 c -0.112317,-0.0035 -0.25033,0.04993 -0.349492,0 -0.101856,-0.431577 -0.08978,-0.977317 -0.128782,-1.471668 -0.192324,-0.04685 -0.418498,-0.05977 -0.62544,-0.09201 -0.250483,0.546666 -0.4510397,1.086868 -0.5703583,1.729307 -0.1554747,0.001 -0.301642,-0.05931 -0.4046514,-0.05523 0.1759394,-0.990474 0.5555114,-1.975099 0.9750097,-2.869794 0.116858,-0.24956 0.267101,-0.702678 0.49666,-0.772605 0.609593,-0.186018 0.470118,0.982932 0.515046,1.54529 -0.01408,0.08155 0.07685,0.05808 0.09201,0.11024 -0.08185,0.58559 0.06585,1.141487 0,1.876473 z m -0.938236,-1.986713 c 0.136472,0.01339 0.310796,0.07793 0.423114,0.05516 -0.04985,-0.308876 -0.02685,-0.62144 -0.07362,-0.901389 -0.129473,0.268949 -0.2521,0.544895 -0.349492,0.84623 z"
     id="path17-2" /><path
     style="clip-rule:evenodd;mix-blend-mode:normal;fill:#ffffff;fill-rule:evenodd;stroke-width:0.0769293"
     d="m 19.5444,10.75516 c -0.0025,0.153091 0.05639,0.307489 -0.03677,0.386343 -0.161862,0.136934 -0.647213,-0.02654 -0.956625,0.01831 -0.174707,1.250264 -0.403343,2.450294 -0.570359,3.624014 -0.08739,0.01815 -0.261791,0.002 -0.367878,-0.01839 -0.07085,-0.366186 0.05462,-0.74168 0.110395,-1.103713 0.127549,-0.828612 0.247331,-1.675532 0.386264,-2.501914 -0.311797,-0.05308 -0.535815,-0.0089 -0.90131,-0.01831 -0.04539,-0.13309 -0.03369,-0.3388 -0.03685,-0.423116 0.322337,-0.02954 0.732448,9.34e-4 1.066942,-0.01846 -8.66e-4,-0.03147 0.01368,-0.04762 0.03685,-0.05516 0.388419,0.07162 0.815843,0.103932 1.269345,0.110395 z"
     id="path5-2" /><path
     style="clip-rule:evenodd;mix-blend-mode:normal;fill:#ffffff;fill-rule:evenodd;stroke-width:0.0769293"
     d="m 16.067475,10.607993 c 0.152782,0.08208 0.346569,0.05239 0.5152,0.147167 0.594515,0.334338 0.362186,1.505981 0.18394,2.244353 -0.130628,0.541048 -0.247408,1.084789 -0.515047,1.41651 -0.08301,0.102932 -0.265715,0.240944 -0.349493,0.257561 -0.269716,0.05347 -0.630901,-0.103548 -0.75422,-0.239175 -0.305566,-0.336106 -0.219942,-1.368967 -0.110394,-1.894784 0.06201,-0.297564 0.131934,-0.591744 0.239174,-0.864538 0.10301,-0.262253 0.206173,-0.585897 0.349493,-0.73591 0.106779,-0.111702 0.334646,-0.152475 0.386266,-0.294334 0.01339,-0.01723 0.03339,-0.02793 0.05508,-0.03685 z m 0.441578,1.14064 c 0.01469,-0.198556 0.01769,-0.648596 -0.275948,-0.643904 -0.108086,0.0017 -0.196864,0.118396 -0.294334,0.128705 -0.359724,0.74045 -0.711294,1.879012 -0.47835,2.869869 0.08962,0.0637 0.194479,0.112086 0.331184,0.12878 0.423268,-0.484273 0.648672,-1.554906 0.717448,-2.48345 z"
     id="path3-2" /><path
     style="clip-rule:evenodd;mix-blend-mode:normal;fill:#ffffff;fill-rule:evenodd;stroke-width:0.0769293"
     d="m 14.595805,10.75516 c 0.105549,0.755529 -0.341722,1.71723 -0.4415,2.538687 -0.04893,0.403496 0.09847,1.131023 -0.349416,1.122099 -0.35357,-0.0069 -0.456348,-0.702831 -0.551895,-1.011781 -0.134089,-0.433192 -0.291565,-0.756068 -0.423115,-1.14064 -0.169092,0.806226 -0.301795,1.780849 -0.404728,2.538686 -0.14132,0.04301 -0.295103,-0.01123 -0.423115,-0.01839 0.08693,-0.80184 0.22002,-1.658147 0.34957,-2.483451 0.05793,-0.369725 0.0049,-1.303039 0.423038,-1.287729 0.309565,0.01131 0.284409,0.449732 0.367955,0.75422 0.151398,0.551895 0.386035,1.098636 0.570358,1.582064 0.06793,-0.980626 0.450503,-1.646608 0.533432,-2.612232 0.03993,-0.04054 0.286334,-0.03323 0.349416,0.01846 z"
     id="path8-61" /><path
     style="clip-rule:evenodd;mix-blend-mode:normal;fill:#ffffff;fill-rule:evenodd;stroke-width:0.0769293"
     d="m 22.081015,6.006963 c 0.01285,0.1625528 -0.04016,0.2527913 -0.01831,0.4046513 -0.189708,0.00577 -0.33726,-0.030695 -0.496735,-0.055082 -0.09539,0.1387044 -0.42727,0.6259024 -0.331185,0.974933 0.05985,0.217558 0.488967,0.258484 0.71745,0.47835 0.399727,0.384496 0.341492,1.526212 -0.01839,1.9130927 -0.14986,0.161168 -0.750143,0.434193 -1.011783,0.055233 -0.138235,-0.2002483 -0.09546,-0.457887 -0.202319,-0.7542203 0.108242,-0.023927 0.228405,-0.1226274 0.349494,-0.073623 0.115163,0.1423973 0.09662,0.4184987 0.202323,0.5703587 0.532818,0.080085 0.68914,-0.9544694 0.423117,-1.324502 -0.199942,-0.2782554 -0.857692,-0.3101814 -0.919852,-0.80938 -0.01746,-0.14032 0.01039,-0.3576467 0.05524,-0.515122 0.154166,-0.541433 0.458963,-1.1920292 1.250956,-0.8646926 z"
     id="path18-5" /><path
     style="clip-rule:evenodd;mix-blend-mode:normal;fill:#ffffff;fill-rule:evenodd;stroke-width:0.0769293"
     d="m 20.278163,6.0437355 c -0.190172,1.3305798 -0.245562,2.7959405 -0.515046,4.0471285 -0.04977,-0.03416 -0.224482,0.02262 -0.275949,-0.05516 -0.136703,-0.5819753 0.09185,-1.4241273 0.147169,-2.152422 0.04877,-0.642518 0.120086,-1.254419 0.220788,-1.8028523 0,-0.018386 0,-0.036773 0,-0.055159 0.176553,-0.027079 0.294256,0.053313 0.423038,0.018463 z"
     id="path4-9" /><path
     style="clip-rule:evenodd;mix-blend-mode:normal;fill:#ffffff;fill-rule:evenodd;stroke-width:0.0769293"
     d="M 17.31972,6.3380693 C 17.29657,6.5050075 17.154011,6.5527039 17.09893,6.6876387 16.942761,6.6108627 16.854755,6.4659269 16.694278,6.393305 c -0.163091,0.070083 -0.584129,0.6194397 -0.459886,0.9381603 0.03862,0.099163 0.216403,0.14409 0.349492,0.2391747 0.301334,0.2153267 0.529201,0.53374 0.533586,1.030168 0.0033,0.3908047 -0.117319,1.0079367 -0.29441,1.269344 -0.202403,0.298873 -0.746376,0.405882 -1.011783,0 -0.184017,-0.2814093 -0.140397,-0.6069 -0.239175,-0.9934727 0.10901,-0.044467 0.299257,-0.1191653 0.404728,-0.05508 0.09455,0.316182 0.05323,0.7684527 0.331107,0.9013107 0.258176,-0.215788 0.409804,-0.7682227 0.367954,-1.269266 -0.05316,-0.636518 -0.86746,-0.4897367 -0.901463,-1.1589493 -0.01808,-0.3570314 0.190247,-0.8169959 0.441577,-1.085404 0.158245,-0.168938 0.353416,-0.3114892 0.66229,-0.2390982 0.14886,0.120934 0.315413,0.2240968 0.441425,0.3678788 z"
     id="path2-90" /><path
     style="clip-rule:evenodd;mix-blend-mode:normal;fill:#ffffff;fill-rule:evenodd;stroke-width:0.0769293"
     d="m 15.112215,6.2645243 c -0.0577,1.352659 -0.07008,2.7507057 -0.294333,3.9367337 -0.108627,-0.01408 -0.283719,0.03854 -0.312722,-0.05516 -0.01985,-0.79584 0.03423,-1.692996 0.110395,-2.5386867 0.04062,-0.45104 0.04985,-0.8636153 0.09208,-1.324579 0.125935,-0.032772 0.263485,-4.333e-4 0.404575,-0.018309 z"
     id="path15-9" /><path
     style="clip-rule:evenodd;mix-blend-mode:normal;fill:#ffffff;fill-rule:evenodd;stroke-width:0.0769293"
     d="m 13.640545,6.1358205 c -0.07662,0.9058495 0.0014,1.7628488 -0.03685,2.6306955 -0.02039,0.4642713 0.0011,0.9427753 -0.110395,1.306115 -0.08962,-0.0085 -0.21548,0.01915 -0.275948,-0.01839 -0.103701,-0.4872743 -0.07193,-1.0217063 -0.05516,-1.710845 -0.274101,0.016313 -0.425884,0.019773 -0.680676,0.036847 -0.05916,0.5908226 -0.07108,1.228956 -0.202402,1.747616 -0.07839,-0.0075 -0.189479,0.01777 -0.239176,-0.01839 -0.115087,-1.1867207 0.01208,-2.6867 0.165708,-3.8818058 0.152475,-0.034695 0.234558,0.013847 0.423114,0.018463 -0.05762,0.5623578 -0.138628,1.0896351 -0.12878,1.6740711 0.139858,0.058313 0.406574,0.02954 0.64398,0.036773 0.04647,-0.6811367 -8.67e-4,-1.198414 0.07347,-1.802852 0.09239,-0.085854 0.335185,0.00185 0.423114,-0.018309 z"
     id="path10-1" /><path
     style="clip-rule:evenodd;mix-blend-mode:normal;fill:#ffffff;fill-rule:evenodd;stroke-width:0.0769293"
     d="m 10.770751,6.6140937 c -0.158322,0.9793943 -0.0076,2.523147 -0.257562,3.4952333 -0.109163,-0.03154 -0.217326,0.01723 -0.27587,-0.03677 -0.08285,-1.1454863 0.01269,-2.4766043 0.09193,-3.421765 C 10.014299,6.648628 9.693116,6.641248 9.35424,6.55878 9.2982333,6.4186137 9.3759333,6.2307509 9.3725467,6.1358192 c 0.7755303,0.1612451 1.5856023,-0.01554 2.4099063,-0.018386 0.05447,0.074776 0.113472,0.3538775 0.01846,0.4047282 -0.253022,0.120395 -0.763606,0.041388 -1.030168,0.091931 z"
     id="path9-7" /></svg>
