<?xml version="1.0" encoding="utf-8"?>
<svg version="1.1" xmlns="http://www.w3.org/2000/svg" xmlns:xlink="http://www.w3.org/1999/xlink" x="0px" y="0px" width="512px"  height="512px" viewBox="0 0 512 512" style="enable-background:new 0 0 512 512;" xml:space="preserve">
<!-- tinals-2026-icon-pochette-noire-texte-externe 512x512 -->
<defs><path id="cadr" style="fill:#000000;" d="M462,512H50c-27.5,0-50-22.5-50-50V50C0,22.5,22.5,0,50,0h412c27.5,0,50,22.5,50,50v412 C512,489.5,489.5,512,462,512z"/></defs>
<clipPath id="masq"><use xlink:href="#cadr" style="overflow:visible;"/></clipPath>
<rect x="0" style="clip-path:url(#masq);" width="512" height="512"/>
<g style="clip-path:url(#masq);">
<g id="vinyl">
<circle id="disk" style="fill:#E9552B;" cx="256" cy="349" r="216"/>
<circle id="etik" style="fill:#FFFFFF;" cx="256" cy="349" r="55"/>
<circle id="hole" style="fill:#000000;" cx="256" cy="349" r="6"/>
<g id="text" style="fill:#FFFFFF;">
<path d="M264.88,156.87c0,0,7.04-6.22,11.54-4.14c3.1,1.43,1.95,4.97,0.62,7.26 c-3.17,5.44-7.37,13.23-3.76,19.5c2.07,3.6,3.99,5.48,6.24,8.93c2.32,3.55,2.43,9.67-2.41,10.8 c-6.15,1.43-10.37-3.78-12.11-8.39c-0.66-1.75-1.84-5.62-2.1-7c-3.3,4.24-6.61,9.16-10.93,12.35 c-3.39,2.51-8.08,5.08-12.06,4.54c-3.85-0.52-9.61-2.5-9.32-7.78c0.45-7.98,5.87-14.82,10.14-19.74 c3.65-4.21,8.83-7.63,13.9-10.29c-5.26-4.75-11.7-1.96-17.48-1.79c-4.7,0.14-3.63-6.46,0.68-7.93 c3.38-1.15,7.42-2.69,11.34-2.83C257.24,150.07,264.88,156.87,264.88,156.87z M259.23,166.78c-3.59,1.89-8.18,7.25-11.69,11.27 c-2.61,3-8.01,10.84-2.39,11.3c4.77,0.39,8.23-5.77,10.85-9.51c2.63-3.75,6.54-10.51,4.84-13.08 C260.57,166.37,259.57,166.6,259.23,166.78z"/>
<path d="M240.67,73.9c3.07-0.22,5.65,1.33,8.53,1.47c2.9,0.14,5.69-0.88,8.72-0.2 c3.79,0.86,3.01,6.14,0.17,8.18c-6.41,4.59-4.77,13.72-5.13,21.84c-0.15,3.39-1.03,7.61,2.86,9.87 c0.92,0.48,2.22,1.43,2.93,2.62c1.43,2.38,1.08,5.43-1.35,5.52c-2.86,0.11-4.79-0.86-7.29-1.36c-2.73-0.55-5.29-0.25-8.18,0.92 c-4.71,1.38-9.86-3-5.12-6.66c6.3-4.14,6.11-11.2,5.83-18.16c-0.04-0.92,0.13-3.32,0.24-4.4c0.3-3.08,0.52-6.66-0.4-9.24 c-0.54-1.53-1.75-2.19-3.21-3.33C237.12,79.26,237.32,74.14,240.67,73.9z"/>
<path d="M287.21,76.32c3.32,0,7,0.39,11.33,1.86c3.46,1.17,10.89,1.29,10.53,7 c-0.25,3.86-1.36,11.59-5.49,10.93c-4.25-0.67-3.45-8.13-7.25-10.98c-2.99-2.24-6.65-3.1-10.78-2.57 c-4.49,0.58-7.94,5.69-3.43,8.71c1.92,1.29,3.74,2.26,5.85,2.92c3.7,1.14,7.78,1.55,11.24,2.83c4.34,1.61,8.37,3.84,9.98,7.82 c0.48,1.2,0.95,2.57,0.88,4.11c-0.18,4.33-1.33,7.42-4.38,10.27c-1.67,1.56-4.59,3.4-8.06,4.44c-1.97,0.59-4.05,1.36-6.08,1.67 c-2.85,0.43-5.63,0.14-7.48-0.07c-6.93-0.76-11.22-1.05-15.77-4.13c-3.44-2.34-1.44-11.44-0.99-15.65c0.49-4.6,5.55-5.28,7-1.11 c1.78,5.14,3.01,9.85,9.42,12.04c3.11,1.06,7.25,1.09,10.42,0.62c2.3-0.34,6.28-2.65,3.96-5.76c-1.98-2.65-5.45-3.82-9.11-4.79 c-2.49-0.67-5.04-1.4-7.39-1.84c-5.08-0.95-9.66-3.95-12.16-7.5c-0.99-1.41-1.85-2.77-2-4.19c-0.76-7.2,3.22-12.5,10.48-14.88 C280.58,77.22,284.69,76.32,287.21,76.32z"/>
<path d="M180.85,222.42c0.92,0.01,3.49,0.01,5-0.62c2.68-1.11,5.29-1.43,6.58,0.36 c2.13,2.96,0.08,5.15-2.27,7.13c-1.32,1.11-2.9,2.66-3.8,4.2c-1.48,2.54-2.89,5.43-4.16,8.31c-2.03,4.57-4.15,9.31-6.46,13.16 c-1.38,2.31-2.26,5.37-3.53,8.05c-1.8,3.81-5.14,9.87-9.74,6.42c-3.4-2.55-4.61-7.51-6.96-11.14 c-3.36-5.19-5.71-11.62-8.35-16.7c-2.03-3.91-3.2-9.43-7.39-11.72c-0.82-0.45-1.71-1.37-2.28-2.33 c-0.41-0.68-0.63-1.3-0.82-2.02c-0.24-0.96-0.48-1.59-0.32-2.43c0.17-0.87,0.62-1.74,1.85-2.12c1.02-0.32,2.63-0.19,3.69,0.04 c0.76,0.17,1.11,0.63,1.91,0.76c1.49,0.26,2.94,0.21,4.31,0.22c1.76,0.01,3.38,0.12,4.54-0.34c2.13-0.85,5.97-1.72,8.05-0.7 c1.09,0.53,1.78,1.51,1.26,3.38c-0.38,1.34-1.47,2.59-2.65,3.55c-1.91,1.56-4.01,2.8-3.12,5.75c0.98,3.26,2.36,5.79,3.81,8.39 c1.26,2.26,2.55,4.6,3.95,7.02c0.85,1.47,2.97,4.83,2.97,4.83s1.31-2.34,2.03-4.28c0.86-2.32,2.07-4.7,3.16-7.18 c0.87-1.99,1.61-4.08,2.39-5.97c0.76-1.83,1.67-4.39,0.96-6.13c-0.41-1.01-1.89-1.67-3.03-2.53c-0.67-0.51-1.29-1.04-1.9-1.78 c-1.75-2.12-2.63-4.63-0.13-5.69c0.66-0.28,2.04-0.5,3.18-0.32C175.71,220.33,177.48,222.37,180.85,222.42z"/>
<path d="M120.66,107.18c1.27,0.07,1.8,0.56,2.23,1.28c0.71,1.21,0.72,3.13,0.24,5.14 c-0.43,1.79-1.1,3.65-1.31,5.11c-0.14,0.98-0.29,1.98-0.04,2.85c0.34,1.19,1.21,2.2,1.81,3.28c0.99,1.76,1.94,3.47,3.11,5.16 c1.02,1.46,2.42,3.04,3.47,4.71c1.98,3.18,4.26,6.25,8.39,6.67c0.83,0.08,1.92,0.53,3.07,0.93c0.81,0.27,1.68,0.4,2.34,0.86 c0.99,0.7,1.34,1.62,1.47,2.66c0.1,0.83,0.11,1.74-0.63,2.69c-1.3,1.67-3.44,2.11-5.57,2.8c-3.24,1.05-6.5,2.24-7.96,5.69 c-0.68,1.06-1.78,1.55-2.82,1.91c-2.04,0.7-3.89,0.56-4.45-1.32c-0.22-0.72-0.52-2.03-0.15-3.16c0.83-2.53,1.59-6.08,1.15-8.95 c-0.33-2.11-1.58-3.88-3.5-4.77c-1.8-0.84-3.7,0.36-5.61,1.58c-2.12,1.36-4.23,2.85-5.65,3.91c-1.57,1.17-3.69,2.42-5.52,3.37 c-1.42,0.74-2.79,1.1-2.76,2.35c0.03,1.33,0.99,2.52,1.68,3.84c0.77,1.49,1.33,3.06,2.71,3.74c1.21,0.59,2.71,0.27,4.41,0.18 c1.28-0.06,2.58-0.24,3.64,0.08c1.65,0.5,2.45,1.44,2.53,2.61c0.05,0.81-0.06,1.77-1.29,2.61c-2.92,1.98-5.81,3.76-8.41,6.09 c-0.73,0.66-1.6,1.06-2.25,1.88c-1.64,2.1-5.42,4.77-7.74,3.79c-0.78-0.33-1.43-0.72-1.73-2.17c-0.57-2.73,1.31-5.48,1.65-8.33 c0.24-2.01-0.63-4.1-2.12-6.17c-1.44-2-2.68-4.53-4.1-6.76c-1.28-2-2.74-3.71-3.97-5.55c-0.9-1.35-1.6-3.1-2.97-4.28 c-1.04-0.9-2.59-1.39-4.21-1.61c-2.72-0.38-6.69-1.73-7.16-4.13c-0.15-0.78-0.38-1.64,0.5-2.64c1.14-1.29,3.09-1.6,4.93-2.3 c2.26-0.85,4.45-2.01,6.09-2.94c0.76-0.43,1.75-0.83,2.68-1.42c1.98-1.27,4.08-2.75,5.83-2.61c0.69,0.06,1.27,0.18,1.79,0.68 c0.24,0.23,0.55,0.4,0.71,0.92c0.36,1.18,0.07,2.3-0.3,3.44c-0.59,1.85-1.56,3.72-1.78,5.68c-0.19,1.67,1.05,3.5,2.08,5.32 c0.8,1.42,1.46,2.87,2.69,3.07c1.06,0.17,2.65-0.75,3.89-1.74c0.85-0.68,2.04-1.19,2.95-1.81c0.73-0.49,1.18-1.09,1.88-1.56 c2.37-1.59,4.61-3.22,6.98-4.48c1.01-0.54,1.8-1.3,2.14-2.23c0.47-1.27,0.21-2.81-0.43-4.05c-1.14-2.22-3.87-3.73-5.94-4.51 c-1.14-0.43-2.7-1.08-4.07-1.58c-2.03-0.74-3.56-1.55-2.15-4.09c1.87-3.46,5.81-3.77,9.26-4.77c2.28-0.66,3.86-3.39,5.63-5.08 c0.25-0.24,0.6-0.84,1.08-1.2C119.72,107.37,120.49,107.17,120.66,107.18z"/>
<path d="M65.95,141.44c4.17,0.06,6.31,3.13,9.42,4.75c2.37,1.23,5.18,3.77,6.07,6.35 c0.36,1.04,0.63,2,0.09,3.01c-0.73,1.37-3.26,1.37-6.11,0.44c-1.79-0.58-3.68-1.83-5.23-1.8c-2.94,0.06-6.06,2.05-5.63,5 c0.1,0.7,0.21,1.42,0.79,2.23c2.83,3.9,5.82,7.54,9.4,11c3.05,2.95,5.13,5.38,9.57,7.27c1.02,0.43,2.66,0.54,4.18,0.21 c2.74-0.6,4.94-1.63,5.63,0.15c0.17,0.44,0.51,1.02,0.39,1.88c-0.24,1.68-1.67,2.39-2.79,3.38c-1.7,1.5-3.42,3.06-4.95,5.16 c-1.36,1.86-3.11,3.05-4.46,4.7c-1.2,1.46-1.96,3.42-3.72,4.26c-4.69,2.23-3.66-5.52-3.97-8.75c-0.45-4.63-3.57-7.4-6.45-10.27 c-1.31-1.3-2.48-2.81-3.87-4.28c-1.71-1.81-3.4-3.61-4.88-5.24c-0.91-1-1.52-2.09-2.66-2.63c-1.31-0.62-2.74,0.27-4,1.45 c-1.41,1.32-2.55,3.05-2.22,4.39c1.04,4.17,5.93,9.61,1.91,13.5c-2.51,2.44-4.6-0.15-6.38-2.66c-0.9-1.28-1.87-2.33-2.48-3.12 c-1.19-1.56-2.24-3.55-3.23-5.47c-0.67-1.3-0.94-2.62-1.24-3.97c-0.29-1.36-0.6-2.75-0.1-4.23c1.03-3.04,5.34-4.66,8.38-6.27 c4.04-2.14,8.22-4.65,10.36-8.55c1.73-3.15,3.81-5.01,5.19-8.32C63.53,143.67,64.23,141.42,65.95,141.44z"/>
<path d="M150.19,93.37c0.65,0.19,1.45,0.43,1.82,0.98c0.62,0.92,0.58,2.39,0.58,3.74 c0,1.29-0.09,2.61-0.82,3.67c-1.04,1.51-1.72,2.96-1.7,4.46c0.02,1.83,0.93,3.7,1.66,5.52c0.93,2.34,1.88,4.72,2.78,6.91 c0.5,1.22,0.77,2.45,1.34,3.58c0.66,1.3,1.65,2.48,2.52,3.79c0.53,0.8,0.82,1.69,1.39,2.35c1.15,1.32,2.66,2.19,4.1,2.95 c2.09,1.09,4.64,1.55,5.01,4.17c0.43,2.95-2.12,3.38-4.82,3.98c-2.6,0.58-5.32,1.36-6.77,3.05c-1.42,1.67-4.35,2.7-6.84,2.76 c-1.57,0.04-3.23,0.19-3.38-1.68c-0.17-2.17,1.29-3.94,1.94-6.12c0.72-2.43,0.59-5.28-0.57-7.75c-1.2-2.53-2.11-5.57-3.34-8.49 c-1.05-2.51-2.39-4.91-3.62-6.98c-1.81-3.04-5.3-4.21-8.35-5.21c-2.22-0.72-4.26-1.05-4.94-3.43c-0.19-0.67,0.06-1.12,0.1-1.61 c0.15-1.88,1.57-2.64,3.69-3.12c2.63-0.6,5.86-0.99,7.99-1.46c1.59-0.36,3.2-1.15,4.41-2.33c1.47-1.43,2.5-3.27,3.86-3.55 C148.72,93.47,149.44,93.16,150.19,93.37z"/>
<path d="M195.6,82.07c3.8-0.61,6.04,1.48,6.91,4.44c0.44,1.49,1.16,3.53,1.35,5.52 c0.17,1.8-0.14,3.58-0.9,4.63c-0.54,0.75-1.23,1.38-2.61,1.18c-2.72-0.39-4.01-3.43-5.95-5.48c-1.79-1.89-4.19-2.82-7.31-2.65 c-1.82,0.1-3.88-0.08-5.8,0.39c-2.09,0.52-3.64,1.82-4.87,3.18c-0.93,1.02-1.85,1.93-1.79,3.42c0.05,1.36,0.8,2.03,1.59,2.65 c2.91,2.28,9.56,0.64,13.21,0.24c5.59-0.6,11.96-0.57,16.17,2.94c0.94,0.78,1.97,1.5,2.63,2.69c3.2,5.73,2.44,12.92-1.57,18.25 c-2.62,3.49-6.25,4.9-10.62,6.5c-1.27,0.47-2.62,0.74-4,1.08c-2.09,0.52-4.15,1.34-6.3,1.55c-1.72,0.17-3.52-0.21-5.2-0.22 c-1.34-0.01-2.64-0.22-3.87-0.35c-1.72-0.17-3.42-0.16-4.91-1.22c-0.71-0.5-1.02-1.21-1.47-1.96c-0.7-1.16-1.41-2.49-1.88-3.85 c-0.46-1.36-0.64-2.79-0.73-4.14c-0.11-1.62,0-3.15,0.94-4.53c1.63-2.39,3.2-1.71,5.02-0.37c1.41,1.05,3.07,2.46,4.38,3.4 c2.04,1.46,4.08,3.5,6.4,4.26c2.87,0.94,6.06,0.31,9.05-1.14c1.07-0.52,2.82-1.09,4.34-2c2.9-1.73,5.36-4.21,3.4-6.46 c-2.22-2.55-5.23-2.01-8.75-1.59c-5.09,0.62-11.07,1.92-15.74,0.98c-6.39-1.29-12.04-4.78-12.68-11.76 c-0.41-4.47,1.02-9.36,3.36-12.29c4.3-5.39,11.23-6.7,18.04-7.03C188.81,82.17,192.29,82.6,195.6,82.07z"/>
<path d="M408.33,118.18c3.79,0.36,7.36,1.39,10.53,3.36c5.11,3.18,8.45,7.78,10.73,12.91 c1.28,2.89,2.62,5.79,2.82,9.08c0.23,3.77-1.3,7.41-2.99,10.91c-1.16,2.38-2.51,4.66-4.13,6.66c-1.46,1.81-3.15,3.39-5.12,4.62 c-2.17,1.36-4.78,1.93-7.4,2.31c-6.97,1.01-14.79-0.99-20.36-5.46c-3.83-3.08-7.33-6.8-9.13-11.22 c-1.27-3.12-1.19-6.24-0.89-9.43c0.45-4.87,1.95-9.77,4.2-14.07c1.31-2.5,3.33-4.14,5.51-5.61c2.57-1.73,5.43-3.1,8.77-3.68 C401.56,118.44,405.99,117.96,408.33,118.18z M407.23,127.42c-1.97,0.65-3.47,1.9-4.89,3.18c-1.95,1.76-3.63,3.78-5.12,6.1 c-3.12,4.88-5.57,12.61-1.11,18.16c1.79,2.22,4.62,3.91,7.19,4.13c3.38,0.29,7.18-1.34,9.53-4.09c2.34-2.75,4.84-5.95,6.47-9.81 c0.69-1.64,0.98-3.57,1.26-5.51c0.39-2.71,0.04-5.05-1.09-6.81c-1.75-2.72-5.33-4.66-8.64-5.61 C410.2,126.98,407.68,127.27,407.23,127.42z"/>
<path d="M349.51,86.89c1.38,0.34,2.06,1.54,3.26,2.56c1.25,1.07,3.03,1.98,4.65,2.59 c0.83,0.31,1.79,0.68,2.78,0.81c2.17,0.29,4.11,0.5,4.26,3.7c0.16,3.27,1.77,6.33,2.62,9.25c1.07,3.68,2.41,10.46,3.9,15.98 c1.33,4.93,2.9,8.86,2.9,8.86s1.86-3.78,2.62-6.18c0.79-2.51,2.45-5.87,3.4-8.66c0.54-1.59,1.2-2.92,0.56-4.32 c-0.51-1.11-1.69-2.33-2.14-3.79c-1-3.25-0.3-6.37,3.73-5.43c1.99,0.47,3.21,1.78,4.73,2.76c1.78,1.14,3.87,1.9,6.54,1.75 c1.46-0.08,2.19,0.67,2.9,1.28c0.95,0.83,1.59,1.75,1.48,3.12c-0.09,1.11-0.65,2.06-1.36,2.87c-0.49,0.55-0.98,1.1-1.75,1.39 c-1.78,0.67-3.45,0.82-4.68,1.75c-1.18,0.9-1.93,2.57-2.65,4.46c-0.52,1.37-1.4,2.67-2.06,4.09c-2.45,5.28-5.4,10.89-7.71,15.42 c-1.23,2.42-2.18,4.76-3.43,6.97c-0.7,1.23-1.24,2.68-2.56,3.45c-2.07,1.22-2.91-0.2-3.62-2.14c-0.68-1.88-1.25-4.25-1.84-5.51 c-0.54-1.15-0.62-2.47-1-3.7c-0.61-1.96-1.44-3.88-1.98-5.79c-1.55-5.54-2.9-10.84-4.54-16.21c-1.26-4.13-4.52-12.9-4.52-12.9 s-5.22,11.93-7.12,17.58c-0.54,1.6-1.01,3.19-0.94,4.72c0.09,2.06,0.96,4.03,2.08,5.83c2.04,3.3-0.46,5.03-3.26,4.68 c-0.77-0.1-1.58-0.19-2.31-0.65c-0.93-0.59-1.96-1.07-3.05-1.5c-0.87-0.34-1.63-0.99-2.5-1.42c-1.2-0.59-2.52-0.97-3.73-1.42 c-0.97-0.35-1.95-0.79-2.89-1.06c-0.82-0.23-1.63-0.27-2.22-0.85c-0.8-0.78-0.87-1.52-0.87-2.19c0-0.9,0.33-1.68,1.18-2.36 c1.82-1.48,5.12-2.24,7.13-2.75c5.07-1.28,5.76-7.88,7.38-12.23c1.03-2.76,2.4-5.67,3.43-8.3c0.39-0.99,1.14-1.92,1.25-2.87 c0.06-0.52-0.35-1.03-0.47-1.59c-0.73-3.17-3.78-7.27-1.87-10.55c0.17-0.3,0.53-1.24,1.36-1.55 C347.59,86.5,349.15,86.8,349.51,86.89z"/>
<path d="M445.2,144.31c2.24-0.08,3.49,1.15,4.63,2.7c1.82,2.47,2.98,5.99,4.76,8.06 c1.83,2.13,3.32,4.83,5.45,7.08c0.58,0.61,1.23,1.31,1.92,1.83c1.04,0.78,2.18,1.32,3.28,2.02c0.54,0.34,0.94,0.82,1.53,1.27 c0.96,0.74,2.12,1.53,3.12,2.42c2.5,2.22,4.56,4.87,2.49,8.14c-1.43,2.26-3.05,4.12-4.68,5.94c-1.35,1.51-2.59,3.08-4.69,3.98 c-1.56,0.66-2.55,0.32-3.22-0.36c-0.67-0.69-1.17-1.85-1.12-3.13c0.03-0.87,0.43-1.64,0.79-2.5c0.32-0.75,0.58-1.61,1.02-2.21 c0.61-0.82,0.65-1.85,0.69-2.84c0.04-1.28-0.11-2.51-0.9-3.42c-0.84-0.95-2.02-1.26-3.4-1.24c-0.69,0.01-1.49-0.05-2.18,0.23 c-2.43,1-4.83,2.47-6.86,4.3c-1.13,1.02-1.97,2.29-3.07,3.34c-1.23,1.17-2.75,1.97-4.01,3.23c-0.82,0.82-1.43,2.06-2.14,2.99 c-0.96,1.26-2.01,2.45-2.27,4.28c-0.5,3.46,0.72,12.43-4.87,10.05c-1.14-0.49-1.94-1.6-2.77-2.64 c-0.83-1.04-1.69-2.01-2.45-3.27c-0.89-1.47-1.74-3.19-3.03-4.08c-1.01-0.7-2.64-1.35-3.86-2.27c-1.59-1.21-2.64-2.75-2.56-4.14 c0.05-0.78,0.14-1.72,1.35-2.39c2.13-1.19,4.7-0.93,7.06-1.41c2.78-0.57,5.34-1.87,7.52-3.66c2.59-2.13,5.02-3.79,7.1-5.74 c1.84-1.72,3.35-3.73,5.33-5.34c0.63-0.51,1.22-1.38,1.8-2.11c0.61-0.76,1.21-1.38,1.17-2.23c-0.06-1.3-1.36-2.5-2.6-3.41 c-0.57-0.42-1.1-0.86-1.64-1c-2.92-0.76-5.56,2.06-9.13,1.08c-4.34-1.19-2.43-4.66-0.38-6.57c2.32-2.16,5-4.33,7.54-6.01 C443.26,144.37,444.98,144.32,445.2,144.31z"/>
<path d="M469.03,220.65c1.07,0.45,1.29,1.5,1.24,2.72c-0.1,2.39-1.46,5.68-2.12,7.67 c-0.89,2.69-2.42,6.58-4.67,7.7c-1.35,0.67-3.03,0.17-4.79-1.72c-1.8-1.92-3.08-3.88-4.84-5.36c-1.63-1.37-3.69-2.31-6.36-2.88 c-3.65-0.77-7.36-0.48-10.01,1.64c-1.38,1.1-2.38,2.87-3.15,4.89c-0.5,1.32-1.26,2.75-1.49,4.29c-0.36,2.37,0.04,4.93,0.64,7.2 c0.24,0.91,0.36,1.84,0.81,2.64c0.8,1.45,2.1,2.65,3.2,3.69c2.28,2.18,4.72,3.96,7.43,4.6c3.49,0.82,7.33,0.12,10.9-0.27 c3.16-0.35,4.75-4.39,3.35-6.5c-0.64-0.97-2.11-1.22-4-1.07c-4,0.31-10.53-1.52-6.74-5.97c2.23-2.61,5.72-2.98,9.48-3.09 c3.26-0.09,6.72-0.17,9.66,0.82c1.78,0.6,3.21,1.85,3.66,3.61c0.38,1.48-0.01,3.36-0.6,5.22c-1.08,3.43-2.15,6.34-1.79,9.15 c0.26,2.01,1.22,4.04,2.74,5.98c0.72,0.91-0.07,1.87-0.45,2.45c-0.45,0.68-1.34,1.34-2.34,1.41c-1.19,0.08-2.22-0.74-3.38-1.62 c-0.72-0.54-1.69-1.16-2.24-1.95c-0.52-0.75-0.81-1.71-1.29-2.29c-0.38-0.46-0.97-0.44-1.5-0.48c-0.58-0.04-1.11-0.09-1.93,0.57 c-1.49,1.19-2.86,2.77-4.55,3.84c-2.85,1.8-6.4,2.47-10.2,2.07c-4.26-0.45-7.75-2.01-10.96-4.24c-2.16-1.5-4.29-3.23-6.08-5.41 c-1.06-1.29-1.76-2.79-2.38-4.31c-1.34-3.26-1.92-6.88-1.88-10.62c0.03-2.82-0.11-5.67,0.76-8.37c0.99-3.07,2.32-5.62,4.27-8.03 c0.77-0.96,1.86-2.18,2.93-3.03c2.02-1.59,4.61-2.37,7.2-3.07c2.89-0.79,5.82-1.4,8.74-1.26c1.87,0.09,4.18,0.73,6.55,1.04 c4.21,0.56,8.58,0.76,10.77-0.23C464.61,221.65,466.83,219.73,469.03,220.65z"/>
<path d="M113.98,220.33c2.38,0.18,4.5,0.69,6.56,1.25c4,1.08,7.55,2.88,10.64,6.45 c4.45,5.16,8.63,13.36,6.04,21.38c-1.31,4.06-3.27,8.87-6.52,12.14c-2.34,2.36-4.4,3.63-7.26,5.2 c-4.88,2.68-10.5,3.26-15.95,2.17c-8.78-1.75-15.35-7.7-19.06-14.49c-2.8-5.11-2.92-11.34-1.22-16.46 c1.84-5.54,5.51-10.36,10.65-13.03c2.28-1.18,4.8-3.2,7.6-4.14C107.03,220.28,113.08,220.26,113.98,220.33z M108.57,228.8 c-7.25,0.25-10.24,8.01-9.61,14.6c0.48,5.05,2.82,8.89,5.48,12.76c2.25,3.28,7.31,6.51,12.81,4.76 c5.91-1.88,9.7-8.89,8.07-14.66c-1.69-5.96-4.41-12.63-10.01-16.45C113.39,228.5,110.73,228.76,108.57,228.8 C108.57,228.8,108.57,228.8,108.57,228.8z"/>
<path d="M334.65,220.33c2.38,0.18,4.5,0.69,6.56,1.25c4,1.08,7.55,2.88,10.64,6.45 c4.45,5.16,8.63,13.36,6.04,21.38c-1.31,4.06-3.27,8.87-6.52,12.14c-2.34,2.36-4.4,3.63-7.26,5.2 c-4.88,2.68-10.5,3.26-15.95,2.17c-8.78-1.75-15.35-7.7-19.06-14.49c-2.8-5.11-2.92-11.34-1.22-16.46 c1.84-5.54,5.51-10.36,10.65-13.03c2.28-1.18,4.8-3.2,7.6-4.14C327.7,220.28,333.75,220.26,334.65,220.33z M329.24,228.8 c-7.25,0.25-10.24,8.01-9.61,14.6c0.48,5.05,2.82,8.89,5.48,12.76c2.25,3.28,7.31,6.51,12.81,4.76 c5.91-1.88,9.7-8.89,8.07-14.66c-1.69-5.96-4.41-12.63-10.01-16.45C334.07,228.5,331.41,228.76,329.24,228.8L329.24,228.8z"/>
<path d="M379.99,220.83c3.58,2.06,5.46,6.17,8.18,9.15c1.61,1.76,2.98,3.83,4.51,5.66 c2.09,2.51,4.3,4.79,6.36,7.37c2.08,2.6,4.93,5.47,6.91,7.37c-0.29-3.51-0.16-7.75,0.04-11.62c0.14-2.77,0.58-5.3-0.26-7.41 c-1.09-2.73-5.09-3.59-5.87-6.25c-0.22-0.76-0.57-1.89-0.04-2.97c0.76-1.57,1.84-1.44,3.17-1.32c3.03,0.29,7.16,2.79,10.36,0.73 c0.78-0.5,1.59-0.43,2.38-0.46c1.46-0.06,2.8,0.29,3.48,1.41c0.92,1.52,0.53,3.95-1.01,5.3c-2.27,1.98-3.52,4.6-4.03,7.52 c-0.66,3.81-0.2,8.06-0.4,11.33c-0.24,3.98,0.01,8.19,0.07,12.28c0.03,2.23-0.4,4.38-0.07,6.53c0.51,3.31-1.55,9.55-5.08,5.54 c-2.94-3.33-5.78-6.54-8.54-9.86c-1.61-1.93-3.26-3.74-4.68-6.07c-3.86-4.79-8.31-9.02-12.37-14.06 c-1.46-1.82-4.4-5.43-5.72-6.58c-0.04,4.91-0.76,11.24-0.53,16.7c0.15,3.55,0.27,6.75,2.75,8.87c1.19,1.02,2.66,1.63,3.54,2.68 c0.54,0.64,0.72,1.67,0.9,2.4c0.22,0.88,0.48,1.93-0.37,2.97c-0.46,0.56-1.17,0.75-1.67,0.99c-0.99,0.47-1.94,0.77-3.01,0.53 c-1.35-0.3-2.88-1.25-4.42-1.5c-1.63-0.26-3.33,0.44-4.99,1.47c-0.96,0.6-2.17,0.34-3.26,0.29c-3.1-0.16-5.8-2.23-3.65-5.63 c1.29-2.05,4.14-3.91,5.83-6.69c1.07-1.77,1.5-4.1,1.34-6.45c-0.13-1.82,0.15-3.77,0.2-5.79c0.05-2.17-0.14-4.4-0.09-6.42 c0.06-2.54,0.6-4.73-1.03-6.58c-1.09-1.23-3.17-1.87-4.44-3.17c-1.38-1.41-1.79-3.03-1.63-4.64c0.09-0.92,0.06-1.89,0.92-2.68 c1-0.92,2.14-0.71,3.37-0.48c2.18,0.4,4.62,1.44,7.11,0.51c0.67-0.25,1.45-0.47,2.2-0.85 C377.05,220.63,379.44,220.51,379.99,220.83z"/>
<path d="M281.06,220.68c3.46,0.12,4.73,0.19,9.52,2.06c0.9,0.35,2.82,1.06,4.45,1.19 c1.38,0.11,2.45-0.39,3.51,0.06c1.25,0.52,1.81,1.51,1.74,3.09c-0.18,4.14-0.07,5.46-0.86,8.78c-1.26,5.32-7.75,3.68-8.71-0.79 c-0.77-3.61-3.37-5.89-6.69-6.94c-2.14-0.68-4.68-0.71-6.91-0.67c-2.29,0.04-5.24,2.35-6.1,4.63c-0.6,1.59-0.03,3.19,1.83,3.91 c5.04,1.96,10.08,1.26,15.42,2.27c3.14,0.59,5.67,1.85,7.9,3.42c1.63,1.15,3.14,2.35,4.32,4.19c2.29,3.57,2.4,7.69,1.8,10.52 c-1.6,7.64-9.9,10.23-16.81,12.43c-4.29,1.37-11.48,0.99-14.89,0.22c-4.38-0.98-9.84-1.98-11.55-7.06 c-1.31-3.89-1.95-10.86,0.56-13.24c0.92-0.87,2.08-1.48,4.06-0.6c1.34,0.6,1.53,1.83,2.17,3.14c0.7,1.43,1.83,2.97,2.96,4.4 c1.59,2.02,3.17,4.36,5.46,5.63c3.2,1.77,7.38,1.96,11.42,0.84c3.22-0.89,7.14-3.51,5.61-7.06c-1.24-2.87-3.37-3.48-6.73-4.42 c-5.52-1.54-12.76-0.19-17.95-3.17c-2.42-1.38-4.39-3.93-5.85-6.64c-0.8-1.5-1.58-2.9-1.88-4.53c-0.44-2.4,0.55-4.65,1.96-6.73 c1.88-2.77,4.66-5.15,7.39-6.36c2.86-1.26,1.37-0.76,5.03-1.8C275.83,220.69,278.46,220.59,281.06,220.68z"/>
<path d="M225.24,222.58c2.77,0.77,8.08-4.12,9.19,0.23c0.71,2.79,0.23,5.41-0.07,8.03 c-0.19,1.69-0.69,3.27-1.15,4.87c-0.28,0.98-0.61,2.96-2.1,3.63c-0.59,0.27-2.33,0.74-3,0.42c-1.7-0.81-3.27-2.95-4.05-4.83 c-2.06-5.01-9.76-9.51-15.1-6.41c-1.51,0.87-3.5,2.64-4.77,4.7c-1.45,2.37-2.07,5-2.07,5s0.65,0.74,1.86,1.21 c1.33,0.51,3.35,0.12,5.16,0.36c2.06,0.26,3.89,1.05,5.02,0.08c1.19-1.03,1.2-2.78,2.33-3.76c2-1.73,5.01-2.07,6.51,0.75 c1.57,2.96,2.24,7.11,2.1,11.05c-0.09,2.48,0.04,4.99-1.79,6.69c-3.4,3.17-5.51-3.97-8.6-5.08c-3.78-1.35-12.01-1.56-12.01-1.56 s0.88,4.14,3.43,6.92c2.17,2.37,5.8,3.38,8.5,3.91c1.65,0.32,3.24,0.72,4.68,0.6c1.31-0.11,2.49-0.68,3.61-1.19 c3.44-1.57,6.07-4.75,8.64-7.27c2.16-2.12,5.95-1.73,5.02,1.29c-0.78,2.55-1.4,5.16-2.66,7.15c-1.93,3.06-4.78,5.14-7.57,6.97 c-4.75,3.12-10.43,4.5-16.26,2.58c-4.64-1.53-7.79-3.82-11.35-6.53c-4.32-3.28-7.56-11.81-7.55-17c0-4.23,0.66-6.53,2.12-9.87 c1.99-4.58,7.86-11.93,12.75-13.69c2.83-1.02,7.48-1.29,11.74-0.85C220.71,221.29,223.42,222.08,225.24,222.58z"/>
<path d="M63.13,228.77c-4.13,3.06-5.16,8.45-4.76,13.77c0.42,5.63-1.52,12.72,1.48,17.21 c2.78,4.16,8.26,1.27,10.8-1.8c2.26-2.74,4.12-5.65,6.3-9.18c2.28-3.7,7.32-0.08,6.61,3.96c-0.99,5.68,1.8,15.62-6.02,16.26 c-4.18,0.35-10.46-0.12-13.99,0.13c-7.21,0.51-16.18,3.92-22.96,0.17c-3.41-1.89,0.38-6.96,2.45-8.48 c6.07-4.46,1.83-13.84,3.35-20.74c0.98-4.46-0.81-8.4-3.86-11.42c-2.2-2.19-3.37-8.59,1.68-8.35c3.97,0.19,6.78,1.68,11.3,0.94 c2.04-0.33,4.63-3.61,6.62-2.43C64.09,219.96,66.96,225.93,63.13,228.77z"/>
</g>
</g>
</g>
</svg>
