<?xml version="1.0" encoding="utf-8"?>
<svg version="1.1" id="Calque_1" xmlns="http://www.w3.org/2000/svg" xmlns:xlink="http://www.w3.org/1999/xlink" x="0px" y="0px"
	 viewBox="0 0 342 342" style="enable-background:new 0 0 342 342;" xml:space="preserve">
<style type="text/css">
	.st0{fill-rule:evenodd;clip-rule:evenodd;fill:none;}
	.st1{fill-rule:evenodd;clip-rule:evenodd;fill:#000000}
	.st2{fill-rule:evenodd;clip-rule:evenodd;fill:url(#trame-tinals-2018);}
</style>
<pattern  width="114" height="114" patternUnits="userSpaceOnUse" id="trame-tinals-2018" viewBox="2.694 -114 114 114" style="overflow:visible;">
	<g>
		<rect x="2.694" y="-114" class="st0" width="114" height="114"/>
		<g id="g162_13_" transform="matrix(0.242211,0,0,0.242211,-115.92574,-0.31393339)">
			<path id="path146_9_" class="st1" d="M778.32-92.367c-2.18-0.51-3.55,0.5-4.67,1.69c-1.78,1.89-3.25,5.14-3.12,7.66
				c0.24,4.72,5.98,3.69,6.36,8.18c0.29,3.54-0.78,7.44-2.6,8.96c-1.96-0.94-1.67-4.13-2.34-6.36c-0.75-0.45-2.09,0.08-2.86,0.39
				c0.7,2.73,0.39,5.02,1.69,7.01c1.87,2.86,5.71,2.11,7.14,0c1.25-1.85,2.1-6.2,2.08-8.96c-0.04-3.5-1.64-5.75-3.77-7.27
				c-0.94-0.67-2.2-0.99-2.47-1.69c-0.87-2.25,2.1-6.13,3.25-6.62c1.14,0.52,1.76,1.54,2.86,2.08c0.39-0.96,1.4-1.29,1.56-2.47
				C780.54-90.787,779.36-91.517,778.32-92.367z"/>
			<path id="path147_9_" class="st1" d="M850.9-91.837c-0.37,1-1.98,1.29-2.73,2.08c-1.02,1.06-1.74,3.34-2.47,5.19
				c-0.76,1.92-1.25,4-1.69,6.1c-0.77,3.71-1.38,11,0.78,13.37c0.87,0.96,3.42,2.07,5.32,1.69c0.59-0.12,1.88-1.09,2.47-1.82
				c1.88-2.35,2.71-6.18,3.63-10c1.26-5.21,2.9-13.48-1.3-15.84c-1.19-0.67-2.56-0.46-3.64-1.04
				C851.11-92.047,850.97-91.967,850.9-91.837z M849.31-66.527c-0.97-0.12-1.71-0.46-2.34-0.91c-1.64-6.99,0.84-15.02,3.38-20.25
				c0.69-0.07,1.32-0.9,2.08-0.91c2.07-0.04,2.05,3.14,1.95,4.54C853.9-77.507,852.31-69.947,849.31-66.527z"/>
			<path id="path148_9_" class="st1" d="M794.54-91.977c0,0.13,0,0.26,0,0.39c-0.71,3.87-1.22,8.19-1.56,12.72
				c-0.39,5.14-2,11.08-1.04,15.19c0.37,0.55,1.6,0.15,1.95,0.39c1.9-8.83,2.29-19.17,3.63-28.56
				C796.62-91.607,795.79-92.167,794.54-91.977z"/>
			<path id="path149_9_" class="st1" d="M866.85-91.857c-0.16,0.05-0.27,0.17-0.26,0.39c-2.36,0.14-5.26-0.08-7.53,0.13
				c0.02,0.6-0.06,2.05,0.26,2.99c2.58,0.07,4.16-0.24,6.36,0.13c-0.98,5.84-1.83,11.81-2.73,17.66c-0.39,2.56-1.28,5.21-0.78,7.79
				c0.75,0.14,1.98,0.26,2.6,0.13c1.17-8.28,2.79-16.75,4.02-25.57c2.18-0.32,5.61,0.84,6.75-0.13c0.66-0.56,0.24-1.65,0.26-2.73
				C872.6-91.117,869.59-91.347,866.85-91.857z"/>
			<path id="path151_9_" class="st1" d="M934.74-68.737c0.11,2.61-0.42,5.99,1.69,6.23c2.48,0.28,2.8-4.17,3.51-6.36
				c2.18-6.7,4.67-11.3,6.62-18.04c0.31-1.06,1.22-3.24,1.04-3.64c-0.27-0.61-2.28-1.25-2.86-0.65c-0.31,0.33-0.55,1.64-0.78,2.34
				c-1.85,5.67-4.1,10.94-6.1,16.1c0.18-5.42-1.09-11.38-0.39-17.27c-0.91-0.08-2.02-0.36-3.12,0
				C934.25-83.257,934.42-76.297,934.74-68.737z"/>
			<path id="path152_9_" class="st1" d="M838.4-91.207c-0.58,6.81-3.28,11.51-3.76,18.43c-1.3-3.41-2.95-7.27-4.02-11.16
				c-0.59-2.15-0.42-5.24-2.6-5.32c-2.96-0.11-2.58,6.48-2.99,9.09c-0.92,5.82-1.86,11.86-2.47,17.52c0.91,0.05,1.99,0.43,2.99,0.13
				c0.73-5.34,1.67-12.22,2.86-17.91c0.93,2.71,2.04,4.99,2.99,8.05c0.67,2.18,1.4,7.09,3.89,7.14c3.16,0.06,2.12-5.07,2.47-7.92
				c0.71-5.79,3.86-12.58,3.12-17.91C840.44-91.437,838.7-91.487,838.4-91.207z"/>
			<path id="path153_9_" class="st1" d="M742.48-88.477c0.67-0.36,0.25-2.33-0.13-2.86c-5.82,0.02-11.54,1.27-17.01,0.13
				c0.02,0.67-0.53,1.99-0.13,2.98c2.39,0.58,4.66,0.63,6.88,0.65c-0.56,6.67-1.23,16.07-0.65,24.15c0.42,0.38,1.18,0.04,1.95,0.26
				c1.77-6.86,0.7-17.75,1.82-24.66C737.1-88.177,740.7-87.627,742.48-88.477z"/>
			<path id="path154_9_" class="st1" d="M752.48-91.067c-0.53,4.26-0.19,7.91-0.52,12.72c-1.67-0.05-3.55,0.15-4.54-0.26
				c-0.07-4.12,0.5-7.84,0.91-11.81c-1.33-0.03-1.91-0.37-2.99-0.13c-1.08,8.43-1.98,19.02-1.17,27.39
				c0.35,0.26,1.14,0.08,1.69,0.13c0.93-3.66,1.01-8.16,1.43-12.33c1.79-0.12,2.87-0.14,4.8-0.26c-0.12,4.86-0.34,8.63,0.39,12.07
				c0.43,0.27,1.32,0.07,1.95,0.13c0.79-2.57,0.64-5.94,0.78-9.22c0.27-6.12-0.28-12.17,0.26-18.56
				C754.84-91.057,753.13-91.677,752.48-91.067z"/>
			<path id="path155_11_" class="st1" d="M952.92-91.187c0.35,1.84-0.35,3.45-0.65,4.8c-1.14,5.1-2.03,11.44-2.6,16.49
				c-0.09,0.83-0.41,1.56-0.39,2.34c0.12,4.41,4.85,2.96,8.05,2.47c1.67-0.26,3.22-0.72,4.93-0.91c0.51-0.78-0.07-2-0.26-2.86
				c-3.05,0.28-6.87,0.81-9.61,1.3c0.33-3,0.84-5.83,1.3-8.7c2.96-0.42,6.75-0.56,8.83-2.21c0.35-0.58-0.37-1.18-0.26-1.95
				c-2.41,0.49-5.58,0.92-8.05,0.91c0.61-2.98,0.71-6.48,2.08-8.7c2.74,0.38,6.19,0.28,8.7,0.26c0.48-0.57,0.18-1.9,0.26-2.86
				C961.48-91.227,956.58-91.097,952.92-91.187z"/>
			<path id="path158_9_" class="st1" d="M909.04-90.407c-1.35,5.14-2.38,12.61-3.5,18.17c-0.43,2.12-1.23,4.49-1.17,6.23
				c0.2,5.75,7.22,2.54,11.16,2.34c0.45-0.67,0.06-1.94-0.13-2.73c-2.79-0.18-5.61,0.47-7.92,0.65c1.71-7.94,2.78-16.52,4.54-24.41
				C910.91-90.047,909.86-91.077,909.04-90.407z"/>
			<path id="path159_9_" class="st1" d="M762.99-90.157c-0.3,3.26-0.36,6.17-0.65,9.35c-0.54,5.96-0.92,12.29-0.78,17.91
				c0.21,0.66,1.44,0.29,2.21,0.39c1.59-8.37,1.67-18.23,2.08-27.78C764.85-90.167,763.88-90.397,762.99-90.157z"/>
			<path id="path160_9_" class="st1" d="M920.85-85.487c-1.88,3.9-3.68,15.37-2.08,20.9c0.87,3,4.54,4.14,6.88,1.69
				c1.73-1.82,2.5-5.77,3.5-9.48c1.05-3.88,1.82-7.58,1.56-11.42c-0.14-2.08-0.72-3.65-1.82-4.41c-1.59-1.1-3.32-0.38-4.93-1.56
				C923.22-88.497,921.54-86.927,920.85-85.487z M927.08-86.137c1.2,5.34-0.44,12.21-2.08,17.14c-0.33,0.99-1.26,4.43-2.47,4.28
				c-1.09-0.13-1.17-3.68-1.17-5.06c0.01-3.64,0.87-11.61,2.34-14.54c0.46-0.92,1.37-1.6,1.82-2.34
				C926.3-86.737,926.57-86.317,927.08-86.137z"/>
			<path id="path161_9_" class="st1" d="M896.04-77.837c-0.11-0.37-0.75-0.2-0.65-0.78c-0.31-3.96,0.67-12.21-3.63-10.9
				c-1.62,0.49-2.68,3.69-3.5,5.45c-2.96,6.31-5.64,13.26-6.88,20.25c0.73-0.03,1.76,0.4,2.86,0.39c0.84-4.53,2.25-8.34,4.02-12.2
				c1.46,0.23,3.05,0.32,4.41,0.65c0.28,3.49,0.19,7.34,0.91,10.39c0.7,0.35,1.68-0.02,2.47,0
				C896.52-69.777,895.48-73.697,896.04-77.837z M891.9-84.577c0.33,1.97,0.17,4.18,0.52,6.36c-0.8,0.16-2.03-0.3-2.99-0.39
				C890.12-80.737,890.99-82.677,891.9-84.577z"/>
			<path id="path162_11_" class="st1" d="M801.42-86.007c-0.32,1.12-0.51,2.65-0.39,3.64c0.44,3.52,5.08,3.75,6.49,5.71
				c1.87,2.61,0.77,9.92-2.99,9.35c-0.75-1.07-0.62-3.02-1.43-4.02c-0.86-0.35-1.71,0.35-2.47,0.52c0.76,2.09,0.45,3.91,1.43,5.32
				c1.85,2.67,6.08,0.75,7.14-0.39c2.54-2.73,2.95-10.79,0.13-13.5c-1.61-1.56-4.64-1.84-5.06-3.38c-0.68-2.46,1.67-5.9,2.34-6.88
				c1.13,0.17,2.17,0.43,3.51,0.39c-0.15-1.08,0.22-1.71,0.13-2.86C804.66-94.417,802.51-89.827,801.42-86.007z"/>
		</g>
		<g id="g162_12_" transform="matrix(0.242211,0,0,0.242211,-115.92574,-0.31393339)">
			<path id="path145_9_" class="st1" d="M561.426-92.117c-1.6,0.92-3.54,3.73-4.67,5.97c-1.2,2.37-2.14,5.74-2.34,8.44
				c-0.26,3.51-0.05,8.93,1.82,11.81c0.71,1.1,2.02,2.17,4.02,1.82c3.4-0.59,6.62-7.54,7.14-11.94c0.36-3.04-1.6-4.98-4.28-4.28
				c-0.85,0.22-3.83,1.21-4.16,1.95c-0.44,0.98,0.58,1.82,0.91,2.73c1.53-0.39,2.86-1.61,4.41-1.56c-0.97,3.97-1.53,8.34-4.8,10
				c-1.35-1.24-1.93-4.21-2.08-6.88c-0.26-4.76,1.36-9.35,3.38-12.59c0.65-1.05,1.65-2.87,2.6-2.86c1.22,0.02,2.17,2.29,3.25,2.34
				c0.37-0.98,1.39-1.3,1.56-2.47C566.166-91.387,564.176-93.667,561.426-92.117z"/>
			<path id="path150_9_" class="st1" d="M510.956-90.937c-1.87,1.05-4.06,4.41-4.41,7.27c-0.66,5.37,4.88,5.74,5.97,9.35
				c0.99,3.29,0.16,9.74-3.25,8.57c-0.39-1.13-0.62-2.42-1.17-3.38c-0.7-0.17-1.56,0.37-2.21,0.65c0.45,3.49,1.07,6.27,5.06,5.97
				c1.5-0.12,2.66-1.15,3.24-1.95c3.02-4.14,1.84-11.26-1.04-14.41c-1.4-1.51-3.29-2.19-3.51-3.63c-0.22-1.46,1.1-3.67,1.95-4.8
				c1.63-2.17,4.59-0.9,7.4-0.65c-0.01-1.36,0.24-1.53,0.26-2.86C515.976-91.477,513.436-92.347,510.956-90.937z"/>
			<path id="path155_10_" class="st1" d="M482.256-91.187c0.35,1.84-0.35,3.45-0.65,4.8c-1.14,5.1-2.03,11.44-2.6,16.49
				c-0.09,0.83-0.41,1.56-0.39,2.34c0.12,4.41,4.85,2.96,8.05,2.47c1.67-0.26,3.22-0.72,4.93-0.91c0.51-0.78-0.07-2-0.26-2.86
				c-3.05,0.28-6.87,0.81-9.61,1.3c0.33-3,0.84-5.83,1.3-8.7c2.96-0.42,6.75-0.56,8.83-2.21c0.35-0.58-0.37-1.18-0.26-1.95
				c-2.41,0.49-5.58,0.92-8.05,0.91c0.61-2.98,0.71-6.48,2.08-8.7c2.74,0.38,6.19,0.28,8.7,0.26c0.48-0.57,0.18-1.9,0.26-2.86
				C490.816-91.227,485.916-91.097,482.256-91.187z"/>
			<path id="path156_9_" class="st1" d="M523.266-88.347c-1.44,2.9-2.46,6.16-2.86,10.26c-0.33,3.38-1.51,7.93-0.39,11.42
				c0.89,2.78,4.24,4.62,6.75,2.21c1.68-1.61,2.66-5.67,3.38-8.96c0.86-3.94,1.78-7.17,1.56-10.77c-0.14-2.18-0.66-4.78-1.69-5.84
				c-1.34-1.39-2.46-0.96-4.28-1.04C525.456-89.617,524.246-89.097,523.266-88.347z M527.816-87.957c0.09,0,0.17,0,0.26,0
				c0.77,6.25-0.23,12.91-2.21,18.43c-0.41,1.13-1.19,3.04-1.95,2.99c-1.72-0.12-1.12-4.87-0.91-6.75
				c0.43-3.77,0.91-10.79,2.6-12.98C526.176-87.007,527.286-87.207,527.816-87.957z"/>
			<path id="path157_9_" class="st1" d="M550.266-91.077c-0.18,0.07,0.02,0.37,0,0.39c-0.23,0.28-0.66,1.43-0.78,1.82
				c-0.39,1.22-0.53,2.76-0.91,4.28c-1,4.02-2.22,9.02-2.86,12.85c-1.59-3.81-2.77-8.7-3.89-13.63c-0.49-2.14-0.64-6.01-3.25-4.93
				c-1.36,0.56-1.4,4.82-1.69,6.49c-1.24,7.26-2.58,14.64-3.89,21.42c0.8-0.03,1.75,0.61,2.86,0.39c1.67-5.69,2.26-12.76,3.89-18.82
				c0.58,2.81,1.47,5.77,2.6,9.22c0.76,2.32,1.26,8.04,3.89,7.92c0.84-0.04,1.12-0.71,1.69-1.17c0.57-3.92,1.23-7.59,1.95-11.29
				c0.94-4.8,2.64-9.53,2.6-14.54C551.886-90.877,550.926-91.307,550.266-91.077z"/>
		</g>
		<g id="g162_11_" transform="matrix(0.242211,0,0,0.242211,-115.92574,-0.31393339)">
			<path id="path145_7_" class="st1" d="M875.202-249.005c-1.6,0.92-3.54,3.73-4.67,5.97c-1.2,2.37-2.14,5.74-2.34,8.44
				c-0.26,3.51-0.05,8.93,1.82,11.81c0.71,1.1,2.02,2.17,4.02,1.82c3.4-0.59,6.62-7.54,7.14-11.94c0.36-3.04-1.6-4.98-4.28-4.28
				c-0.85,0.22-3.83,1.21-4.16,1.95c-0.44,0.98,0.58,1.82,0.91,2.73c1.53-0.39,2.86-1.61,4.41-1.56c-0.97,3.97-1.53,8.34-4.8,10
				c-1.35-1.24-1.93-4.21-2.08-6.88c-0.26-4.76,1.36-9.35,3.38-12.59c0.65-1.05,1.65-2.87,2.6-2.86c1.22,0.02,2.17,2.29,3.25,2.34
				c0.37-0.98,1.39-1.3,1.56-2.47C879.942-248.275,877.952-250.555,875.202-249.005z"/>
			<path id="path146_7_" class="st1" d="M621.432-249.255c-2.18-0.51-3.55,0.5-4.67,1.69c-1.78,1.89-3.25,5.14-3.12,7.66
				c0.24,4.72,5.98,3.69,6.36,8.18c0.29,3.54-0.78,7.44-2.6,8.96c-1.96-0.94-1.67-4.13-2.34-6.36c-0.75-0.45-2.09,0.08-2.86,0.39
				c0.7,2.73,0.39,5.02,1.69,7.01c1.87,2.86,5.71,2.11,7.14,0c1.25-1.85,2.1-6.2,2.08-8.96c-0.04-3.5-1.64-5.75-3.77-7.27
				c-0.94-0.67-2.2-0.99-2.47-1.69c-0.87-2.25,2.1-6.13,3.25-6.62c1.14,0.52,1.76,1.54,2.86,2.08c0.39-0.96,1.4-1.29,1.56-2.47
				C623.652-247.675,622.472-248.405,621.432-249.255z"/>
			<path id="path147_7_" class="st1" d="M694.012-248.725c-0.37,1-1.98,1.29-2.73,2.08c-1.02,1.06-1.74,3.34-2.47,5.19
				c-0.76,1.92-1.25,4-1.69,6.1c-0.77,3.71-1.38,11,0.78,13.37c0.87,0.96,3.42,2.07,5.32,1.69c0.59-0.12,1.88-1.09,2.47-1.82
				c1.88-2.35,2.71-6.18,3.63-10c1.26-5.21,2.9-13.48-1.3-15.84c-1.19-0.67-2.56-0.46-3.64-1.04
				C694.222-248.935,694.082-248.855,694.012-248.725z M692.422-223.415c-0.97-0.12-1.71-0.46-2.34-0.91
				c-1.64-6.99,0.84-15.02,3.38-20.25c0.69-0.07,1.32-0.9,2.08-0.91c2.07-0.04,2.05,3.14,1.95,4.54
				C697.012-234.395,695.422-226.835,692.422-223.415z"/>
			<path id="path148_7_" class="st1" d="M637.652-248.865c0,0.13,0,0.26,0,0.39c-0.71,3.87-1.22,8.19-1.56,12.72
				c-0.39,5.14-2,11.08-1.04,15.19c0.37,0.55,1.6,0.15,1.95,0.39c1.9-8.83,2.29-19.17,3.63-28.56
				C639.732-248.495,638.902-249.055,637.652-248.865z"/>
			<path id="path149_7_" class="st1" d="M709.962-248.745c-0.16,0.05-0.27,0.17-0.26,0.39c-2.36,0.14-5.26-0.08-7.53,0.13
				c0.02,0.6-0.06,2.05,0.26,2.99c2.58,0.07,4.16-0.24,6.36,0.13c-0.98,5.84-1.83,11.81-2.73,17.66c-0.39,2.56-1.28,5.21-0.78,7.79
				c0.75,0.14,1.98,0.26,2.6,0.13c1.17-8.28,2.79-16.75,4.02-25.57c2.18-0.32,5.61,0.84,6.75-0.13c0.66-0.56,0.24-1.65,0.26-2.73
				C715.712-248.005,712.702-248.235,709.962-248.745z"/>
			<path id="path150_7_" class="st1" d="M824.732-247.825c-1.87,1.05-4.06,4.41-4.41,7.27c-0.66,5.37,4.88,5.74,5.97,9.35
				c0.99,3.29,0.16,9.74-3.25,8.57c-0.39-1.13-0.62-2.42-1.17-3.38c-0.7-0.17-1.56,0.37-2.21,0.65c0.45,3.49,1.07,6.27,5.06,5.97
				c1.5-0.12,2.66-1.15,3.24-1.95c3.02-4.14,1.84-11.26-1.04-14.41c-1.4-1.51-3.29-2.19-3.51-3.63c-0.22-1.46,1.1-3.67,1.95-4.8
				c1.63-2.17,4.59-0.9,7.4-0.65c-0.01-1.36,0.24-1.53,0.26-2.86C829.752-248.365,827.212-249.235,824.732-247.825z"/>
			<path id="path151_7_" class="st1" d="M777.852-225.625c0.11,2.61-0.42,5.99,1.69,6.23c2.48,0.28,2.8-4.17,3.51-6.36
				c2.18-6.7,4.67-11.3,6.62-18.04c0.31-1.06,1.22-3.24,1.04-3.64c-0.27-0.61-2.28-1.25-2.86-0.65c-0.31,0.33-0.55,1.64-0.78,2.34
				c-1.85,5.67-4.1,10.94-6.1,16.1c0.18-5.42-1.09-11.38-0.39-17.27c-0.91-0.08-2.02-0.36-3.12,0
				C777.362-240.145,777.532-233.185,777.852-225.625z"/>
			<path id="path152_7_" class="st1" d="M681.512-248.095c-0.58,6.81-3.28,11.51-3.76,18.43c-1.3-3.41-2.95-7.27-4.02-11.16
				c-0.59-2.15-0.42-5.24-2.6-5.32c-2.96-0.11-2.58,6.48-2.99,9.09c-0.92,5.82-1.86,11.86-2.47,17.52c0.91,0.05,1.99,0.43,2.99,0.13
				c0.73-5.34,1.67-12.22,2.86-17.91c0.93,2.71,2.04,4.99,2.99,8.05c0.67,2.18,1.4,7.09,3.89,7.14c3.16,0.06,2.12-5.07,2.47-7.92
				c0.71-5.79,3.86-12.58,3.12-17.91C683.552-248.325,681.812-248.375,681.512-248.095z"/>
			<path id="path153_7_" class="st1" d="M585.592-245.365c0.67-0.36,0.25-2.33-0.13-2.86c-5.82,0.02-11.54,1.27-17.01,0.13
				c0.02,0.67-0.53,1.99-0.13,2.98c2.39,0.58,4.66,0.63,6.88,0.65c-0.56,6.67-1.23,16.07-0.65,24.15c0.42,0.38,1.18,0.04,1.95,0.26
				c1.77-6.86,0.7-17.75,1.82-24.66C580.212-245.065,583.812-244.515,585.592-245.365z"/>
			<path id="path154_7_" class="st1" d="M595.592-247.955c-0.53,4.26-0.19,7.91-0.52,12.72c-1.67-0.05-3.55,0.15-4.54-0.26
				c-0.07-4.12,0.5-7.84,0.91-11.81c-1.33-0.03-1.91-0.37-2.99-0.13c-1.08,8.43-1.98,19.02-1.17,27.39
				c0.35,0.26,1.14,0.08,1.69,0.13c0.93-3.66,1.01-8.16,1.43-12.33c1.79-0.12,2.87-0.14,4.8-0.26c-0.12,4.86-0.34,8.63,0.39,12.07
				c0.43,0.27,1.32,0.07,1.95,0.13c0.79-2.57,0.64-5.94,0.78-9.22c0.27-6.12-0.28-12.17,0.26-18.56
				C597.952-247.945,596.242-248.565,595.592-247.955z"/>
			<path id="path155_9_" class="st1" d="M796.032-248.075c0.35,1.84-0.35,3.45-0.65,4.8c-1.14,5.1-2.03,11.44-2.6,16.49
				c-0.09,0.83-0.41,1.56-0.39,2.34c0.12,4.41,4.85,2.96,8.05,2.47c1.67-0.26,3.22-0.72,4.93-0.91c0.51-0.78-0.07-2-0.26-2.86
				c-3.05,0.28-6.87,0.81-9.61,1.3c0.33-3,0.84-5.83,1.3-8.7c2.96-0.42,6.75-0.56,8.83-2.21c0.35-0.58-0.37-1.18-0.26-1.95
				c-2.41,0.49-5.58,0.92-8.05,0.91c0.61-2.98,0.71-6.48,2.08-8.7c2.74,0.38,6.19,0.28,8.7,0.26c0.48-0.57,0.18-1.9,0.26-2.86
				C804.592-248.115,799.692-247.985,796.032-248.075z"/>
			<path id="path156_7_" class="st1" d="M837.042-245.235c-1.44,2.9-2.46,6.16-2.86,10.26c-0.33,3.38-1.51,7.93-0.39,11.42
				c0.89,2.78,4.24,4.62,6.75,2.21c1.68-1.61,2.66-5.67,3.38-8.96c0.86-3.94,1.78-7.17,1.56-10.77c-0.14-2.18-0.66-4.78-1.69-5.84
				c-1.34-1.39-2.46-0.96-4.28-1.04C839.232-246.505,838.022-245.985,837.042-245.235z M841.592-244.845c0.09,0,0.17,0,0.26,0
				c0.77,6.25-0.23,12.91-2.21,18.43c-0.41,1.13-1.19,3.04-1.95,2.99c-1.72-0.12-1.12-4.87-0.91-6.75
				c0.43-3.77,0.91-10.79,2.6-12.98C839.952-243.895,841.062-244.095,841.592-244.845z"/>
			<path id="path157_7_" class="st1" d="M864.042-247.965c-0.18,0.07,0.02,0.37,0,0.39c-0.23,0.28-0.66,1.43-0.78,1.82
				c-0.39,1.22-0.53,2.76-0.91,4.28c-1,4.02-2.22,9.02-2.86,12.85c-1.59-3.81-2.77-8.7-3.89-13.63c-0.49-2.14-0.64-6.01-3.25-4.93
				c-1.36,0.56-1.4,4.82-1.69,6.49c-1.24,7.26-2.58,14.64-3.89,21.42c0.8-0.03,1.75,0.61,2.86,0.39c1.67-5.69,2.26-12.76,3.89-18.82
				c0.58,2.81,1.47,5.77,2.6,9.22c0.76,2.32,1.26,8.04,3.89,7.92c0.84-0.04,1.12-0.71,1.69-1.17c0.57-3.92,1.23-7.59,1.95-11.29
				c0.94-4.8,2.64-9.53,2.6-14.54C865.662-247.765,864.702-248.195,864.042-247.965z"/>
			<path id="path158_7_" class="st1" d="M752.152-247.295c-1.35,5.14-2.38,12.61-3.5,18.17c-0.43,2.12-1.23,4.49-1.17,6.23
				c0.2,5.75,7.22,2.54,11.16,2.34c0.45-0.67,0.06-1.94-0.13-2.73c-2.79-0.18-5.61,0.47-7.92,0.65c1.71-7.94,2.78-16.52,4.54-24.41
				C754.022-246.935,752.972-247.965,752.152-247.295z"/>
			<path id="path159_7_" class="st1" d="M606.102-247.045c-0.3,3.26-0.36,6.17-0.65,9.35c-0.54,5.96-0.92,12.29-0.78,17.91
				c0.21,0.66,1.44,0.29,2.21,0.39c1.59-8.37,1.67-18.23,2.08-27.78C607.962-247.055,606.992-247.285,606.102-247.045z"/>
			<path id="path160_7_" class="st1" d="M763.962-242.375c-1.88,3.9-3.68,15.37-2.08,20.9c0.87,3,4.54,4.14,6.88,1.69
				c1.73-1.82,2.5-5.77,3.5-9.48c1.05-3.88,1.82-7.58,1.56-11.42c-0.14-2.08-0.72-3.65-1.82-4.41c-1.59-1.1-3.32-0.38-4.93-1.56
				C766.332-245.385,764.652-243.815,763.962-242.375z M770.192-243.025c1.2,5.34-0.44,12.21-2.08,17.14
				c-0.33,0.99-1.26,4.43-2.47,4.28c-1.09-0.13-1.17-3.68-1.17-5.06c0.01-3.64,0.87-11.61,2.34-14.54c0.46-0.92,1.37-1.6,1.82-2.34
				C769.412-243.625,769.682-243.205,770.192-243.025z"/>
			<path id="path161_7_" class="st1" d="M739.152-234.725c-0.11-0.37-0.75-0.2-0.65-0.78c-0.31-3.96,0.67-12.21-3.63-10.9
				c-1.62,0.49-2.68,3.69-3.5,5.45c-2.96,6.31-5.64,13.26-6.88,20.25c0.73-0.03,1.76,0.4,2.86,0.39c0.84-4.53,2.25-8.34,4.02-12.2
				c1.46,0.23,3.05,0.32,4.41,0.65c0.28,3.49,0.19,7.34,0.91,10.39c0.7,0.35,1.68-0.02,2.47,0
				C739.632-226.665,738.592-230.585,739.152-234.725z M735.012-241.465c0.33,1.97,0.17,4.18,0.52,6.36
				c-0.8,0.16-2.03-0.3-2.99-0.39C733.232-237.625,734.102-239.565,735.012-241.465z"/>
			<path id="path162_10_" class="st1" d="M644.532-242.895c-0.32,1.12-0.51,2.65-0.39,3.64c0.44,3.52,5.08,3.75,6.49,5.71
				c1.87,2.61,0.77,9.92-2.99,9.35c-0.75-1.07-0.62-3.02-1.43-4.02c-0.86-0.35-1.71,0.35-2.47,0.52c0.76,2.09,0.45,3.91,1.43,5.32
				c1.85,2.67,6.08,0.75,7.14-0.39c2.54-2.73,2.95-10.79,0.13-13.5c-1.61-1.56-4.64-1.84-5.06-3.38c-0.68-2.46,1.67-5.9,2.34-6.88
				c1.13,0.17,2.17,0.43,3.51,0.39c-0.15-1.08,0.22-1.71,0.13-2.86C647.772-251.305,645.622-246.715,644.532-242.895z"/>
		</g>
		<g id="g162_10_" transform="matrix(0.242211,0,0,0.242211,-115.92574,-0.31393339)">
			<path id="path146_3_" class="st1" d="M935.208-406.143c-2.18-0.51-3.55,0.5-4.67,1.69c-1.78,1.89-3.25,5.14-3.12,7.66
				c0.24,4.72,5.98,3.69,6.36,8.18c0.29,3.54-0.78,7.44-2.6,8.96c-1.96-0.94-1.67-4.13-2.34-6.36c-0.75-0.45-2.09,0.08-2.86,0.39
				c0.7,2.73,0.39,5.02,1.69,7.01c1.87,2.86,5.71,2.11,7.14,0c1.25-1.85,2.1-6.2,2.08-8.96c-0.04-3.5-1.64-5.75-3.77-7.27
				c-0.94-0.67-2.2-0.99-2.47-1.69c-0.87-2.25,2.1-6.13,3.25-6.62c1.14,0.52,1.76,1.54,2.86,2.08c0.39-0.96,1.4-1.29,1.56-2.47
				C937.428-404.563,936.248-405.293,935.208-406.143z"/>
			<path id="path148_3_" class="st1" d="M951.428-405.753c0,0.13,0,0.26,0,0.39c-0.71,3.87-1.22,8.19-1.56,12.72
				c-0.39,5.14-2,11.08-1.04,15.19c0.37,0.55,1.6,0.15,1.95,0.39c1.9-8.83,2.29-19.17,3.63-28.56
				C953.508-405.383,952.678-405.943,951.428-405.753z"/>
			<path id="path153_3_" class="st1" d="M899.368-402.253c0.67-0.36,0.25-2.33-0.13-2.86c-5.82,0.02-11.54,1.27-17.01,0.13
				c0.02,0.67-0.53,1.99-0.13,2.98c2.39,0.58,4.66,0.63,6.88,0.65c-0.56,6.67-1.23,16.07-0.65,24.15c0.42,0.38,1.18,0.04,1.95,0.26
				c1.77-6.86,0.7-17.75,1.82-24.66C893.988-401.953,897.588-401.403,899.368-402.253z"/>
			<path id="path154_3_" class="st1" d="M909.368-404.843c-0.53,4.26-0.19,7.91-0.52,12.72c-1.67-0.05-3.55,0.15-4.54-0.26
				c-0.07-4.12,0.5-7.84,0.91-11.81c-1.33-0.03-1.91-0.37-2.99-0.13c-1.08,8.43-1.98,19.02-1.17,27.39
				c0.35,0.26,1.14,0.08,1.69,0.13c0.93-3.66,1.01-8.16,1.43-12.33c1.79-0.12,2.87-0.14,4.8-0.26c-0.12,4.86-0.34,8.63,0.39,12.07
				c0.43,0.27,1.32,0.07,1.95,0.13c0.79-2.57,0.64-5.94,0.78-9.22c0.27-6.12-0.28-12.17,0.26-18.56
				C911.728-404.833,910.018-405.453,909.368-404.843z"/>
			<path id="path159_3_" class="st1" d="M919.878-403.933c-0.3,3.26-0.36,6.17-0.65,9.35c-0.54,5.96-0.92,12.29-0.78,17.91
				c0.21,0.66,1.44,0.29,2.21,0.39c1.59-8.37,1.67-18.23,2.08-27.78C921.738-403.943,920.768-404.173,919.878-403.933z"/>
			<path id="path162_9_" class="st1" d="M958.308-399.783c-0.32,1.12-0.51,2.65-0.39,3.64c0.44,3.52,5.08,3.75,6.49,5.71
				c1.87,2.61,0.77,9.92-2.99,9.35c-0.75-1.07-0.62-3.02-1.43-4.02c-0.86-0.35-1.71,0.35-2.47,0.52c0.76,2.09,0.45,3.91,1.43,5.32
				c1.85,2.67,6.08,0.75,7.14-0.39c2.54-2.73,2.95-10.79,0.13-13.5c-1.61-1.56-4.64-1.84-5.06-3.38c-0.68-2.46,1.67-5.9,2.34-6.88
				c1.13,0.17,2.17,0.43,3.51,0.39c-0.15-1.08,0.22-1.71,0.13-2.86C961.548-408.193,959.398-403.603,958.308-399.783z"/>
		</g>
		<g id="g162_3_" transform="matrix(0.242211,0,0,0.242211,-115.92574,-0.31393339)">
			<path id="path145_3_" class="st1" d="M718.314-405.893c-1.6,0.92-3.54,3.73-4.67,5.97c-1.2,2.37-2.14,5.74-2.34,8.44
				c-0.26,3.51-0.05,8.93,1.82,11.81c0.71,1.1,2.02,2.17,4.02,1.82c3.4-0.59,6.62-7.54,7.14-11.94c0.36-3.04-1.6-4.98-4.28-4.28
				c-0.85,0.22-3.83,1.21-4.16,1.95c-0.44,0.98,0.58,1.82,0.91,2.73c1.53-0.39,2.86-1.61,4.41-1.56c-0.97,3.97-1.53,8.34-4.8,10
				c-1.35-1.24-1.93-4.21-2.08-6.88c-0.26-4.76,1.36-9.35,3.38-12.59c0.65-1.05,1.65-2.87,2.6-2.86c1.22,0.02,2.17,2.29,3.25,2.34
				c0.37-0.98,1.39-1.3,1.56-2.47C723.054-405.163,721.064-407.443,718.314-405.893z"/>
			<path id="path147_3_" class="st1" d="M537.124-405.613c-0.37,1-1.98,1.29-2.73,2.08c-1.02,1.06-1.74,3.34-2.47,5.19
				c-0.76,1.92-1.25,4-1.69,6.1c-0.77,3.71-1.38,11,0.78,13.37c0.87,0.96,3.42,2.07,5.32,1.69c0.59-0.12,1.88-1.09,2.47-1.82
				c1.88-2.35,2.71-6.18,3.63-10c1.26-5.21,2.9-13.48-1.3-15.84c-1.19-0.67-2.56-0.46-3.64-1.04
				C537.334-405.823,537.194-405.743,537.124-405.613z M535.534-380.303c-0.97-0.12-1.71-0.46-2.34-0.91
				c-1.64-6.99,0.84-15.02,3.38-20.25c0.69-0.07,1.32-0.9,2.08-0.91c2.07-0.04,2.05,3.14,1.95,4.54
				C540.124-391.283,538.534-383.723,535.534-380.303z"/>
			<path id="path149_3_" class="st1" d="M553.074-405.633c-0.16,0.05-0.27,0.17-0.26,0.39c-2.36,0.14-5.26-0.08-7.53,0.13
				c0.02,0.6-0.06,2.05,0.26,2.99c2.58,0.07,4.16-0.24,6.36,0.13c-0.98,5.84-1.83,11.81-2.73,17.66c-0.39,2.56-1.28,5.21-0.78,7.79
				c0.75,0.14,1.98,0.26,2.6,0.13c1.17-8.28,2.79-16.75,4.02-25.57c2.18-0.32,5.61,0.84,6.75-0.13c0.66-0.56,0.24-1.65,0.26-2.73
				C558.824-404.893,555.814-405.123,553.074-405.633z"/>
			<path id="path150_3_" class="st1" d="M667.844-404.713c-1.87,1.05-4.06,4.41-4.41,7.27c-0.66,5.37,4.88,5.74,5.97,9.35
				c0.99,3.29,0.16,9.74-3.25,8.57c-0.39-1.13-0.62-2.42-1.17-3.38c-0.7-0.17-1.56,0.37-2.21,0.65c0.45,3.49,1.07,6.27,5.06,5.97
				c1.5-0.12,2.66-1.15,3.24-1.95c3.02-4.14,1.84-11.26-1.04-14.41c-1.4-1.51-3.29-2.19-3.51-3.63c-0.22-1.46,1.1-3.67,1.95-4.8
				c1.63-2.17,4.59-0.9,7.4-0.65c-0.01-1.36,0.24-1.53,0.26-2.86C672.864-405.253,670.324-406.123,667.844-404.713z"/>
			<path id="path151_3_" class="st1" d="M620.964-382.513c0.11,2.61-0.42,5.99,1.69,6.23c2.48,0.28,2.8-4.17,3.51-6.36
				c2.18-6.7,4.67-11.3,6.62-18.04c0.31-1.06,1.22-3.24,1.04-3.64c-0.27-0.61-2.28-1.25-2.86-0.65c-0.31,0.33-0.55,1.64-0.78,2.34
				c-1.85,5.67-4.1,10.94-6.1,16.1c0.18-5.42-1.09-11.38-0.39-17.27c-0.91-0.08-2.02-0.36-3.12,0
				C620.474-397.033,620.644-390.073,620.964-382.513z"/>
			<path id="path152_3_" class="st1" d="M524.624-404.983c-0.58,6.81-3.28,11.51-3.76,18.43c-1.3-3.41-2.95-7.27-4.02-11.16
				c-0.59-2.15-0.42-5.24-2.6-5.32c-2.96-0.11-2.58,6.48-2.99,9.09c-0.92,5.82-1.86,11.86-2.47,17.52c0.91,0.05,1.99,0.43,2.99,0.13
				c0.73-5.34,1.67-12.22,2.86-17.91c0.93,2.71,2.04,4.99,2.99,8.05c0.67,2.18,1.4,7.09,3.89,7.14c3.16,0.06,2.12-5.07,2.47-7.92
				c0.71-5.79,3.86-12.58,3.12-17.91C526.664-405.213,524.924-405.263,524.624-404.983z"/>
			<path id="path155_3_" class="st1" d="M639.144-404.963c0.35,1.84-0.35,3.45-0.65,4.8c-1.14,5.1-2.03,11.44-2.6,16.49
				c-0.09,0.83-0.41,1.56-0.39,2.34c0.12,4.41,4.85,2.96,8.05,2.47c1.67-0.26,3.22-0.72,4.93-0.91c0.51-0.78-0.07-2-0.26-2.86
				c-3.05,0.28-6.87,0.81-9.61,1.3c0.33-3,0.84-5.83,1.3-8.7c2.96-0.42,6.75-0.56,8.83-2.21c0.35-0.58-0.37-1.18-0.26-1.95
				c-2.41,0.49-5.58,0.92-8.05,0.91c0.61-2.98,0.71-6.48,2.08-8.7c2.74,0.38,6.19,0.28,8.7,0.26c0.48-0.57,0.18-1.9,0.26-2.86
				C647.704-405.003,642.804-404.873,639.144-404.963z"/>
			<path id="path156_3_" class="st1" d="M680.154-402.123c-1.44,2.9-2.46,6.16-2.86,10.26c-0.33,3.38-1.51,7.93-0.39,11.42
				c0.89,2.78,4.24,4.62,6.75,2.21c1.68-1.61,2.66-5.67,3.38-8.96c0.86-3.94,1.78-7.17,1.56-10.77c-0.14-2.18-0.66-4.78-1.69-5.84
				c-1.34-1.39-2.46-0.96-4.28-1.04C682.344-403.393,681.134-402.873,680.154-402.123z M684.704-401.733c0.09,0,0.17,0,0.26,0
				c0.77,6.25-0.23,12.91-2.21,18.43c-0.41,1.13-1.19,3.04-1.95,2.99c-1.72-0.12-1.12-4.87-0.91-6.75
				c0.43-3.77,0.91-10.79,2.6-12.98C683.064-400.783,684.174-400.983,684.704-401.733z"/>
			<path id="path157_3_" class="st1" d="M707.154-404.853c-0.18,0.07,0.02,0.37,0,0.39c-0.23,0.28-0.66,1.43-0.78,1.82
				c-0.39,1.22-0.53,2.76-0.91,4.28c-1,4.02-2.22,9.02-2.86,12.85c-1.59-3.81-2.77-8.7-3.89-13.63c-0.49-2.14-0.64-6.01-3.25-4.93
				c-1.36,0.56-1.4,4.82-1.69,6.49c-1.24,7.26-2.58,14.64-3.89,21.42c0.8-0.03,1.75,0.61,2.86,0.39c1.67-5.69,2.26-12.76,3.89-18.82
				c0.58,2.81,1.47,5.77,2.6,9.22c0.76,2.32,1.26,8.04,3.89,7.92c0.84-0.04,1.12-0.71,1.69-1.17c0.57-3.92,1.23-7.59,1.95-11.29
				c0.94-4.8,2.64-9.53,2.6-14.54C708.774-404.653,707.814-405.083,707.154-404.853z"/>
			<path id="path158_3_" class="st1" d="M595.264-404.183c-1.35,5.14-2.38,12.61-3.5,18.17c-0.43,2.12-1.23,4.49-1.17,6.23
				c0.2,5.75,7.22,2.54,11.16,2.34c0.45-0.67,0.06-1.94-0.13-2.73c-2.79-0.18-5.61,0.47-7.92,0.65c1.71-7.94,2.78-16.52,4.54-24.41
				C597.134-403.823,596.084-404.853,595.264-404.183z"/>
			<path id="path160_3_" class="st1" d="M607.074-399.263c-1.88,3.9-3.68,15.37-2.08,20.9c0.87,3,4.54,4.14,6.88,1.69
				c1.73-1.82,2.5-5.77,3.5-9.48c1.05-3.88,1.82-7.58,1.56-11.42c-0.14-2.08-0.72-3.65-1.82-4.41c-1.59-1.1-3.32-0.38-4.93-1.56
				C609.444-402.273,607.764-400.703,607.074-399.263z M613.304-399.913c1.2,5.34-0.44,12.21-2.08,17.14
				c-0.33,0.99-1.26,4.43-2.47,4.28c-1.09-0.13-1.17-3.68-1.17-5.06c0.01-3.64,0.87-11.61,2.34-14.54c0.46-0.92,1.37-1.6,1.82-2.34
				C612.524-400.513,612.794-400.093,613.304-399.913z"/>
			<path id="path161_3_" class="st1" d="M582.264-391.613c-0.11-0.37-0.75-0.2-0.65-0.78c-0.31-3.96,0.67-12.21-3.63-10.9
				c-1.62,0.49-2.68,3.69-3.5,5.45c-2.96,6.31-5.64,13.26-6.88,20.25c0.73-0.03,1.76,0.4,2.86,0.39c0.84-4.53,2.25-8.34,4.02-12.2
				c1.46,0.23,3.05,0.32,4.41,0.65c0.28,3.49,0.19,7.34,0.91,10.39c0.7,0.35,1.68-0.02,2.47,0
				C582.744-383.553,581.704-387.473,582.264-391.613z M578.124-398.353c0.33,1.97,0.17,4.18,0.52,6.36
				c-0.8,0.16-2.03-0.3-2.99-0.39C576.344-394.513,577.214-396.453,578.124-398.353z"/>
			<path id="path162_3_" class="st1" d="M487.644-399.783c-0.32,1.12-0.51,2.65-0.39,3.64c0.44,3.52,5.08,3.75,6.49,5.71
				c1.87,2.61,0.77,9.92-2.99,9.35c-0.75-1.07-0.62-3.02-1.43-4.02c-0.86-0.35-1.71,0.35-2.47,0.52c0.76,2.09,0.45,3.91,1.43,5.32
				c1.85,2.67,6.08,0.75,7.14-0.39c2.54-2.73,2.95-10.79,0.13-13.5c-1.61-1.56-4.64-1.84-5.06-3.38c-0.68-2.46,1.67-5.9,2.34-6.88
				c1.13,0.17,2.17,0.43,3.51,0.39c-0.15-1.08,0.22-1.71,0.13-2.86C490.884-408.193,488.734-403.603,487.644-399.783z"/>
		</g>
	</g>
</pattern>
<rect x="-0.5" y="0.5" class="st2" width="342" height="342"/>
</svg>
