<?xml version="1.0" encoding="UTF-8" standalone="no"?>
<svg
   version="1.1"
   id="Calque_1"
   x="0px"
   y="0px"
   viewBox="0 0 400 400"
   style="enable-background:new 0 0 400 400;"
   xml:space="preserve"
   sodipodi:docname="logos-partenaires-2025_nimes-metropole-dark.svg"
   inkscape:version="1.4.2 (1:1.4.2+202505120737+ebf0e940d0)"
   xmlns:inkscape="http://www.inkscape.org/namespaces/inkscape"
   xmlns:sodipodi="http://sodipodi.sourceforge.net/DTD/sodipodi-0.dtd"
   xmlns="http://www.w3.org/2000/svg"
   xmlns:svg="http://www.w3.org/2000/svg"><defs
   id="defs23" /><sodipodi:namedview
   id="namedview23"
   pagecolor="#ffffff"
   bordercolor="#000000"
   borderopacity="0.25"
   inkscape:showpageshadow="2"
   inkscape:pageopacity="0.0"
   inkscape:pagecheckerboard="0"
   inkscape:deskcolor="#d1d1d1"
   inkscape:zoom="1.84"
   inkscape:cx="142.93478"
   inkscape:cy="226.90217"
   inkscape:window-width="2560"
   inkscape:window-height="1465"
   inkscape:window-x="0"
   inkscape:window-y="32"
   inkscape:window-maximized="1"
   inkscape:current-layer="Calque_1" />
<style
   type="text/css"
   id="style1">
	.st0{fill:#FEFEFE;}
	.st1{fill:#231F20;}
	.st2{fill:#FEF101;}
	.st3{fill:#020202;}
	.st4{fill:#D19031;}
	.st5{fill:#D0004C;}
	.st6{fill:#FFFFFF;}
	.st7{enable-background:new    ;}
	.st8{fill:#007CC4;}
	.st9{fill:#0F213A;}
	.st10{fill-rule:evenodd;clip-rule:evenodd;fill:#000091;}
	.st11{fill:#E1000F;}
	.st12{fill:#808080;}
	.st13{fill:#1E1E1E;}
	.st14{fill-rule:evenodd;clip-rule:evenodd;}
	.st15{fill:#C1000A;}
	.st16{fill:#FFD800;}
	.st17{fill:#D83728;}
	.st18{fill:#FAB529;}
	.st19{opacity:0.988;}
	.st20{fill-rule:evenodd;clip-rule:evenodd;fill:#1E275E;}
</style>
<g
   id="logo_nimes_metropole"
   style="fill:#1a1a1a">
	<g
   class="st19"
   id="g23"
   style="fill:#1a1a1a">
		<path
   class="st20"
   d="M0.4077,199.8317c20.6256,6.3663,41.7253,9.9993,63.2993,10.9c1.8107,10.9322,4.9061,21.4803,9.2862,31.6439    c0.0359,0.0545,0.0277,0.1026-0.024,0.144c-14.2924,4.08-28.8339,5.3848-43.6232,3.9136    c-3.7285-0.3858-7.4157-1.0018-11.0619-1.8489C8.2502,231.3525,2.2913,216.4354,0.4077,199.8317z"
   id="path1"
   style="fill:#1a1a1a" />
		<path
   class="st20"
   d="M-0.0242,186.1946c0-0.0959,0-0.192,0-0.2879c1.0923-19.732,7.803-37.2423,20.132-52.5315    c6.9811-8.4453,15.1873-15.3918,24.6192-20.8397c11.8147,8.1719,21.6845,18.2396,29.6099,30.2032    c10.7667,16.5484,16.1978,34.7306,16.2927,54.5482c-28.7975,1.9284-57.0479-1.1529-84.751-9.2434    C3.9021,187.4508,1.9345,186.8349-0.0242,186.1946z"
   id="path2"
   style="fill:#1a1a1a" />
		<path
   class="st20"
   d="M76.2326,249.4822c0.0567-0.0107,0.1046,0.0052,0.144,0.0481c4.8863,9.4911,11.0211,18.0863,18.4042,25.7854    c1.1625,1.1952,2.3546,2.3558,3.5753,3.4814c-10.1993,1.1836-20.2937,0.5756-30.2819-1.8248    c-6.0035-5.645-10.2825-12.4077-12.8375-20.2875c-0.2825-0.92-0.5302-1.8481-0.7438-2.7849    C61.8753,253.0657,69.1218,251.5934,76.2326,249.4822z"
   id="path3"
   style="fill:#1a1a1a" />
		<path
   class="st20"
   d="M183.3473,200.6001c2.7513-0.0082,5.503,0,8.2545,0.024c2.3134,3.0213,4.6333,6.0387,6.9584,9.0513    c-2.4792,0.0563-4.9586,0.0639-7.4383,0.024c-1.3097-1.7005-2.6133-3.4051-3.9113-5.114    c-1.3298,1.7089-2.6658,3.4135-4.0072,5.114c-2.3035,0.0322-4.6071,0.0322-6.9106,0    C178.6505,206.669,181.0021,203.6363,183.3473,200.6001z"
   id="path4"
   style="fill:#1a1a1a" />
		<path
   class="st20"
   d="M163.1432,212.8445c2.1113-0.0939,4.1747,0.17,6.1908,0.7924c2.5848,0.9215,4.3846,2.6583,5.3989,5.2099    c0.7042,2.003,1.0721,4.0677,1.1038,6.1943c0.024,7.2186,0.0322,14.4377,0.024,21.656c-3.0077,0-6.0146,0-9.0224,0    c0.0082-6.5461,0-13.093-0.0238-19.6391c-0.03-1.2634-0.2376-2.496-0.6239-3.6975c-0.7146-1.9946-2.1304-3.0907-4.2473-3.2892    c-1.4411-0.1474-2.8328,0.0446-4.1752,0.5763c-1.2869,0.6318-2.191,1.6162-2.7114,2.9529    c-0.5518,1.5352-0.84,3.1197-0.8637,4.7537c-0.024,6.1143-0.0322,12.2288-0.024,18.3428c-3.0077,0-6.0147,0-9.0224,0    c0-10.9802,0-21.9597,0-32.94c2.8637,0,5.7267,0,8.5905,0c0,1.5206,0,3.0409,0,4.5617c0.0632,0.0079,0.1194-0.0079,0.1677-0.0481    c1.8746-2.8965,4.5223-4.6492,7.9426-5.2579C162.2862,212.9517,162.7181,212.896,163.1432,212.8445z"
   id="path5"
   style="fill:#1a1a1a" />
		<path
   class="st20"
   d="M217.0365,212.8445c1.7711-0.0815,3.4985,0.1509,5.1831,0.6965c2.3774,0.858,4.0969,2.4344,5.1589,4.7297    c2.8075-4.0273,6.6707-5.8122,11.5898-5.3541c6.1004,0.5022,9.4847,3.7914,10.1487,9.8678    c0.0719,7.9703,0.0966,15.9414,0.0743,23.9127c-3.0087,0-6.0156,0-9.0234,0c0.0082-6.8026,0-13.6049-0.024-20.4075    c-0.0278-4.942-2.4676-6.9505-7.3185-6.0263c-1.6551,0.5032-2.783,1.5679-3.3833,3.1933c-0.4851,1.3982-0.7252,2.8387-0.72,4.3216    c-0.0238,6.306-0.032,12.6128-0.0238,18.9189c-3.0077,0-6.0147,0-9.0224,0c0.0082-7.0585,0-14.117-0.024-21.1758    c-0.1385-4.0914-2.2421-5.8922-6.3107-5.4019c-2.5957,0.6127-4.2034,2.2213-4.8229,4.8259    c-0.1801,0.7899-0.276,1.5902-0.2879,2.4009c-0.024,6.4502-0.0322,12.9007-0.024,19.351c-3.0077,0-6.0146,0-9.0224,0    c0-10.9802,0-21.9597,0-32.94c2.8474,0,5.695,0,8.5424,0c-0.0159,1.4725,0,2.9453,0.0481,4.4175    c1.0897-1.5307,2.4334-2.7874,4.031-3.7693C213.4364,213.4894,215.18,212.9688,217.0365,212.8445z"
   id="path6"
   style="fill:#1a1a1a" />
		<path
   class="st20"
   d="M270.4501,212.8445c3.1888-0.167,6.1794,0.5134,8.9743,2.0409c2.9163,1.8149,5.0199,4.3201,6.3107,7.5147    c1.2488,3.1962,1.7617,6.5094,1.5362,9.9398c-7.8519,0.0959-15.7162,0.1276-23.5879,0.0959    c0.0198,1.949,0.5228,3.7579,1.5114,5.4259c1.115,1.5136,2.6115,2.4177,4.4872,2.7131c2.728,0.5099,5.1908-0.0662,7.391-1.7287    c0.7731-0.6353,1.333-1.4197,1.6799-2.3528c2.6388-0.024,5.2776-0.0322,7.9188-0.024c-2.1804,7.085-6.9797,10.7902-14.398,11.1163    c-3.392,0.1886-6.5907-0.4995-9.5987-2.0649c-3.3152-1.9019-5.612-4.6628-6.8856-8.283    c-1.1026-3.2872-1.4073-6.6485-0.9118-10.0838c0.6145-4.1036,2.4307-7.5526,5.446-10.3477    C263.2499,214.3596,266.6245,213.0389,270.4501,212.8445z M270.4031,219.7112c4.0436-0.2493,6.5486,1.5917,7.5099,5.5218    c0.1189,0.4774,0.223,0.9576,0.3122,1.4406c-4.8489,0-9.6953,0-14.5417,0c0.1387-2.2859,1.0828-4.1509,2.832-5.5939    C267.6875,220.2647,268.9833,219.8086,270.4031,219.7112z"
   id="path7"
   style="fill:#1a1a1a" />
		<path
   class="st20"
   d="M304.764,212.8445c2.1457-0.0724,4.274,0.0956,6.3826,0.5042c2.1655,0.4197,4.1006,1.3157,5.8053,2.6891    c1.6229,1.4599,2.671,3.2604,3.1443,5.4019c0.1338,0.6368,0.2378,1.277,0.3122,1.9207c-2.8642,0.048-5.726,0.0639-8.5902,0.048    c-0.1908-2.3744-1.4544-3.7909-3.7909-4.2495c-1.7245-0.3261-3.4366-0.278-5.1363,0.144    c-1.6254,0.5092-2.3217,1.6053-2.0862,3.2894c0.2552,0.8474,0.7755,1.4797,1.5585,1.8967    c1.2958,0.6482,2.6561,1.1125,4.0808,1.3925c2.0565,0.421,4.1031,0.8853,6.1422,1.3925c1.6303,0.4106,3.1839,1.0188,4.6556,1.8246    c2.7057,1.5587,4.0486,3.9116,4.0313,7.0588c-0.0396,4.7857-2.2473,8.115-6.6229,9.9877    c-2.6809,1.0188-5.4559,1.5072-8.3276,1.4646c-2.6536,0.0307-5.2379-0.3776-7.7503-1.2245    c-4.8167-1.7877-7.3613-5.2527-7.6314-10.396c2.8643,0,5.7285,0,8.5902,0c0.0273,2.0957,0.9564,3.6398,2.7849,4.6338    c1.8732,0.8466,3.8256,1.0867,5.8549,0.7203c1.3132-0.2128,2.4257-0.7966,3.335-1.7527c0.7582-1.053,0.9193-2.1891,0.4807-3.4091    c-0.3766-0.585-0.8647-1.057-1.4643-1.4168c-0.9638-0.5131-1.9698-0.9133-3.0228-1.2005    c-2.3885-0.6251-4.787-1.2012-7.2003-1.7285c-1.8732-0.449-3.6323-1.1692-5.2775-2.1608    c-2.5372-1.7527-3.6324-4.1777-3.288-7.2748c0.3023-3.7986,2.1804-6.48,5.6393-8.0429c1.722-0.7188,3.5134-1.1673,5.3742-1.3444    C303.4261,212.9453,304.0975,212.8893,304.764,212.8445z"
   id="path8"
   style="fill:#1a1a1a" />
		<path
   class="st20"
   d="M182.9154,213.757c3.0074,0,6.0146,0,9.0221,0c0,10.9803,0,21.9598,0,32.94c-3.0074,0-6.0146,0-9.0221,0    C182.9154,235.7168,182.9154,224.7372,182.9154,213.757z"
   id="path9"
   style="fill:#1a1a1a" />
		<path
   class="st20"
   d="M206.2386,250.9227c1.3761-0.0082,2.752,0,4.1274,0.024c-2.2701,2.479-4.5578,4.9443-6.8628,7.3945    c-0.8964,0.0399-1.7919,0.0322-2.6873-0.0238C202.6246,255.8517,204.4324,253.3868,206.2386,250.9227z"
   id="path10"
   style="fill:#1a1a1a" />
		<path
   class="st20"
   d="M363.6965,251.7389c1.1025,0,2.2076,0,3.3102,0c0,12.4525,0,24.9055,0,37.3578c-1.1026,0-2.2077,0-3.3102,0    C363.6965,276.6444,363.6965,264.1914,363.6965,251.7389z"
   id="path11"
   style="fill:#1a1a1a" />
		<path
   class="st20"
   d="M226.5388,253.9958c1.1036,0,2.2074,0,3.3112,0c0,2.6888,0,5.3779,0,8.0669c1.8236,0,3.6472,0,5.4711,0    c0,0.9445,0,1.8885,0,2.833c-1.8239,0-3.6474,0-5.4711,0c-0.0082,6.3224,0,12.6445,0.024,18.9669    c-0.003,0.7279,0.2054,1.3846,0.6239,1.9688c0.2587,0.2426,0.5548,0.4269,0.8878,0.5523c0.4314,0.1244,0.8711,0.1962,1.3199,0.216    c0.8751-0.0287,1.7468-0.0927,2.6155-0.192c0,0.9604,0,1.9207,0,2.8811c-1.3588,0.0805-2.7188,0.1046-4.0793,0.0718    c-0.9455-0.0292-1.8414-0.253-2.6876-0.6722c-1.0681-0.6876-1.6843-1.6719-1.8474-2.9529    c-0.0751-0.3972-0.1229-0.7973-0.1442-1.2004c-0.0238-6.5464-0.032-13.093-0.0238-19.6394c-1.5515,0-3.1036,0-4.6551,0    c0-0.9445,0-1.8885,0-2.833c1.5516,0,3.1036,0,4.6551,0C226.5388,259.3737,226.5388,256.6847,226.5388,253.9958z"
   id="path12"
   style="fill:#1a1a1a" />
		<path
   class="st20"
   d="M157.2406,261.2945c1.9599-0.1504,3.7998,0.2415,5.5189,1.1764c1.5203,0.946,2.5357,2.2822,3.0473,4.0094    c1.5895-3.1234,4.1408-4.8439,7.6544-5.1618c1.782-0.1373,3.5097,0.1028,5.1832,0.7203c2.2829,1.0367,3.6826,2.7894,4.199,5.258    c0.1378,0.6016,0.2339,1.2101,0.2882,1.8246c0.0709,6.6576,0.0949,13.3162,0.0719,19.9754c-1.1038,0-2.2074,0-3.3112,0    c0.0082-6.3224,0-12.6446-0.024-18.9669c-0.1239-4.0456-2.2032-6.0464-6.2389-6.0023c-3.5268,0.023-5.7664,1.7359-6.7186,5.138    c-0.2924,1.053-0.468,2.1252-0.528,3.2171c-0.0238,5.5379-0.032,11.0764-0.0238,16.6141c-1.1038,0-2.2076,0-3.3115,0    c0.0082-6.258,0-12.5167-0.024-18.7749c-0.001-1.3013-0.2889-2.5339-0.8637-3.6972c-1.0914-1.7748-2.6908-2.6075-4.7991-2.497    c-3.7899,0.0788-6.221,1.9356-7.2946,5.5702c-0.3531,1.2562-0.5451,2.5362-0.5758,3.8414    c-0.024,5.1859-0.0322,10.3717-0.024,15.5576c-1.1038,0-2.2074,0-3.3112,0c0-9.0115,0-18.0224,0-27.0339    c1.0235,0,2.0476,0,3.0714,0c-0.0159,1.5206,0,3.0414,0.0481,4.5617c0.6056-1.0905,1.3575-2.0748,2.2555-2.9532    C153.1628,262.238,155.0666,261.4458,157.2406,261.2945z"
   id="path13"
   style="fill:#1a1a1a" />
		<path
   class="st20"
   d="M203.3115,261.2945c5.3315-0.2914,9.1148,1.9653,11.3497,6.7706c1.0884,2.6933,1.5763,5.4941,1.4636,8.4029    c-6.8784,0-13.7573,0-20.6359,0c0.026,2.6618,0.7698,5.0947,2.2317,7.2989c1.6474,2.2005,3.8551,3.2887,6.6227,3.2651    c3.7302-0.0052,6.3217-1.7176,7.7743-5.1378c0.218-0.5661,0.4021-1.1425,0.552-1.7287c1.1038,0,2.2074,0,3.3112,0    c-0.4242,2.2409-1.3278,4.2577-2.7114,6.0504c-1.7262,1.9628-3.8935,3.1234-6.5028,3.4812    c-2.0674,0.2996-4.1147,0.2037-6.1428-0.2881c-2.8627-0.8162-5.0141-2.5208-6.4547-5.1138    c-0.979-1.8694-1.587-3.8541-1.8236-5.9544c-0.3955-3.0917-0.1075-6.1167,0.8637-9.0751c0.776-2.2674,2.08-4.1643,3.9113-5.6903    C198.9571,262.2025,201.0208,261.4424,203.3115,261.2945z M203.4074,264.1275c3.5253-0.2094,6.173,1.199,7.9423,4.2255    c0.8994,1.6631,1.3712,3.4396,1.4158,5.3301c-5.7589,0.0081-11.5177,0-17.2766-0.024c0.2559-2.4552,1.1278-4.6559,2.6155-6.6024    C199.4866,265.3847,201.254,264.4084,203.4074,264.1275z"
   id="path14"
   style="fill:#1a1a1a" />
		<path
   class="st20"
   d="M274.0503,261.2945c3.0104-0.2151,5.7607,0.5129,8.2533,2.1848c2.5074,1.9361,4.1304,4.4569,4.8712,7.5627    c0.8201,3.4406,0.7086,6.8499-0.337,10.2278c-0.8573,2.6078-2.3687,4.7446-4.5342,6.4103    c-2.4752,1.672-5.2106,2.3922-8.2062,2.1608c-5.3395-0.4896-8.9297-3.2508-10.7731-8.283    c-1.2364-3.7733-1.3008-7.5667-0.1933-11.3802c0.9589-3.1933,2.8543-5.6499,5.6864-7.3707    C270.4601,261.926,272.2019,261.4218,274.0503,261.2945z M274.0974,264.1275c4.2295-0.2012,7.2448,1.6073,9.0461,5.426    c1.6948,4.0179,1.6948,8.035,0,12.0526c-2.1953,4.4312-5.721,6.1356-10.5823,5.1138c-2.0342-0.6442-3.6422-1.8528-4.8216-3.6252    c-1.4024-2.3026-2.0986-4.8073-2.0887-7.5149c-0.0099-2.7072,0.6863-5.2124,2.0887-7.5146    C269.2534,265.7823,271.3743,264.4694,274.0974,264.1275z"
   id="path15"
   style="fill:#1a1a1a" />
		<path
   class="st20"
   d="M300.0118,299.0846c-1.1026,0-2.2076,0-3.3102,0c0-12.3408,0-24.6813,0-37.0218c1.0233,0,2.0466,0,3.0699,0    c-0.0074,1.7129,0,3.4252,0.0248,5.1378c1.3206-2.8883,3.5183-4.7369,6.5981-5.5459c2.5545-0.5969,5.0669-0.4529,7.5347,0.4321    c2.6982,1.1626,4.673,3.0756,5.9267,5.7381c1.0853,2.4686,1.6204,5.0538,1.6081,7.7548c0,2.2657-0.3766,4.4661-1.1274,6.6024    c-1.9203,4.9763-5.5526,7.5374-10.8945,7.6829c-2.7973,0.0327-5.2379-0.8714-7.3192-2.7129    c-0.9167-0.9157-1.613-1.9804-2.0862-3.1933C300.0118,289.0008,300.0043,294.0427,300.0118,299.0846z M308.2675,264.1275    c3.9693-0.3067,6.8088,1.3258,8.5184,4.8979c1.063,2.4844,1.494,5.0773,1.2934,7.7788c-0.114,2.2198-0.7062,4.3006-1.7741,6.2424    c-1.8062,2.9324-4.4376,4.2527-7.894,3.9614c-3.4242-0.3635-5.83-2.1162-7.2225-5.258c-0.9242-2.312-1.3082-4.7129-1.1521-7.2027    c0.0495-1.696,0.3543-3.3444,0.9118-4.9458C302.2566,266.2667,304.6971,264.4421,308.2675,264.1275z"
   id="path16"
   style="fill:#1a1a1a" />
		<path
   class="st20"
   d="M340.9957,261.2945c2.946-0.2114,5.6492,0.4849,8.1096,2.0887c2.2993,1.7104,3.8752,3.9433,4.7275,6.6985    c0.8548,2.9031,1.0307,5.8481,0.5277,8.8353c-0.4633,2.7991-1.6303,5.2478-3.5035,7.3467    c-2.1804,2.1987-4.8266,3.3915-7.9411,3.5773c-6.3851,0.2205-10.6492-2.6683-12.7899-8.6671    c-1.0258-3.4348-1.1075-6.892-0.2403-10.372c0.8275-3.2195,2.5966-5.7726,5.3023-7.6588    C336.9743,262.0489,338.9095,261.4322,340.9957,261.2945z M341.0428,264.1275c3.7885-0.2304,6.6452,1.2745,8.568,4.5136    c1.6154,3.1274,2.0961,6.4247,1.4395,9.8918c-0.4609,2.529-1.6031,4.6816-3.4316,6.4584    c-2.2077,1.8045-4.7176,2.4286-7.5347,1.8727c-2.5372-0.6013-4.45-2.0337-5.7335-4.2976    c-1.5386-2.9113-2.0664-6.0003-1.5858-9.2674c0.3246-2.4301,1.2686-4.5751,2.8321-6.4344    C337.0759,265.2809,338.8896,264.3686,341.0428,264.1275z"
   id="path17"
   style="fill:#1a1a1a" />
		<path
   class="st20"
   d="M399.9753,275.1717c0,0.336,0,0.6722,0,1.0084c-0.0446,0.0845-0.062,0.1804-0.0471,0.2879    c-6.8633,0-13.7241,0-20.5873,0c0.0223,2.6368,0.7508,5.054,2.1829,7.2508c2.0367,2.6281,4.7176,3.7084,8.0377,3.2411    c3.0129-0.4532,5.1165-2.0781,6.3107-4.8737c0.2602-0.609,0.4757-1.2332,0.6492-1.8727c1.1026-0.0481,2.2076-0.0639,3.3102-0.0481    c-1.4792,6.8008-5.7037,10.0261-12.6686,9.6755c-4.7424-0.3256-8.0278-2.6703-9.8613-7.0345    c-1.172-3.2042-1.5411-6.5015-1.1051-9.8918c0.3469-3.0117,1.4668-5.6844,3.3598-8.0189c2.049-2.2049,4.5837-3.3977,7.6066-3.5773    c5.4039-0.3179,9.2022,1.9787,11.3975,6.8905C399.4549,270.4496,399.9282,272.7702,399.9753,275.1717z M387.2596,264.1275    c4.1601-0.1402,7.0144,1.7163,8.5655,5.5702c0.4881,1.2834,0.7532,2.612,0.7929,3.9854c-5.7607,0-11.5189,0-17.2771,0    c0.2502-2.4393,1.105-4.6324,2.5669-6.5783C383.2977,265.4047,385.0817,264.4127,387.2596,264.1275z"
   id="path18"
   style="fill:#1a1a1a" />
		<path
   class="st20"
   d="M256.342,261.6785c0.337-0.0144,0.674,0.002,1.006,0.0481c0.0496,1.1041,0.0644,2.2084,0.0496,3.3132    c-3.6324-0.1645-6.4545,1.2443-8.4713,4.2257c-0.8201,1.3598-1.2996,2.8326-1.4396,4.4175    c-0.024,5.138-0.0322,10.2758-0.024,15.4136c-1.1197,0-2.2399,0-3.3595,0c0-9.0115,0-18.0224,0-27.0339    c1.0238,0,2.0478,0,3.0716,0c-0.0082,2.1128,0,4.2255,0.0238,6.3383C248.8593,264.2667,251.9069,262.0264,256.342,261.6785z"
   id="path19"
   style="fill:#1a1a1a" />
		<path
   class="st20"
   d="M139.0041,201.5604c0.0505-0.0072,0.0984,0.001,0.144,0.024c-9.4478,8.3117-16.2385,18.4359-20.3718,30.3711    c-4.063,12.1899-4.7986,24.5785-2.2076,37.1657c0.3637,1.7119,0.7874,3.4084,1.2718,5.09    c-0.0154,0.0553-0.0471,0.0952-0.0961,0.1199c-1.1521,0.4284-2.3117,0.8365-3.4792,1.2245    c-4.8303-3.5835-9.2454-7.6487-13.2454-12.1966c-7.4022-8.5258-13.2412-18.0655-17.5165-28.6184    c-3.1123-7.7022-5.424-15.6413-6.9346-23.8168c20.3091-0.2384,40.2413-3.0954,59.796-8.5712    C137.2568,202.1097,138.1364,201.8456,139.0041,201.5604z"
   id="path20"
   style="fill:#1a1a1a" />
		<path
   class="st20"
   d="M26.5145,253.8516c6.7775,0.8273,13.5762,1.0833,20.3958,0.7683c0.1762,0.7688,0.3521,1.5372,0.528,2.3048    c-4.2798,1.3236-8.559,2.6522-12.8375,3.9857c-0.0399-0.0082-0.0798-0.0158-0.1199-0.024    c-2.7753-2.1517-5.4227-4.4648-7.9423-6.9386C26.5163,253.9195,26.5083,253.8873,26.5145,253.8516z"
   id="path21"
   style="fill:#1a1a1a" />
		<path
   class="st20"
   d="M87.3184,100.8672c0.5436,0,1.088,0,1.6316,0c10.1252,0.1454,19.9632,1.914,29.5143,5.306    c14.736,5.4332,27.2056,14.1004,37.4086,26.0016c10.0072,11.8732,16.5422,25.4863,19.6039,40.8392    c-0.0401,0.085-0.1041,0.1487-0.1918,0.192c-22.6434,11.871-46.6544,19.4654-72.0339,22.7843    c-0.3843-22.7511-6.9666-43.4785-19.7479-62.183c-7.2106-10.3851-15.7932-19.5165-25.7469-27.3941    C67.2977,102.8721,77.1516,101.0234,87.3184,100.8672z"
   id="path22"
   style="fill:#1a1a1a" />
		<path
   class="st20"
   d="M49.8378,264.0794c0.0424-0.0062,0.0741,0.0097,0.0961,0.0481c1.279,2.9368,2.7988,5.73,4.559,8.3792    c-0.0637,0.0322-0.1281,0.0322-0.192,0c-4.0959-1.7369-8.0313-3.7617-11.8056-6.0741    C44.9426,265.6376,47.39,264.8532,49.8378,264.0794z"
   id="path23"
   style="fill:#1a1a1a" />
	</g>
</g>
</svg>
