<?xml version="1.0" encoding="UTF-8" standalone="no"?>
<svg
   version="1.1"
   id="Layer_1"
   x="0px"
   y="0px"
   width="1189.9808"
   height="1008.3779"
   viewBox="0 0 1189.9808 1008.3779"
   xml:space="preserve"
   sodipodi:docname="logo-paloma-2012-declinaison_bleu.svg"
   inkscape:version="1.4.2 (1:1.4.2+202505120737+ebf0e940d0)"
   xmlns:inkscape="http://www.inkscape.org/namespaces/inkscape"
   xmlns:sodipodi="http://sodipodi.sourceforge.net/DTD/sodipodi-0.dtd"
   xmlns="http://www.w3.org/2000/svg"
   xmlns:svg="http://www.w3.org/2000/svg"><defs
   id="defs44" /><sodipodi:namedview
   id="namedview44"
   pagecolor="#ffffff"
   bordercolor="#000000"
   borderopacity="0.25"
   inkscape:showpageshadow="2"
   inkscape:pageopacity="0.0"
   inkscape:pagecheckerboard="0"
   inkscape:deskcolor="#d1d1d1"
   inkscape:zoom="0.51022607"
   inkscape:cx="866.28267"
   inkscape:cy="1051.4947"
   inkscape:window-width="2560"
   inkscape:window-height="1465"
   inkscape:window-x="0"
   inkscape:window-y="32"
   inkscape:window-maximized="1"
   inkscape:current-layer="g7" />
<g
   id="g7"
   transform="translate(-4.6657865,-5.811)">
	<g
   id="g2"
   style="fill:#1a1a1a">
		<g
   id="g1"
   style="fill:#1a1a1a">
			<path
   style="fill:#1a1a1a"
   d="m 1113.833,468.799 c -0.672,-10.793 -2.28,-20.275 -4.562,-29.133 4.718,-2.139 9.357,-4.576 13.887,-7.279 74.949,-44.926 94.023,-150.883 42.614,-236.641 -51.424,-85.76 -153.851,-118.859 -228.784,-73.926 -0.344,0.195 -0.672,0.422 -1,0.617 C 871.6,53.236 788.676,5.811 687.312,5.811 562.032,5.811 453.358,76.403 398.606,179.922 L 281.7,194.277 C 108.775,215.506 -14.192,372.902 7.052,545.811 c 10.935,89.211 58.181,165.051 125.046,214.725 -0.625,8.826 -1.25,17.652 -1.844,26.463 -0.563,37.412 7.631,65.92 23.775,94.412 27.617,48.801 89.539,80.229 145.196,76.449 27.126,-1.828 53.649,-19.807 80.651,-16.152 26.227,3.563 47.065,16.371 69.224,28.445 45.184,24.619 70.271,36.459 118.875,41.287 19.511,1.922 39.341,2.701 59.547,2.748 59.805,0.141 124.069,-17.479 165.262,-62.576 35.194,-38.521 71.302,-78.902 125.366,-95.162 49.689,-14.949 146.883,24.461 177.313,-23.213 9.545,-14.934 2.937,-51.035 9.123,-67.373 4.154,-10.904 16.479,-14.605 20.932,-25.088 0.5,-3.563 0.984,-7.045 1.531,-10.592 0.328,-2.154 -2.641,-4.811 -4.141,-5.873 -2.233,-1.594 -4.889,-2.592 -7.467,-3.389 -2.623,-0.844 -5.295,-1.422 -7.936,-2.172 -3.467,-0.938 -6.076,-3.047 -9.106,-4.857 4.062,-3.813 10.247,-5.891 15.246,-8.17 13.091,-5.984 26.774,-13.545 26.493,-29.883 -0.172,-8.717 -3.905,-16.59 -1.266,-25.572 4.437,-14.98 24.682,-16.434 28.805,-32.539 6.64,-25.742 -31.507,-56.328 -40.02,-78.104 -8.466,-21.963 -12.216,-45.52 -13.824,-70.826 z"
   id="path1" />
		</g>
	</g>
	<g
   id="g6">
		<path
   style="fill:#ffffff"
   d="m 348.025,414.471 c -0.047,-68.654 -55.985,-116.518 -124.71,-106.738 -13.355,1.891 -26.298,6.357 -38.513,13.246 -11.779,6.654 -22.354,15.293 -31.422,25.65 -9.092,10.371 -16.207,21.947 -21.189,34.443 -5.155,12.918 -7.779,26.244 -7.771,39.584 0.008,13.34 2.647,25.914 7.818,37.381 4.998,11.043 12.129,20.604 21.229,28.383 9.092,7.764 19.666,13.387 31.453,16.699 7.271,2.029 14.84,3.014 22.549,3.154 l 0.016,22.15 c -20.347,6.172 -39.131,18.293 -53.986,35.258 -6.217,7.123 -6.217,17.213 0.016,22.541 3.14,2.67 7.209,3.654 11.294,3.076 4.093,-0.594 8.169,-2.717 11.294,-6.264 8.795,-10.061 19.619,-17.543 31.398,-22.104 l 0.102,150.305 c 0.008,8.795 7.17,14.918 15.987,13.684 8.818,-1.266 15.98,-9.451 15.965,-18.26 l -0.094,-153.398 c 61.17,-16.605 108.603,-75.589 108.564,-138.79 z M 207.453,477.75 c -3.445,-0.328 -6.826,-0.891 -10.107,-1.797 -7.982,-2.248 -15.152,-6.061 -21.322,-11.324 -6.154,-5.279 -11.005,-11.764 -14.402,-19.246 -3.484,-7.73 -5.265,-16.244 -5.272,-25.289 -0.007,-9.045 1.772,-18.074 5.241,-26.807 3.39,-8.449 8.232,-16.307 14.371,-23.336 6.162,-7.029 13.324,-12.873 21.299,-17.387 3.289,-1.859 6.693,-3.375 10.107,-4.717 z m 31.991,43.285 -0.016,-19.322 c 7.717,-2.297 15.262,-5.467 22.549,-9.576 8.099,-4.592 11.911,-14.465 8.458,-22.104 -3.436,-7.592 -12.793,-10.074 -20.932,-5.482 -3.272,1.859 -6.67,3.357 -10.099,4.67 l -0.086,-130.402 c 43.497,1.391 76.745,34.584 76.776,80.197 0.025,45.597 -33.176,88.226 -76.65,102.019 z"
   id="path2" />
		<path
   style="fill:#ffffff"
   d="m 395.248,652.018 c 0,-0.125 -0.047,-0.25 -0.047,-0.328 v -13.324 c 0,-0.172 0.047,-0.328 0.047,-0.5 0,-0.078 -0.047,-0.172 -0.047,-0.266 l 0.016,-47.27 v 0 -0.031 c -0.031,-35.475 -28.923,-60.203 -64.445,-55.158 -35.506,5.047 -64.365,38.037 -64.35,73.498 l 0.031,47.486 c 0,0.031 -0.008,0.063 -0.008,0.078 0.023,35.43 28.938,60.188 64.443,55.127 16.215,-2.297 31.008,-10.482 42.325,-22.025 2.554,3.686 5.538,7.076 9.005,10.045 3.109,2.686 7.202,3.654 11.287,3.061 4.084,-0.578 8.162,-2.703 11.285,-6.279 6.218,-7.092 6.218,-17.215 -0.016,-22.557 -6.137,-5.233 -9.511,-12.872 -9.526,-21.557 z m -31.961,-9.373 c -0.109,17.793 -14.605,34.242 -32.422,36.803 -17.893,2.547 -32.452,-9.902 -32.476,-27.773 0,-0.016 0,-0.016 0,-0.016 l -0.031,-47.551 c -0.008,-17.885 14.544,-34.521 32.437,-37.084 17.902,-2.529 32.492,9.936 32.5,27.836 z"
   id="path3" />
		<path
   style="fill:#ffffff"
   d="m 1062.175,586.113 c -6.155,-5.25 -9.56,-12.936 -9.56,-21.604 0,-0.125 -0.031,-0.188 -0.031,-0.313 v -61.359 c 0,-0.391 -0.078,-0.719 -0.109,-1.078 -0.547,-34.896 -29.195,-59.109 -64.344,-54.096 -35.537,5.063 -64.389,38.021 -64.373,73.48 l 0.031,47.551 c 0.031,35.475 28.914,60.219 64.467,55.143 16.215,-2.297 31.008,-10.482 42.334,-22.025 2.576,3.686 5.529,7.076 9.013,10.059 3.124,2.641 7.201,3.656 11.278,3.078 4.108,-0.594 8.17,-2.75 11.31,-6.295 6.216,-7.107 6.201,-17.183 -0.016,-22.541 z M 1020.67,554.73 c 0,0.063 -0.016,0.109 -0.016,0.172 0.016,17.885 -14.527,34.537 -32.43,37.068 -17.916,2.547 -32.49,-9.936 -32.506,-27.836 l -0.031,-47.52 c -0.016,-17.887 14.543,-34.521 32.475,-37.053 17.887,-2.563 32.445,9.92 32.461,27.789 0,0.188 0.078,0.344 0.078,0.531 z"
   id="path4" />
		<path
   style="fill:#ffffff"
   d="m 627.78,517.787 c -12.185,-10.404 -28.376,-14.793 -45.566,-12.342 -17.175,2.438 -33.351,11.42 -45.519,25.307 -12.139,13.902 -18.848,30.992 -18.84,48.176 l 0.031,42.895 c 0.008,8.686 -3.373,17.277 -9.466,24.291 -6.155,6.951 -14.309,11.527 -22.986,12.762 -8.646,1.203 -16.823,-0.969 -22.954,-6.217 -6.147,-5.266 -9.529,-12.936 -9.537,-21.572 l -0.07,-100.662 c 54.673,-16.387 96.85,-74.246 96.811,-136.887 l -0.039,-57.281 c -0.016,-17.184 -6.717,-32.367 -18.901,-42.816 -12.2,-10.404 -28.384,-14.777 -45.551,-12.326 -17.183,2.438 -33.335,11.42 -45.534,25.307 -12.139,13.887 -18.84,31.008 -18.824,48.176 l 0.094,145.242 -13.371,-0.031 c -8.826,0.313 -15.988,6.936 -15.98,15.762 0,8.826 7.17,16.512 15.996,16.199 l 13.371,0.031 0.063,103.832 c 0.016,17.137 6.732,32.352 18.902,42.785 12.184,10.389 28.367,14.793 45.55,12.342 17.183,-2.438 33.343,-11.436 45.543,-25.338 1.022,-1.141 1.944,-2.375 2.882,-3.561 0.969,0.936 1.875,1.873 2.914,2.779 12.191,10.404 28.359,14.777 45.526,12.342 17.19,-2.438 33.374,-11.451 45.535,-25.354 12.169,-13.855 18.839,-30.945 18.823,-48.129 l -0.031,-42.895 C 646.643,543.42 639.949,528.189 627.78,517.787 Z M 452.764,350.049 c -0.008,-8.67 3.374,-17.307 9.49,-24.275 6.146,-6.998 14.316,-11.543 22.954,-12.777 8.686,-1.234 16.847,0.984 22.979,6.201 6.124,5.266 9.513,12.951 9.521,21.604 l 0.039,57.283 c 0.031,44.801 -27.891,86.227 -64.889,99.988 z m 161.957,215.084 0.023,42.912 c 0.008,8.686 -3.365,17.275 -9.481,24.289 -6.132,6.984 -14.277,11.482 -22.955,12.779 -8.669,1.203 -16.823,-0.984 -22.954,-6.248 -6.14,-5.281 -9.521,-12.92 -9.529,-21.588 l -0.023,-42.912 c -0.008,-8.639 3.366,-17.275 9.498,-24.26 6.123,-7.014 14.27,-11.527 22.931,-12.793 8.686,-1.234 16.839,0.984 22.971,6.248 6.132,5.266 9.505,12.904 9.521,21.557 v 0.016 z"
   id="path5" />
		<path
   style="fill:#ffffff"
   d="m 931.881,641.16 c -0.5,0 -0.969,0.094 -1.453,0.141 -8.107,0.5 -15.715,-1.998 -21.51,-7.154 -6.107,-5.467 -9.482,-13.23 -9.498,-21.869 l -0.016,-91.07 v -0.031 c -0.016,-17.166 -6.686,-32.365 -18.854,-42.785 -12.186,-10.436 -28.353,-14.793 -45.527,-12.355 -17.223,2.436 -33.383,11.418 -45.551,25.305 -1.031,1.188 -1.969,2.391 -2.891,3.641 -11.855,-11.811 -29.148,-17.918 -48.439,-15.168 -12.497,1.781 -24.143,7.076 -34.008,14.652 -2.584,-5.076 -8.06,-8.061 -14.441,-7.154 -8.817,1.25 -15.956,9.42 -15.956,18.213 l 0.047,143.729 c -0.008,8.795 7.162,14.902 15.979,13.668 0.016,0 0.016,0 0.016,0 8.811,-1.264 15.957,-9.434 15.949,-18.229 l -0.047,-95.803 c 0,-0.047 0.016,-0.078 0.016,-0.141 -0.008,-17.887 14.543,-34.477 32.461,-37.053 17.886,-2.547 32.46,9.949 32.468,27.836 l 0.008,95.928 c 0.016,8.811 7.154,14.934 15.964,13.652 0,0 0,0 0.016,0 8.811,-1.234 15.941,-9.389 15.949,-18.213 l -0.016,-95.912 v -0.016 c 0,-8.654 3.398,-17.277 9.506,-24.275 6.139,-7.014 14.301,-11.561 22.986,-12.764 8.646,-1.248 16.815,0.984 22.939,6.203 6.154,5.295 9.528,12.918 9.528,21.572 0,0 0.156,91.383 0.156,91.57 0,0 -0.953,20.947 15.573,38.738 l 3.156,3.047 c 12.168,10.855 28.352,15.84 45.504,14.027 8.826,0.016 15.98,-7.123 15.98,-15.934 0.002,-8.826 -7.168,-15.98 -15.994,-15.996 z"
   id="path6" />
	</g>
</g>

</svg>
