<svg xmlns="http://www.w3.org/2000/svg" style="display: none;">
    <symbol id="logo-menu" viewBox="0 0 400 170" aria-label="logo TINALS sur 2 lignes de 400x170">
        <!-- logo-tinals-2018-rectangle-blanc.svg 400x170-->
        <g style="display:none" transform="translate(15.426353,-1.2961153)">
            <rect style="clip-rule:evenodd;display:inline;fill-rule:evenodd" width="580" height="60" x="0" y="0" />
        </g>
        <g style="fill:#ffffff" transform="matrix(1.3713636,0,0,1.3713636,21.15514,-1.7774454)">
            <path style="clip-rule:evenodd;fill:#ffffff;fill-rule:evenodd" d="m 274.63665,73.392547 c -0.317,2.154 -2.201,2.741 -2.871,4.542 -1.997,-0.1 -3.747,-4.279 -5.979,-4.303 -1.755,-0.02 -3.586,3.339 -4.781,5.26 -3.715,5.966 -6.704,14.418 -6.218,23.196003 0.272,4.918 1.345,10.383 3.827,12.673 6.026,-3.058 7.063,-11.109 8.848,-18.413003 -2.851,-0.093 -5.305,2.156 -8.13,2.87 -0.607,-1.673 -2.481,-3.219 -1.676,-5.021 0.605,-1.354 6.09,-3.182 7.654,-3.586 4.944,-1.283 8.549,2.289 7.891,7.891 -0.955,8.114003 -6.884,20.914003 -13.153,22.000003 -3.685,0.637 -6.095,-1.325 -7.412,-3.35 -3.453,-5.3 -3.823,-15.289 -3.347,-21.759003 0.364,-4.979 2.109,-11.179 4.302,-15.543 2.077,-4.129 5.646,-9.311 8.61,-11 5.047,-2.877 8.716,1.318 12.435,4.543 z" />
            <path style="clip-rule:evenodd;fill:#ffffff;fill-rule:evenodd" d="m 92.415696,6.746 c -0.301,2.17 -2.154,2.79 -2.87,4.544 -2.03,-0.998 -3.174,-2.882 -5.26,-3.826 -2.12,0.911 -7.593,8.052 -5.978,12.195 0.502,1.289 2.813,1.873 4.543,3.109 3.917,2.799 6.879,6.938 6.936,13.391 0.043,5.08 -1.525,13.102 -3.827,16.5 -2.631,3.885 -9.702,5.276 -13.152,0 -2.392,-3.658 -1.825,-7.889 -3.109,-12.914 1.417,-0.578 3.89,-1.549 5.261,-0.716 1.229,4.11 0.692,9.989 4.304,11.716 3.356,-2.805 5.327,-9.986 4.783,-16.499 -0.691,-8.274 -11.276,-6.366 -11.718,-15.065 -0.235,-4.641 2.473,-10.62 5.74,-14.109 2.057,-2.196 4.594,-4.049 8.609,-3.108 1.935,1.572 4.1,2.913 5.738,4.782 z" />
            <path style="clip-rule:evenodd;fill:#ffffff;fill-rule:evenodd" d="m 230.8493,2.442 c 1.986,1.067 4.505,0.681 6.697,1.913 7.728,4.346 4.708,19.576 2.391,29.174 -1.698,7.033 -3.216,14.101 -6.695,18.413 -1.079,1.338 -3.454,3.132 -4.543,3.348 -3.506,0.695 -8.201,-1.346 -9.804,-3.109 -3.972,-4.369 -2.859,-17.795 -1.435,-24.63 0.806,-3.868 1.715,-7.692 3.109,-11.238 1.339,-3.409 2.68,-7.616 4.543,-9.566 1.388,-1.452 4.35,-1.982 5.021,-3.826 0.174,-0.224 0.434,-0.363 0.716,-0.479 z m 5.74,14.827 c 0.191,-2.581 0.23,-8.431 -3.587,-8.37 -1.405,0.022 -2.559,1.539 -3.826,1.673 -4.676,9.625 -9.246,24.425 -6.218,37.305 1.165,0.828 2.528,1.457 4.305,1.674 5.502,-6.295 8.432,-20.212 9.326,-32.282 z" />
            <path style="clip-rule:evenodd;fill:#ffffff;fill-rule:evenodd" d="m 130.87204,2.92 c -2.472,17.296 -3.192,36.344 -6.695,52.608 -0.647,-0.444 -2.918,0.294 -3.587,-0.717 -1.777,-7.565 1.194,-18.512 1.913,-27.979 0.634,-8.352 1.561,-16.306 2.87,-23.435 0,-0.239 0,-0.478 0,-0.717 2.295,-0.352 3.825,0.693 5.499,0.24 z" />
            <path style="clip-rule:evenodd;fill:#ffffff;fill-rule:evenodd" d="m 276.0453,4.355 c -0.033,1.99 0.733,3.997 -0.478,5.022 -2.104,1.78 -8.413,-0.345 -12.435,0.238 -2.271,16.252 -5.243,31.851 -7.414,47.108 -1.136,0.236 -3.403,0.026 -4.782,-0.239 -0.921,-4.76 0.71,-9.641 1.435,-14.347 1.658,-10.771 3.215,-21.78 5.021,-32.522 -4.053,-0.69 -6.965,-0.116 -11.716,-0.238 -0.59,-1.73 -0.438,-4.404 -0.479,-5.5 4.19,-0.384 9.521,0.012 13.869,-0.24 -0.011,-0.409 0.178,-0.619 0.479,-0.717 5.049,0.931 10.605,1.351 16.5,1.435 z" />
            <path style="clip-rule:evenodd;fill:#ffffff;fill-rule:evenodd" d="m 184.48465,71.239547 c -0.035,2.447 -0.502,2.755 -0.479,5.262 -5.185,-0.464 -10.621,-2.796 -13.631,1.195 -1.562,2.073 -3.997,6.152 -3.586,8.848 0.403,2.652 3.896,3.898 6.457,6.695 5.313,5.805 7.479,18.915003 1.912,26.543003 -1.072,1.472 -3.204,3.377 -5.977,3.587 -7.354,0.556 -8.485,-4.573 -9.325,-11 1.193,-0.52 2.785,-1.509 4.063,-1.195 1.017,1.774 1.435,4.146 2.153,6.218 6.275,2.157 7.809,-9.735 5.978,-15.782 -2.012,-6.655003 -12.21,-7.333003 -11,-17.217003 0.647,-5.266 4.685,-11.451 8.132,-13.392 4.596,-2.59 9.286,-0.987 15.303,0.238 z" />
            <path style="clip-rule:evenodd;fill:#ffffff;fill-rule:evenodd" d="m 82.138646,72.674547 c 2.018,-0.669 4.073,-0.142 5.739,0 -1.289,10.848 1.048,21.821 0.715,31.804003 3.686,-9.498003 7.823001,-19.218003 11.240001,-29.652003 0.421003,-1.289 0.862003,-3.71 1.435003,-4.304 1.071,-1.113 4.768,0.079 5.261,1.194 0.326,0.742 -1.35,4.753 -1.915,6.697 -3.599,12.407 -8.173003,20.89 -12.194004,33.239003 -1.316,4.043 -1.906,12.239 -6.457,11.717 -3.887,-0.445 -2.906,-6.674 -3.109,-11.479 -0.584,-13.911003 -0.907,-26.745003 -0.715,-39.216003 z" />
            <path style="clip-rule:evenodd;fill:#ffffff;fill-rule:evenodd" d="m 211.7193,4.355 c 1.372,9.821 -4.442,22.322 -5.739,33 -0.636,5.245 1.28,14.702 -4.542,14.586 -4.596,-0.09 -5.932,-9.136 -7.174,-13.152 -1.743,-5.631 -3.79,-9.828 -5.5,-14.827 -2.198,10.48 -3.923,23.149 -5.261,33 -1.837,0.559 -3.836,-0.146 -5.5,-0.239 1.13,-10.423 2.86,-21.554 4.544,-32.282 0.753,-4.806 0.063,-16.938 5.499,-16.739 4.024,0.147 3.697,5.846 4.783,9.804 1.968,7.174 5.018,14.281 7.414,20.565 0.883,-12.747 5.856,-21.404 6.934,-33.956 0.519,-0.527 3.722,-0.432 4.542,0.24 z" />
            <path style="clip-rule:evenodd;fill:#ffffff;fill-rule:evenodd" d="m 7.2866956,10.334 c -2.058,12.731 -0.099,32.798 -3.348,45.434 -1.419,-0.41 -2.825,0.224 -3.58599997,-0.478 -1.077,-14.89 0.165,-32.193 1.19499997,-44.479 -4.094,-0.028 -8.269,-0.124 -12.6739996,-1.196 -0.728,-1.822 0.282,-4.264 0.238,-5.498 10.08099963,2.096 20.6109996,-0.202 31.326,-0.239 0.708,0.972 1.475,4.6 0.24,5.261 -3.289,1.565 -9.926,0.538 -13.3910004,1.195 z" />
            <path style="clip-rule:evenodd;fill:#ffffff;fill-rule:evenodd" d="m 44.590696,4.117 c -0.996,11.775 0.018,22.915 -0.479,34.196 -0.265,6.035 0.014,12.255 -1.435,16.978 -1.165,-0.11 -2.801,0.249 -3.587,-0.239 -1.348,-6.334 -0.935,-13.281 -0.717,-22.239 -3.563,0.212 -5.536,0.257 -8.848,0.479 -0.769,7.68 -0.924,15.975 -2.631,22.717 -1.019,-0.098 -2.463,0.231 -3.109,-0.239 -1.496,-15.426 0.157,-34.924 2.154,-50.459 1.982,-0.451 3.049,0.18 5.5,0.24 -0.749,7.31 -1.802,14.164 -1.674,21.761 1.818,0.758 5.285,0.384 8.371,0.478 0.604,-8.854 -0.011,-15.578 0.955,-23.435 1.201,-1.116 4.357,0.024 5.5,-0.238 z" />
            <path style="clip-rule:evenodd;fill:#ffffff;fill-rule:evenodd" d="m 139.04965,71.239547 c -0.151,1.762 0.401,4.227 -0.478,5.262 -4.623,0.03 -10.974,0.22 -16.021,-0.479 -2.532,4.084 -2.704,10.53 -3.827,16.021 4.558,0.014 10.395,-0.765 14.828,-1.674 -0.208,1.41 1.132,2.525 0.476,3.587 -3.839,3.039 -10.822,3.302 -16.259,4.064 -0.856,5.283003 -1.783,10.494003 -2.392,16.022003 5.048,-0.907 12.077,-1.875 17.696,-2.391 0.346,1.588 1.415,3.836 0.479,5.26 -3.149,0.356 -6.004,1.203 -9.088,1.675 -5.895,0.902 -14.609,3.574 -14.824,-4.543 -0.039,-1.439 0.546,-2.777 0.715,-4.304 1.041,-9.303 2.687,-20.979003 4.784,-30.371003 0.552,-2.48 1.839,-5.453 1.195,-8.847 6.745,0.182 15.779,-0.049 22.716,0.718 z" />
            <path style="clip-rule:evenodd;fill:#ffffff;fill-rule:evenodd" d="m 196.44065,70.761547 c 3.349,0.15 5.412,-0.65 7.891,1.913 1.889,1.954 2.863,6.745 3.11,10.761 0.405,6.636 -1.287,12.585 -2.871,19.848003 -1.323,6.068 -3.139,13.542 -6.218,16.499 -4.617,4.436 -10.799,1.047 -12.435,-4.063 -2.056,-6.435 0.104,-14.81 0.719,-21.044003 0.745,-7.546 2.61,-13.552 5.26,-18.891 1.795,-1.397 4.025,-2.355 4.544,-5.023 z m -0.239,8.849 c -3.104,4.041 -3.999,16.959 -4.781,23.913003 -0.392,3.468 -1.495,12.219 1.673,12.435 1.396,0.094 2.843,-3.425 3.586,-5.5 3.647,-10.165 5.492,-22.441003 4.065,-33.956003 -0.16,0 -0.319,0 -0.479,0 -0.966,1.367 -3.015,1.742 -4.064,3.108 z" />
            <path style="clip-rule:evenodd;fill:#ffffff;fill-rule:evenodd" d="m 245.70065,71.478547 c 0.075,9.225 -3.06,17.939 -4.782,26.782 -1.329,6.818003 -2.541,13.584003 -3.586,20.805003 -1.043,0.848 -1.566,2.083 -3.11,2.152 -4.84,0.215 -5.774,-10.31 -7.174,-14.586 -2.08,-6.35 -3.729,-11.800003 -4.784,-16.978003 -3.01,11.167003 -4.085,24.185003 -7.172,34.673003 -2.042,0.408 -3.795,-0.772 -5.262,-0.717 2.422,-12.496 4.884,-26.087003 7.174,-39.458003 0.525,-3.073 0.607,-10.922 3.108,-11.956 4.803,-1.986 5.077,5.132 5.979,9.087 2.07,9.086 4.244,18.097 7.174,25.108003 1.17,-7.057003 3.419,-16.272003 5.261,-23.673003 0.698,-2.807 0.967,-5.642 1.674,-7.892 0.223,-0.713 1.021,-2.836 1.434,-3.348 0.033,-0.041 -0.339,-0.596 0,-0.717 1.208,-0.431 2.981,0.358 4.066,0.718 z" />
            <path style="clip-rule:evenodd;fill:#ffffff;fill-rule:evenodd" d="m 41.007646,72.435547 c -3.249,14.527 -5.204,30.346003 -8.371,44.957003 4.257,-0.329 9.444,-1.534 14.589,-1.196 0.357,1.461 1.066,3.802 0.238,5.021 -7.259,0.365 -20.193,6.28 -20.564,-4.305 -0.113,-3.206 1.366,-7.568 2.152,-11.477 2.058,-10.235003 3.965,-24.003003 6.456,-33.478003 1.515,-1.212 3.453,0.693 5.5,0.478 z" />
            <path style="clip-rule:evenodd;fill:#ffffff;fill-rule:evenodd" d="m 63.720696,5.79 c -0.75,17.583 -0.911,35.756 -3.826,51.173 -1.412,-0.183 -3.688,0.501 -4.065,-0.717 -0.258,-10.345 0.445,-22.007 1.435,-33 0.528,-5.863 0.648,-11.226 1.197,-17.218 1.637,-0.426 3.425,-0.006 5.259,-0.238 z" />
            <path style="clip-rule:evenodd;fill:#ffffff;fill-rule:evenodd" d="m 63.007646,73.152547 c 2.963,2.176 6.159,0.839 9.088,2.87 2.026,1.406 3.09,4.294 3.347,8.13 0.475,7.08 -0.942,13.889 -2.871,21.044003 -1.839,6.832 -3.26,14.111 -6.455,17.457 -4.319,4.518 -11.079,2.413 -12.675,-3.109 -2.944,-10.184 0.368,-31.316003 3.826,-38.500003 1.274,-2.644 4.372,-5.541 5.74,-7.892 z m 2.87,5.739 c -0.833,1.357 -2.505,2.623 -3.35,4.305 -2.707,5.401 -4.292,20.081003 -4.302,26.782003 -0.006,2.547 0.149,9.077 2.15,9.326 2.224,0.277 3.933,-6.053 4.544,-7.891 3.022,-9.082 6.043,-21.733003 3.825,-31.564003 -0.946,-0.327 -1.437,-1.112 -2.867,-0.958 z" />
            <path style="clip-rule:evenodd;fill:#ffffff;fill-rule:evenodd" d="m 11.594646,119.54455 c -1.46,-0.045 -3.2539998,0.649 -4.5429998,0 -1.3240001,-5.61 -1.1670001,-12.704 -1.6740001,-19.13 -2.5,-0.609003 -5.43999997,-0.777003 -8.13,-1.196003 -3.256,7.106003 -5.863,14.128003 -7.4140001,22.479003 -2.021,0.012 -3.921,-0.771 -5.26,-0.718 2.287,-12.875 7.2210001,-25.674003 12.6740001,-37.304003 1.519,-3.244 3.47200003,-9.134 6.456,-10.043 7.9239999,-2.418 6.1110001,12.777 6.6949999,20.087 -0.183,1.06 0.999,0.755 1.196,1.433 -1.064,7.612003 0.856,14.838003 0,24.392003 z M -0.60135387,93.719547 c 1.77399997,0.174 4.03999997,1.013 5.49999997,0.717 -0.648,-4.015 -0.349,-8.078 -0.957,-11.717 -1.683,3.496 -3.27699997,7.083 -4.54299997,11 z" />
            <path style="clip-rule:evenodd;fill:#ffffff;fill-rule:evenodd" d="m 154.30704,2.442 c 0.167,2.113 -0.522,3.286 -0.238,5.26 -2.466,0.075 -4.384,-0.399 -6.457,-0.716 -1.24,1.803 -5.554,8.136 -4.305,12.673 0.778,2.828 6.356,3.36 9.326,6.218 5.196,4.998 4.439,19.839 -0.239,24.868 -1.948,2.095 -9.751,5.644 -13.152,0.718 -1.797,-2.603 -1.241,-5.952 -2.63,-9.804 1.407,-0.311 2.969,-1.594 4.543,-0.957 1.497,1.851 1.256,5.44 2.63,7.414 6.926,1.041 8.958,-12.407 5.5,-17.217 -2.599,-3.617 -11.149,-4.032 -11.957,-10.521 -0.227,-1.824 0.135,-4.649 0.718,-6.696 2.004,-7.038 5.966,-15.495 16.261,-11.24 z" />
        </g>
    </symbol>
    <symbol id="logo-intro" viewBox="0 0 580 60" aria-label="logo TINALS sur 1 ligne de 580x60">
        <!-- -logo-tinals-2018-ligne-blanc.svg 580x60 -->
        <g style="display:none;">
            <rect style="display:inline;fill-rule:evenodd;clip-rule:evenodd;" width="580" height="60" />
        </g>
        <g>
            <path style="fill-rule:evenodd;clip-rule:evenodd;fill:#FFFFFF;" d="M579,6.986c-0.317,2.154-2.201,2.741-2.871,4.542c-1.997-0.1-3.747-4.279-5.979-4.303c-1.755-0.02-3.586,3.339-4.781,5.26c-3.715,5.966-6.704,14.418-6.218,23.196c0.272,4.918,1.345,10.383,3.827,12.673c6.026-3.058,7.063-11.109,8.848-18.413c-2.851-0.093-5.305,2.156-8.13,2.87c-0.607-1.673-2.481-3.219-1.676-5.021c0.605-1.354,6.09-3.182,7.654-3.586c4.944-1.283,8.549,2.289,7.891,7.891c-0.955,8.114-6.884,20.914-13.153,22c-3.685,0.637-6.095-1.325-7.412-3.35c-3.453-5.3-3.823-15.289-3.347-21.759c0.364-4.979,2.109-11.179,4.302-15.543c2.077-4.129,5.646-9.311,8.61-11C571.612-0.434,575.281,3.761,579,6.986z" />
            <path style="fill-rule:evenodd;clip-rule:evenodd;fill:#FFFFFF;" d="M104.807,6.746c-0.301,2.17-2.154,2.79-2.87,4.544c-2.03-0.998-3.174-2.882-5.26-3.826c-2.12,0.911-7.593,8.052-5.978,12.195c0.502,1.289,2.813,1.873,4.543,3.109c3.917,2.799,6.879,6.938,6.936,13.391c0.043,5.08-1.525,13.102-3.827,16.5c-2.631,3.885-9.702,5.276-13.152,0c-2.392-3.658-1.825-7.889-3.109-12.914c1.417-0.578,3.89-1.549,5.261-0.716c1.229,4.11,0.692,9.989,4.304,11.716c3.356-2.805,5.327-9.986,4.783-16.499c-0.691-8.274-11.276-6.366-11.718-15.065c-0.235-4.641,2.473-10.62,5.74-14.109c2.057-2.196,4.594-4.049,8.609-3.108C101.004,3.536,103.169,4.877,104.807,6.746z" />
            <path style="fill-rule:evenodd;clip-rule:evenodd;fill:#FFFFFF;" d="M233.458,2.442c1.986,1.067,4.505,0.681,6.697,1.913c7.728,4.346,4.708,19.576,2.391,29.174c-1.698,7.033-3.216,14.101-6.695,18.413c-1.079,1.338-3.454,3.132-4.543,3.348c-3.506,0.695-8.201-1.346-9.804-3.109c-3.972-4.369-2.859-17.795-1.435-24.63c0.806-3.868,1.715-7.692,3.109-11.238c1.339-3.409,2.68-7.616,4.543-9.566c1.388-1.452,4.35-1.982,5.021-3.826C232.916,2.697,233.176,2.558,233.458,2.442zM239.198,17.269c0.191-2.581,0.23-8.431-3.587-8.37c-1.405,0.022-2.559,1.539-3.826,1.673c-4.676,9.625-9.246,24.425-6.218,37.305c1.165,0.828,2.528,1.457,4.305,1.674C235.374,43.256,238.304,29.339,239.198,17.269z" />
            <path style="fill-rule:evenodd;clip-rule:evenodd;fill:#FFFFFF;" d="M134.459,2.92c-2.472,17.296-3.192,36.344-6.695,52.608c-0.647-0.444-2.918,0.294-3.587-0.717c-1.777-7.565,1.194-18.512,1.913-27.979c0.634-8.352,1.561-16.306,2.87-23.435c0-0.239,0-0.478,0-0.717C131.255,2.328,132.785,3.373,134.459,2.92z" />
            <path style="fill-rule:evenodd;clip-rule:evenodd;fill:#FFFFFF;" d="M278.654,4.355c-0.033,1.99,0.733,3.997-0.478,5.022c-2.104,1.78-8.413-0.345-12.435,0.238c-2.271,16.252-5.243,31.851-7.414,47.108c-1.136,0.236-3.403,0.026-4.782-0.239c-0.921-4.76,0.71-9.641,1.435-14.347c1.658-10.771,3.215-21.78,5.021-32.522c-4.053-0.69-6.965-0.116-11.716-0.238c-0.59-1.73-0.438-4.404-0.479-5.5c4.19-0.384,9.521,0.012,13.869-0.24c-0.011-0.409,0.178-0.619,0.479-0.717C267.203,3.851,272.759,4.271,278.654,4.355z" />
            <path style="fill-rule:evenodd;clip-rule:evenodd;fill:#FFFFFF;" d="M488.848,4.833c-0.035,2.447-0.502,2.755-0.479,5.262c-5.185-0.464-10.621-2.796-13.631,1.195c-1.562,2.073-3.997,6.152-3.586,8.848c0.403,2.652,3.896,3.898,6.457,6.695c5.313,5.805,7.479,18.915,1.912,26.543c-1.072,1.472-3.204,3.377-5.977,3.587c-7.354,0.556-8.485-4.573-9.325-11c1.193-0.52,2.785-1.509,4.063-1.195c1.017,1.774,1.435,4.146,2.153,6.218c6.275,2.157,7.809-9.735,5.978-15.782c-2.012-6.655-12.21-7.333-11-17.217c0.647-5.266,4.685-11.451,8.132-13.392C478.141,2.005,482.831,3.608,488.848,4.833z" />
            <path style="fill-rule:evenodd;clip-rule:evenodd;fill:#FFFFFF;" d="M386.502,6.268c2.018-0.669,4.073-0.142,5.739,0c-1.289,10.848,1.048,21.821,0.715,31.804c3.686-9.498,7.823-19.218,11.24-29.652c0.421-1.289,0.862-3.71,1.435-4.304c1.071-1.113,4.768,0.079,5.261,1.194c0.326,0.742-1.35,4.753-1.915,6.697c-3.599,12.407-8.173,20.89-12.194,33.239c-1.316,4.043-1.906,12.239-6.457,11.717c-3.887-0.445-2.906-6.674-3.109-11.479C386.633,31.573,386.31,18.739,386.502,6.268z" />
            <path style="fill-rule:evenodd;clip-rule:evenodd;fill:#FFFFFF;" d="M214.328,4.355c1.372,9.821-4.442,22.322-5.739,33c-0.636,5.245,1.28,14.702-4.542,14.586c-4.596-0.09-5.932-9.136-7.174-13.152c-1.743-5.631-3.79-9.828-5.5-14.827c-2.198,10.48-3.923,23.149-5.261,33c-1.837,0.559-3.836-0.146-5.5-0.239c1.13-10.423,2.86-21.554,4.544-32.282c0.753-4.806,0.063-16.938,5.499-16.739c4.024,0.147,3.697,5.846,4.783,9.804c1.968,7.174,5.018,14.281,7.414,20.565c0.883-12.747,5.856-21.404,6.934-33.956C210.305,3.588,213.508,3.683,214.328,4.355z" />
            <path style="fill-rule:evenodd;clip-rule:evenodd;fill:#FFFFFF;" d="M19.678,10.334c-2.058,12.731-0.099,32.798-3.348,45.434c-1.419-0.41-2.825,0.224-3.586-0.478c-1.077-14.89,0.165-32.193,1.195-44.479c-4.094-0.028-8.269-0.124-12.674-1.196C0.537,7.793,1.547,5.351,1.503,4.117c10.081,2.096,20.611-0.202,31.326-0.239c0.708,0.972,1.475,4.6,0.24,5.261C29.78,10.704,23.143,9.677,19.678,10.334z" />
            <path style="fill-rule:evenodd;clip-rule:evenodd;fill:#FFFFFF;" d="M56.982,4.117C55.986,15.892,57,27.032,56.503,38.313c-0.265,6.035,0.014,12.255-1.435,16.978c-1.165-0.11-2.801,0.249-3.587-0.239c-1.348-6.334-0.935-13.281-0.717-22.239c-3.563,0.212-5.536,0.257-8.848,0.479c-0.769,7.68-0.924,15.975-2.631,22.717c-1.019-0.098-2.463,0.231-3.109-0.239C34.68,40.344,36.333,20.846,38.33,5.311c1.982-0.451,3.049,0.18,5.5,0.24c-0.749,7.31-1.802,14.164-1.674,21.761c1.818,0.758,5.285,0.384,8.371,0.478c0.604-8.854-0.011-15.578,0.955-23.435C52.683,3.239,55.839,4.379,56.982,4.117z" />
            <path style="fill-rule:evenodd;clip-rule:evenodd;fill:#FFFFFF;" d="M443.413,4.833c-0.151,1.762,0.401,4.227-0.478,5.262c-4.623,0.03-10.974,0.22-16.021-0.479c-2.532,4.084-2.704,10.53-3.827,16.021c4.558,0.014,10.395-0.765,14.828-1.674c-0.208,1.41,1.132,2.525,0.476,3.587c-3.839,3.039-10.822,3.302-16.259,4.064c-0.856,5.283-1.783,10.494-2.392,16.022c5.048-0.907,12.077-1.875,17.696-2.391c0.346,1.588,1.415,3.836,0.479,5.26c-3.149,0.356-6.004,1.203-9.088,1.675c-5.895,0.902-14.609,3.574-14.824-4.543c-0.039-1.439,0.546-2.777,0.715-4.304c1.041-9.303,2.687-20.979,4.784-30.371c0.552-2.48,1.839-5.453,1.195-8.847C427.442,4.297,436.476,4.066,443.413,4.833z" />
            <path style="fill-rule:evenodd;clip-rule:evenodd;fill:#FFFFFF;" d="M500.804,4.355c3.349,0.15,5.412-0.65,7.891,1.913c1.889,1.954,2.863,6.745,3.11,10.761c0.405,6.636-1.287,12.585-2.871,19.848c-1.323,6.068-3.139,13.542-6.218,16.499c-4.617,4.436-10.799,1.047-12.435-4.063c-2.056-6.435,0.104-14.81,0.719-21.044c0.745-7.546,2.61-13.552,5.26-18.891C498.055,7.981,500.285,7.023,500.804,4.355z M500.565,13.204c-3.104,4.041-3.999,16.959-4.781,23.913c-0.392,3.468-1.495,12.219,1.673,12.435c1.396,0.094,2.843-3.425,3.586-5.5c3.647-10.165,5.492-22.441,4.065-33.956c-0.16,0-0.319,0-0.479,0C503.663,11.463,501.614,11.838,500.565,13.204z" />
            <path style="fill-rule:evenodd;clip-rule:evenodd;fill:#FFFFFF;" d="M550.064,5.072c0.075,9.225-3.06,17.939-4.782,26.782c-1.329,6.818-2.541,13.584-3.586,20.805c-1.043,0.848-1.566,2.083-3.11,2.152c-4.84,0.215-5.774-10.31-7.174-14.586c-2.08-6.35-3.729-11.8-4.784-16.978c-3.01,11.167-4.085,24.185-7.172,34.673c-2.042,0.408-3.795-0.772-5.262-0.717c2.422-12.496,4.884-26.087,7.174-39.458c0.525-3.073,0.607-10.922,3.108-11.956c4.803-1.986,5.077,5.132,5.979,9.087c2.07,9.086,4.244,18.097,7.174,25.108c1.17-7.057,3.419-16.272,5.261-23.673c0.698-2.807,0.967-5.642,1.674-7.892c0.223-0.713,1.021-2.836,1.434-3.348c0.033-0.041-0.339-0.596,0-0.717C547.206,3.923,548.979,4.712,550.064,5.072z" />
            <path style="fill-rule:evenodd;clip-rule:evenodd;fill:#FFFFFF;" d="M345.371,6.029c-3.249,14.527-5.204,30.346-8.371,44.957c4.257-0.329,9.444-1.534,14.589-1.196c0.357,1.461,1.066,3.802,0.238,5.021c-7.259,0.365-20.193,6.28-20.564-4.305c-0.113-3.206,1.366-7.568,2.152-11.477c2.058-10.235,3.965-24.003,6.456-33.478C341.386,4.339,343.324,6.244,345.371,6.029z" />
            <path style="fill-rule:evenodd;clip-rule:evenodd;fill:#FFFFFF;" d="M76.112,5.79c-0.75,17.583-0.911,35.756-3.826,51.173c-1.412-0.183-3.688,0.501-4.065-0.717c-0.258-10.345,0.445-22.007,1.435-33c0.528-5.863,0.648-11.226,1.197-17.218C72.49,5.602,74.278,6.022,76.112,5.79z" />
            <path style="fill-rule:evenodd;clip-rule:evenodd;fill:#FFFFFF;" d="M367.371,6.746c2.963,2.176,6.159,0.839,9.088,2.87c2.026,1.406,3.09,4.294,3.347,8.13c0.475,7.08-0.942,13.889-2.871,21.044c-1.839,6.832-3.26,14.111-6.455,17.457c-4.319,4.518-11.079,2.413-12.675-3.109c-2.944-10.184,0.368-31.316,3.826-38.5C362.905,11.994,366.003,9.097,367.371,6.746zM370.241,12.485c-0.833,1.357-2.505,2.623-3.35,4.305c-2.707,5.401-4.292,20.081-4.302,26.782c-0.006,2.547,0.149,9.077,2.15,9.326c2.224,0.277,3.933-6.053,4.544-7.891c3.022-9.082,6.043-21.733,3.825-31.564C372.162,13.116,371.671,12.331,370.241,12.485z" />
            <path style="fill-rule:evenodd;clip-rule:evenodd;fill:#FFFFFF;" d="M315.958,53.138c-1.46-0.045-3.254,0.649-4.543,0c-1.324-5.61-1.167-12.704-1.674-19.13c-2.5-0.609-5.44-0.777-8.13-1.196c-3.256,7.106-5.863,14.128-7.414,22.479c-2.021,0.012-3.921-0.771-5.26-0.718c2.287-12.875,7.221-25.674,12.674-37.304c1.519-3.244,3.472-9.134,6.456-10.043c7.924-2.418,6.111,12.777,6.695,20.087c-0.183,1.06,0.999,0.755,1.196,1.433C314.894,36.358,316.814,43.584,315.958,53.138zM303.762,27.313c1.774,0.174,4.04,1.013,5.5,0.717c-0.648-4.015-0.349-8.078-0.957-11.717C306.622,19.809,305.028,23.396,303.762,27.313z" />
            <path style="fill-rule:evenodd;clip-rule:evenodd;fill:#FFFFFF;" d="M157.894,2.442c0.167,2.113-0.522,3.286-0.238,5.26c-2.466,0.075-4.384-0.399-6.457-0.716c-1.24,1.803-5.554,8.136-4.305,12.673c0.778,2.828,6.356,3.36,9.326,6.218c5.196,4.998,4.439,19.839-0.239,24.868c-1.948,2.095-9.751,5.644-13.152,0.718c-1.797-2.603-1.241-5.952-2.63-9.804c1.407-0.311,2.969-1.594,4.543-0.957c1.497,1.851,1.256,5.44,2.63,7.414c6.926,1.041,8.958-12.407,5.5-17.217c-2.599-3.617-11.149-4.032-11.957-10.521c-0.227-1.824,0.135-4.649,0.718-6.696C143.637,6.644,147.599-1.813,157.894,2.442z" />
        </g>
    </symbol>
    <symbol id="logo-loader" viewBox="0 0 105.83333 105.83333" aria-label="logo TINALS sur 4 lignes de 283x400">
        <!-- logo-tinals-2018-carre-blanc.svg - 283X400 -->
        <g style="display:inline;mix-blend-mode:normal;fill:gray;stroke:none">
            <path d="M195.264 233.344c-.37 2.518-2.573 3.204-3.356 5.309-2.334-.117-4.38-5.001-6.988-5.03-2.051-.023-4.191 3.903-5.588 6.148-4.342 6.973-7.836 16.852-7.268 27.112.318 5.748 1.572 12.135 4.473 14.812 7.043-3.574 8.255-12.984 10.342-21.521-3.333-.109-6.2 2.52-9.503 3.354-.709-1.955-2.9-3.762-1.958-5.868.707-1.583 7.117-3.72 8.945-4.191 5.779-1.5 9.993 2.675 9.223 9.222-1.116 9.484-8.046 24.445-15.373 25.714-4.307.744-7.124-1.549-8.663-3.915-4.036-6.195-4.468-17.87-3.912-25.432.426-5.82 2.465-13.066 5.028-18.167 2.428-4.826 6.6-10.883 10.064-12.857 5.899-3.362 10.187 1.54 14.534 5.31zM161.443 231.107c.088 10.782-3.576 20.967-5.589 31.303-1.553 7.969-2.97 15.877-4.191 24.317-1.22.99-1.83 2.434-3.635 2.515-5.657.251-6.749-12.05-8.385-17.048-2.431-7.422-4.358-13.792-5.591-19.844-3.519 13.052-4.775 28.267-8.383 40.526-2.387.476-4.436-.903-6.15-.838 2.83-14.606 5.708-30.49 8.385-46.119.613-3.591.71-12.765 3.632-13.974 5.614-2.321 5.934 5.998 6.989 10.621 2.419 10.62 4.96 21.152 8.384 29.346 1.368-8.248 3.997-19.019 6.15-27.669.815-3.28 1.13-6.594 1.956-9.224.26-.833 1.193-3.315 1.676-3.913.039-.048-.396-.697 0-.838 1.412-.504 3.484.418 4.752.84zM103.869 230.27c3.914.174 6.325-.76 9.223 2.235 2.207 2.284 3.346 7.884 3.634 12.577.474 7.757-1.504 14.71-3.355 23.199-1.546 7.092-3.669 15.827-7.268 19.284-5.396 5.184-12.622 1.223-14.534-4.75-2.403-7.52.122-17.31.84-24.595.871-8.82 3.051-15.84 6.149-22.08 2.098-1.633 4.704-2.753 5.31-5.87zm-.28 10.342c-3.628 4.723-4.674 19.821-5.588 27.95-.458 4.053-1.747 14.28 1.956 14.533 1.631.11 3.323-4.003 4.19-6.428 4.263-11.881 6.42-26.23 4.752-39.688h-.56c-1.129 1.598-3.524 2.036-4.75 3.633zM89.894 230.828c-.04 2.86-.586 3.22-.56 6.15-6.06-.542-12.413-3.268-15.931 1.397-1.826 2.423-4.672 7.19-4.192 10.341.471 3.1 4.554 4.556 7.547 7.825 6.21 6.785 8.742 22.108 2.235 31.024-1.253 1.72-3.745 3.947-6.986 4.192-8.595.65-9.917-5.345-10.899-12.857 1.395-.607 3.255-1.763 4.749-1.396 1.189 2.073 1.677 4.845 2.516 7.267 7.335 2.521 9.128-11.378 6.987-18.446-2.351-7.778-14.27-8.57-12.856-20.123.756-6.155 5.476-13.384 9.504-15.652 5.372-3.028 10.854-1.154 17.886.278z" style="clip-rule:evenodd;fill:gray;fill-rule:evenodd;stroke:none;stroke-width:1.16879" transform="matrix(.38084 0 0 .38084 3.998 -5.744)" />
        </g>
        <g style="display:inline;mix-blend-mode:normal;fill:gray;stroke:none">
            <g style="fill:gray;stroke:none">
                <path d="M216.015 142.241c-.176 2.06.47 4.94-.558 6.15-5.404.036-12.827.258-18.726-.56-2.959 4.774-3.16 12.308-4.473 18.726 5.328.016 12.15-.894 17.331-1.957-.243 1.648 1.323 2.951.557 4.193-4.487 3.552-12.649 3.86-19.004 4.75-1 6.174-2.084 12.265-2.795 18.726 5.9-1.06 14.115-2.191 20.683-2.794.404 1.856 1.653 4.483.56 6.147-3.681.417-7.018 1.406-10.623 1.958-6.89 1.054-17.075 4.177-17.326-5.31-.045-1.682.638-3.245.836-5.03 1.217-10.873 3.14-24.52 5.591-35.498.646-2.898 2.15-6.373 1.397-10.34 7.884.213 18.442-.057 26.55.84zM149.498 143.918c2.359-.781 4.76-.166 6.708 0-1.507 12.68 1.225 25.505.836 37.173 4.308-11.101 9.143-22.462 13.137-34.657.492-1.507 1.007-4.337 1.677-5.03 1.252-1.302 5.573.092 6.149 1.395.381.867-1.578 5.555-2.238 7.827-4.207 14.501-9.553 24.416-14.252 38.85-1.539 4.725-2.228 14.305-7.547 13.695-4.543-.52-3.397-7.801-3.634-13.417-.683-16.26-1.06-31.26-.836-45.836zM127.138 144.477c3.463 2.543 7.199.98 10.622 3.355 2.368 1.643 3.611 5.018 3.912 9.502.555 8.275-1.101 16.233-3.356 24.596-2.15 7.985-3.81 16.493-7.544 20.404-5.048 5.28-12.95 2.82-14.815-3.634-3.44-11.903.43-36.602 4.472-44.999 1.49-3.09 5.11-6.476 6.709-9.224zm3.354 6.708c-.973 1.586-2.927 3.066-3.915 5.032-3.164 6.312-5.017 23.47-5.028 31.302-.007 2.977.174 10.61 2.513 10.9 2.6.324 4.597-7.074 5.31-9.223 3.533-10.615 7.064-25.401 4.471-36.891-1.105-.383-1.68-1.3-3.35-1.12zM101.424 143.64c-3.797 16.978-6.082 35.467-9.784 52.545 4.976-.385 11.039-1.793 17.052-1.398.417 1.707 1.246 4.444.278 5.868-8.484.427-23.601 7.34-24.035-5.031-.132-3.748 1.597-8.846 2.515-13.415 2.406-11.962 4.635-28.054 7.546-39.129 1.77-1.416 4.036.81 6.428.56z" style="clip-rule:evenodd;fill:gray;fill-rule:evenodd;stroke:none;stroke-width:1.16879" transform="matrix(.38084 0 0 .38084 7.872 .182)" />
            </g>
            <path d="M45.99 208.494c-1.791-.055-3.992.796-5.573 0-1.625-6.882-1.432-15.585-2.054-23.468-3.067-.747-6.674-.953-9.974-1.467-3.994 8.717-7.192 17.332-9.095 27.576-2.48.015-4.81-.945-6.453-.88 2.806-15.795 8.859-31.497 15.548-45.764 1.864-3.98 4.26-11.206 7.92-12.321 9.721-2.966 7.497 15.675 8.214 24.642-.225 1.3 1.225.927 1.467 1.758-1.305 9.339 1.05 18.203 0 29.924zm-14.962-31.682c2.176.214 4.956 1.243 6.747.88-.795-4.925-.428-9.91-1.174-14.374-2.064 4.289-4.02 8.69-5.573 13.494z" style="clip-rule:evenodd;fill:gray;fill-rule:evenodd;stroke:none;stroke-width:1.22678" transform="translate(10.819 .205) scale(.36284)" />
        </g>
        <g style="display:inline;mix-blend-mode:normal;fill:gray;stroke:none">
            <path d="M188.263 73.889c-.038 2.325.857 4.671-.558 5.87-2.46 2.08-9.834-.404-14.534.277-2.655 18.996-6.128 37.228-8.666 55.06-1.328.276-3.977.03-5.589-.28-1.076-5.563.83-11.268 1.677-16.768 1.938-12.59 3.758-25.456 5.869-38.012-4.737-.806-8.14-.135-13.694-.278-.69-2.022-.512-5.147-.56-6.428 4.898-.449 11.128.014 16.21-.28-.013-.479.208-.724.56-.839 5.901 1.088 12.395 1.58 19.285 1.678zM135.438 71.653c2.322 1.247 5.266.796 7.828 2.236 9.032 5.08 5.503 22.88 2.794 34.098-1.984 8.22-3.758 16.481-7.825 21.521-1.26 1.564-4.037 3.66-5.31 3.913-4.097.812-9.585-1.573-11.458-3.634-4.643-5.106-3.342-20.798-1.678-28.787.942-4.521 2.005-8.99 3.634-13.135 1.565-3.984 3.133-8.902 5.31-11.18 1.622-1.698 5.084-2.317 5.869-4.473.203-.261.507-.424.836-.56zm6.71 17.33c.223-3.017.268-9.855-4.193-9.783-1.642.025-2.991 1.798-4.472 1.955-5.465 11.25-10.807 28.548-7.268 43.602 1.362.968 2.955 1.703 5.032 1.956 6.43-7.357 9.855-23.623 10.9-37.73zM113.08 73.889c1.603 11.478-5.192 26.09-6.708 38.57-.744 6.13 1.496 17.183-5.309 17.048-5.372-.105-6.933-10.678-8.385-15.372-2.037-6.582-4.43-11.487-6.428-17.33-2.57 12.25-4.586 27.057-6.15 38.57-2.146.654-4.483-.17-6.428-.279 1.321-12.182 3.343-25.192 5.311-37.731.88-5.617.074-19.797 6.427-19.564 4.704.171 4.322 6.832 5.59 11.458 2.301 8.385 5.866 16.692 8.666 24.037 1.032-14.899 6.845-25.017 8.105-39.688.606-.616 4.35-.505 5.308.28z" style="clip-rule:evenodd;fill:gray;fill-rule:evenodd;stroke:none;stroke-width:1.16879" transform="matrix(.38084 0 0 .38084 2.892 -.156)" />
        </g>
        <g style="display:inline;mix-blend-mode:normal;fill:gray;stroke:none">
            <g style="fill:gray;stroke:none">
                <path d="M228.346 2.635c.195 2.47-.61 3.841-.279 6.148-2.882.088-5.124-.466-7.546-.837-1.45 2.108-6.492 9.51-5.032 14.813.91 3.305 7.429 3.927 10.9 7.267 6.073 5.842 5.188 23.188-.28 29.066-2.276 2.448-11.396 6.596-15.371.839-2.1-3.042-1.45-6.957-3.074-11.459 1.644-.363 3.47-1.863 5.31-1.118 1.75 2.163 1.468 6.358 3.074 8.665 8.095 1.217 10.47-14.501 6.428-20.123-3.038-4.228-13.03-4.713-13.975-12.297-.266-2.132.157-5.434.839-7.826 2.342-8.226 6.973-18.11 19.006-13.138zM200.955 3.194c-2.89 20.216-3.73 42.479-7.825 61.488-.756-.519-3.41.344-4.193-.838-2.077-8.842 1.396-21.637 2.236-32.702.741-9.761 1.825-19.058 3.355-27.39v-.838c2.682-.412 4.47.81 6.427.28z" style="clip-rule:evenodd;fill:gray;fill-rule:evenodd;stroke:none;stroke-width:1.16879" transform="matrix(.38084 0 0 .38084 2.304 -.494)" />
            </g>
            <g style="fill:gray;stroke:none">
                <path d="M156.007 7.666c-.351 2.536-2.517 3.26-3.354 5.31-2.373-1.166-3.71-3.368-6.148-4.47-2.478 1.064-8.875 9.41-6.987 14.253.587 1.506 3.288 2.189 5.31 3.633 4.578 3.272 8.04 8.11 8.107 15.652.05 5.937-1.783 15.313-4.473 19.285-3.075 4.54-11.34 6.166-15.372 0-2.796-4.276-2.133-9.22-3.634-15.094 1.656-.676 4.546-1.81 6.149-.837 1.436 4.804.809 11.675 5.03 13.694 3.923-3.279 6.227-11.672 5.59-19.284-.807-9.67-13.179-7.44-13.695-17.608-.275-5.424 2.89-12.413 6.709-16.49 2.404-2.567 5.37-4.733 10.062-3.633 2.261 1.837 4.792 3.404 6.706 5.589zM122.469 6.549c-.877 20.55-1.065 41.791-4.472 59.81-1.65-.214-4.31.586-4.751-.838-.302-12.09.52-25.721 1.677-38.57.617-6.853.757-13.12 1.4-20.124 1.912-.498 4.002-.007 6.146-.278zM100.11 4.593c-1.164 13.763.02 26.783-.56 39.968-.31 7.054.016 14.324-1.677 19.844-1.362-.129-3.274.291-4.193-.28-1.575-7.402-1.093-15.522-.838-25.992-4.164.248-6.47.3-10.341.56-.9 8.976-1.08 18.671-3.075 26.551-1.191-.114-2.88.27-3.634-.28-1.749-18.029.183-40.818 2.517-58.975 2.317-.527 3.564.21 6.429.28-.876 8.544-2.106 16.555-1.957 25.434 2.125.886 6.177.45 9.784.559.706-10.348-.013-18.207 1.116-27.39 1.404-1.305 5.093.027 6.429-.279zM56.509 11.86c-2.405 14.88-.116 38.334-3.913 53.103-1.659-.48-3.302.261-4.191-.56-1.26-17.402.192-37.626 1.396-51.986-4.785-.033-9.664-.145-14.813-1.398-.85-2.13.33-4.984.278-6.426 11.783 2.45 24.09-.236 36.614-.28.827 1.137 1.724 5.377.28 6.15-3.844 1.829-11.601.629-15.651 1.397z" style="clip-rule:evenodd;fill:gray;fill-rule:evenodd;stroke:none;stroke-width:1.16879" transform="matrix(.38084 0 0 .38084 2.304 -.494)" />
            </g>
        </g>
    </symbol>
    <symbol id="logo-icon" viewBox="0 0 180 180" aria-label="icon TINALS de 180x180">
        <!-- logo-tinals-2018-icon-180x180.svg - 180x180 -->
        <g style="display:inline;opacity:1;mix-blend-mode:normal;fill:#ffffff" transform="matrix(0.43000125,0,0,0.43000125,34.371207,26.214514)">
            <g transform="matrix(1.049616,0,0,1.0496157,-5.6320986,-4.6300912)" style="fill:#ffffff">
                <path style="clip-rule:evenodd;fill:#ffffff;fill-rule:evenodd;stroke-width:1.16879" d="m 195.26366,233.34421 c -0.3705,2.51759 -2.57251,3.20368 -3.3556,5.30867 -2.33409,-0.11688 -4.37948,-5.00127 -6.98823,-5.02933 -2.05124,-0.0234 -4.1913,3.90262 -5.58801,6.14787 -4.34207,6.97303 -7.83561,16.85169 -7.26757,27.11136 0.31791,5.74814 1.57204,12.13561 4.47299,14.81215 7.04315,-3.57418 8.25519,-12.98415 10.34149,-21.52103 -3.33224,-0.10869 -6.20046,2.51993 -9.50231,3.35444 -0.70945,-1.9554 -2.89977,-3.76234 -1.95889,-5.86852 0.70713,-1.58255 7.11795,-3.7191 8.94595,-4.19129 5.77853,-1.49957 9.99203,2.67536 9.22296,9.22296 -1.1162,9.4836 -8.04598,24.44418 -15.37316,25.71348 -4.307,0.74452 -7.1238,-1.54864 -8.6631,-3.91546 -4.03584,-6.19461 -4.4683,-17.8697 -3.91196,-25.4318 0.42543,-5.81944 2.46499,-13.06597 5.02816,-18.16658 2.42758,-4.82596 6.59901,-10.88265 10.06332,-12.85676 5.89891,-3.36261 10.18722,1.54048 14.53396,5.30984 z" />
                <path style="clip-rule:evenodd;fill:#ffffff;fill-rule:evenodd;stroke-width:1.16879" d="m 161.44342,231.10714 c 0.0877,10.78214 -3.57652,20.96702 -5.58919,31.30267 -1.55332,7.96884 -2.9699,15.8769 -4.19129,24.31678 -1.21905,0.99114 -1.83033,2.4346 -3.63496,2.51524 -5.65696,0.25129 -6.74862,-12.05027 -8.38493,-17.04804 -2.4311,-7.42184 -4.35844,-13.79178 -5.59152,-19.8438 -3.51807,13.05194 -4.77452,28.26731 -8.3826,40.52563 -2.38667,0.47687 -4.43557,-0.90231 -6.1502,-0.83802 2.83082,-14.60527 5.7084,-30.49037 8.38494,-46.11832 0.61362,-3.5917 0.70946,-12.76559 3.63262,-13.97411 5.61371,-2.32123 5.93396,5.99826 6.98822,10.62084 2.4194,10.61967 4.96036,21.15168 8.38493,29.3461 1.36749,-8.24818 3.99612,-19.01863 6.14904,-27.66888 0.81583,-3.28081 1.13023,-6.59433 1.95656,-9.22413 0.26064,-0.83336 1.19334,-3.3147 1.67605,-3.91312 0.0386,-0.0479 -0.39622,-0.6966 0,-0.83803 1.41191,-0.50375 3.48418,0.41843 4.75233,0.83919 z" />
                <path style="clip-rule:evenodd;fill:#ffffff;fill-rule:evenodd;stroke-width:1.16879" d="m 103.86857,230.26911 c 3.91429,0.17533 6.32551,-0.75971 9.22296,2.23591 2.20785,2.28382 3.34626,7.88352 3.63495,12.5774 0.47337,7.75613 -1.50424,14.70929 -3.35561,23.19824 -1.5463,7.09225 -3.66884,15.82783 -7.26756,19.28395 -5.39633,5.18478 -12.621821,1.22373 -14.533969,-4.74882 -2.403042,-7.52119 0.121555,-17.30984 0.840363,-24.59611 0.870753,-8.81973 3.050555,-15.83951 6.147867,-22.0797 2.097979,-1.63282 4.704399,-2.75253 5.310999,-5.87087 z m -0.27934,10.34268 c -3.627941,4.72309 -4.674009,19.82158 -5.588008,27.94938 -0.458169,4.05339 -1.747347,14.28151 1.955387,14.53396 1.631651,0.10987 3.322891,-4.00311 4.191301,-6.42835 4.26259,-11.88081 6.41902,-26.22894 4.75115,-39.68761 -0.18701,0 -0.37284,0 -0.55986,0 -1.12904,1.59774 -3.52391,2.03603 -4.74997,3.63262 z" />
                <path style="clip-rule:evenodd;fill:#ffffff;fill-rule:evenodd;stroke-width:1.16879" d="m 89.894458,230.8278 c -0.04091,2.86004 -0.586736,3.22003 -0.559853,6.15021 -6.060202,-0.54233 -12.413771,-3.26797 -15.931844,1.3967 -1.825658,2.42291 -4.671674,7.19042 -4.191299,10.3415 0.471024,3.09964 4.553625,4.55596 7.546909,7.82508 6.209807,6.78485 8.741418,22.10775 2.234735,31.02332 -1.252947,1.72047 -3.744818,3.94702 -6.985886,4.19247 -8.595318,0.64985 -9.917225,-5.3449 -10.899013,-12.85675 1.394372,-0.60777 3.255094,-1.76371 4.748814,-1.39671 1.188664,2.07345 1.677221,4.84583 2.516416,7.26757 7.334187,2.52109 9.127119,-11.37822 6.987055,-18.44592 -2.351616,-7.77833 -14.270985,-8.57077 -12.856744,-20.12314 0.756211,-6.15488 5.475804,-13.38388 9.504641,-15.6525 5.371781,-3.02719 10.85343,-1.15361 17.886069,0.27817 z" />
            </g>
            <g transform="translate(7.6266172,9.1472582)" style="fill:#ffffff">
                <g transform="matrix(1.049616,0,0,1.0496157,-5.6151908,1.7964806)" style="fill:#ffffff">
                    <path style="clip-rule:evenodd;fill:#ffffff;fill-rule:evenodd;stroke-width:1.16879" d="m 216.01542,142.24122 c -0.17649,2.05943 0.46869,4.9405 -0.55868,6.1502 -5.40334,0.0351 -12.82636,0.25714 -18.72526,-0.55985 -2.9594,4.77335 -3.16043,12.30741 -4.47299,18.72527 5.32737,0.0164 12.14964,-0.89414 17.33091,-1.95657 -0.24312,1.648 1.32305,2.95121 0.55634,4.19247 -4.48701,3.55197 -12.64871,3.85936 -19.00344,4.74999 -1.00049,6.17473 -2.08396,12.26533 -2.79576,18.72643 5.90008,-1.0601 14.11554,-2.19149 20.683,-2.79459 0.4044,1.85604 1.65383,4.48349 0.55986,6.14786 -3.68055,0.41609 -7.01745,1.40605 -10.62202,1.95772 -6.89005,1.05427 -17.07492,4.17729 -17.32622,-5.30983 -0.0456,-1.68188 0.63817,-3.24573 0.83568,-5.03049 1.21673,-10.8733 3.14056,-24.52014 5.59152,-35.49747 0.64518,-2.89861 2.14942,-6.37344 1.39671,-10.34033 7.88352,0.21272 18.44242,-0.0573 26.55035,0.83919 z" />
                    <path style="clip-rule:evenodd;fill:#ffffff;fill-rule:evenodd;stroke-width:1.16879" d="m 149.49813,143.91845 c 2.35863,-0.78193 4.76051,-0.16597 6.70771,0 -1.50658,12.67909 1.2249,25.50427 0.83569,37.17235 4.30818,-11.10122 9.14349,-22.46191 13.13726,-34.65711 0.49207,-1.50657 1.0075,-4.33623 1.67722,-5.03049 1.25178,-1.30086 5.57281,0.0923 6.14903,1.39554 0.38103,0.86724 -1.57787,5.55528 -2.23823,7.82742 -4.20651,14.50124 -9.55258,24.41613 -14.2523,38.84958 -1.53813,4.72544 -2.22772,14.30487 -7.5469,13.69477 -4.54311,-0.52012 -3.39653,-7.80054 -3.63379,-13.4166 -0.68258,-16.2591 -1.0601,-31.25942 -0.83569,-45.83546 z" />
                    <path style="clip-rule:evenodd;fill:#ffffff;fill-rule:evenodd;stroke-width:1.16879" d="m 127.13791,144.47714 c 3.46313,2.54328 7.19861,0.98061 10.62201,3.35443 2.36798,1.64332 3.61157,5.01881 3.91196,9.5023 0.55517,8.27507 -1.101,16.23341 -3.35561,24.59612 -2.14942,7.98522 -3.81027,16.49287 -7.54458,20.40365 -5.04803,5.28062 -12.94908,2.82031 -14.81447,-3.63378 -3.44093,-11.903 0.43012,-36.60197 4.47181,-44.9986 1.48904,-3.09029 5.10997,-6.47629 6.70888,-9.22412 z m 3.35444,6.70771 c -0.9736,1.58605 -2.92783,3.06574 -3.91546,5.03166 -3.16393,6.31266 -5.01647,23.47057 -5.02815,31.30266 -0.007,2.97693 0.17415,10.60916 2.5129,10.90019 2.59941,0.32375 4.59688,-7.07472 5.31101,-9.22296 3.5321,-10.61499 7.06302,-25.40143 4.47065,-36.89186 -1.10569,-0.38219 -1.67957,-1.29968 -3.35095,-1.11969 z" />
                    <path style="clip-rule:evenodd;fill:#ffffff;fill-rule:evenodd;stroke-width:1.16879" d="m 101.42443,143.63911 c -3.797427,16.97908 -6.082421,35.46825 -9.783995,52.54552 4.97556,-0.38454 11.038095,-1.79294 17.051555,-1.39789 0.41726,1.7076 1.24594,4.44376 0.27817,5.86852 -8.48427,0.42662 -23.601479,7.34003 -24.035102,-5.03166 -0.132073,-3.74716 1.596574,-8.84544 2.515247,-13.41426 2.40538,-11.96261 4.634272,-28.05459 7.545741,-39.12892 1.770729,-1.41658 4.035854,0.80997 6.428384,0.55869 z" />
                </g>
                <path style="clip-rule:evenodd;fill:#ffffff;fill-rule:evenodd;stroke-width:1.22678" d="m 45.989982,208.49418 c -1.791109,-0.0552 -3.991961,0.7962 -5.573291,0 -1.624262,-6.88225 -1.431657,-15.58508 -2.053638,-23.46839 -3.066964,-0.74712 -6.673717,-0.95322 -9.973769,-1.46725 -3.994415,8.71755 -7.192647,17.33204 -9.095391,27.57692 -2.47934,0.0148 -4.810232,-0.94585 -6.4529,-0.88083 2.80566,-15.79487 8.858626,-31.4965 15.548291,-45.76401 1.863488,-3.9797 4.259399,-11.20546 7.920129,-12.32059 9.721052,-2.96639 7.49689,15.67463 8.213332,24.64243 -0.224501,1.30039 1.225559,0.92621 1.467237,1.75797 -1.3053,9.3383 1.050128,18.20306 0,29.92375 z M 31.0281,176.81246 c 2.176319,0.21345 4.956216,1.24274 6.747323,0.8796 -0.794958,-4.92555 -0.42815,-9.90997 -1.174033,-14.37425 -2.064682,4.28885 -4.020178,8.68932 -5.57329,13.49465 z" transform="translate(2.5062841,1.8607883)" />
            </g>
            <g transform="matrix(1.049616,0,0,1.0496157,-11.713392,-12.855054)" style="fill:#ffffff">
                <path style="clip-rule:evenodd;fill:#ffffff;fill-rule:evenodd;stroke-width:1.16879" d="m 188.26326,73.888539 c -0.0386,2.325906 0.85672,4.671671 -0.55868,5.869699 -2.45915,2.080447 -9.83308,-0.403249 -14.53397,0.27817 -2.65433,18.995245 -6.12799,37.227282 -8.66544,55.059592 -1.32775,0.27584 -3.97742,0.0303 -5.58918,-0.27935 -1.07646,-5.56346 0.82985,-11.26834 1.67722,-16.76869 1.93786,-12.5891 3.75768,-25.456355 5.86851,-38.011552 -4.73712,-0.806469 -8.14064,-0.13558 -13.69359,-0.27817 -0.68959,-2.022026 -0.51193,-5.14738 -0.55985,-6.428378 4.89725,-0.448819 11.12809,0.014 16.21002,-0.28051 -0.0129,-0.478039 0.20803,-0.723488 0.55984,-0.838028 5.90125,1.088148 12.39508,1.579037 19.28512,1.677217 z" />
                <path style="clip-rule:evenodd;fill:#ffffff;fill-rule:evenodd;stroke-width:1.16879" d="m 135.4384,71.652643 c 2.32122,1.247098 5.26542,0.795948 7.82742,2.235896 9.03245,5.079591 5.50269,22.880344 2.7946,34.098431 -1.98462,8.22013 -3.75886,16.48118 -7.8251,21.52102 -1.26113,1.56385 -4.03701,3.66067 -5.30983,3.91312 -4.0978,0.81232 -9.58528,-1.5732 -11.45886,-3.63377 -4.64246,-5.10647 -3.34159,-20.79871 -1.67723,-28.78743 0.94205,-4.520897 2.00448,-8.990374 3.63379,-13.134916 1.56502,-3.984423 3.13237,-8.901544 5.30984,-11.18069 1.62228,-1.697087 5.08426,-2.316556 5.86852,-4.471812 0.20337,-0.26181 0.50726,-0.424269 0.83685,-0.559849 z m 6.70888,17.329719 c 0.22324,-3.016655 0.26882,-9.854113 -4.19246,-9.782813 -1.64216,0.0257 -2.99095,1.798777 -4.47181,1.955397 -5.46528,11.24965 -10.80668,28.547814 -7.26757,43.601894 1.36164,0.96776 2.95472,1.70292 5.03166,1.95655 6.43071,-7.35755 9.85527,-23.62367 10.90018,-37.731028 z" />
                <path style="clip-rule:evenodd;fill:#ffffff;fill-rule:evenodd;stroke-width:1.16879" d="m 113.07934,73.888539 c 1.6036,11.478739 -5.19178,26.089854 -6.7077,38.570241 -0.74335,6.13033 1.49605,17.18362 -5.30867,17.04804 -5.371784,-0.10524 -6.933294,-10.6781 -8.384935,-15.37198 -2.037209,-6.58149 -4.429733,-11.48692 -6.428373,-17.329727 -2.56901,12.248977 -4.585182,27.056427 -6.14903,38.570227 -2.147076,0.65336 -4.483496,-0.17064 -6.428372,-0.27934 1.320739,-12.18235 3.342754,-25.19221 5.311004,-37.731037 0.880103,-5.617236 0.07363,-19.797051 6.427204,-19.564461 4.70323,0.171819 4.321035,6.832778 5.590347,11.458859 2.300188,8.384942 5.865019,16.691559 8.665444,24.036279 1.032051,-14.898637 6.844471,-25.016897 8.104421,-39.687611 0.60661,-0.615949 4.35027,-0.504919 5.30866,0.28051 z" />
            </g>
            <g transform="translate(-5.2121743,-13.720888)" style="fill:#ffffff">
                <g transform="matrix(1.049616,0,0,1.0496157,-8.1214744,-0.06430767)" style="fill:#ffffff">
                    <path style="clip-rule:evenodd;fill:#ffffff;fill-rule:evenodd;stroke-width:1.16879" d="m 228.34566,2.6354198 c 0.19519,2.4696636 -0.61012,3.8406601 -0.27818,6.147862 -2.88224,0.08766 -5.124,-0.4663492 -7.5469,-0.8368575 -1.44931,2.1073367 -6.49149,9.5093157 -5.03167,14.8121377 0.90933,3.305353 7.42886,3.927151 10.90019,7.267567 6.07305,5.841638 5.18828,23.187724 -0.27934,29.065593 -2.27682,2.448626 -11.39692,6.596678 -15.37201,0.839196 -2.10031,-3.042374 -1.45046,-6.956669 -3.07392,-11.458867 1.6445,-0.363495 3.47015,-1.863059 5.30984,-1.118537 1.74969,2.16344 1.46801,6.358245 3.07392,8.665446 8.09508,1.216716 10.47007,-14.501239 6.42838,-20.123143 -3.0377,-4.227531 -13.03089,-4.712581 -13.97528,-12.296891 -0.26532,-2.131882 0.15779,-5.433728 0.8392,-7.826251 2.34226,-8.225979 6.97302,-18.1104783 19.00577,-13.1372552 z" />
                    <path style="clip-rule:evenodd;fill:#ffffff;fill-rule:evenodd;stroke-width:1.16879" d="m 200.95495,3.1941038 c -2.88926,20.2154772 -3.7308,42.4786832 -7.82508,61.4879642 -0.75621,-0.518944 -3.41054,0.343627 -4.19248,-0.838025 -2.07694,-8.841934 1.39555,-21.636732 2.23592,-32.701714 0.74101,-9.761776 1.82448,-19.058371 3.35444,-27.3907102 0,-0.2793415 0,-0.558684 0,-0.8380255 2.68238,-0.4114163 4.47064,0.8099745 6.4272,0.2805105 z" />
                </g>
                <g transform="matrix(1.049616,0,0,1.0496157,-8.1214744,-0.06430767)" style="fill:#ffffff">
                    <path style="clip-rule:evenodd;fill:#ffffff;fill-rule:evenodd;stroke-width:1.16879" d="m 156.00738,7.6659138 c -0.35182,2.5362842 -2.51759,3.2609382 -3.35444,5.3110032 -2.37267,-1.166457 -3.70977,-3.3684657 -6.14788,-4.4718087 -2.47784,1.064772 -8.87466,9.4111367 -6.98705,14.2534537 0.58674,1.506578 3.28782,2.189154 5.30984,3.633784 4.57816,3.271457 8.04014,8.109099 8.10677,15.651333 0.0502,5.937478 -1.78242,15.313551 -4.47299,19.285117 -3.0751,4.540769 -11.33966,6.166562 -15.37199,0 -2.79577,-4.275452 -2.13305,-9.220623 -3.63378,-15.093818 1.65618,-0.675563 4.54661,-1.810464 6.14902,-0.836857 1.43645,4.803747 0.80881,11.675093 5.0305,13.693601 3.92247,-3.278469 6.22616,-11.671586 5.59034,-19.283947 -0.80763,-9.67061 -13.17933,-7.44055 -13.69593,-17.607897 -0.27467,-5.424377 2.89042,-12.412601 6.70888,-16.4905277 2.40421,-2.5666734 5.36944,-4.73245056 10.06215,-3.6326145 2.26162,1.8373467 4.79207,3.4046999 6.70656,5.589178 z" />
                    <path style="clip-rule:evenodd;fill:#ffffff;fill-rule:evenodd;stroke-width:1.16879" d="m 122.4688,6.5485458 c -0.8766,20.5509212 -1.06477,41.7914322 -4.4718,59.8107432 -1.65035,-0.213889 -4.31053,0.585567 -4.75117,-0.838026 -0.30154,-12.091184 0.52012,-25.72167 1.67723,-38.570233 0.61712,-6.852646 0.75738,-13.120892 1.39904,-20.1243117 1.91333,-0.4979061 4.00312,-0.007 6.1467,-0.2781725 z" />
                    <path style="clip-rule:evenodd;fill:#ffffff;fill-rule:evenodd;stroke-width:1.16879" d="m 100.10975,4.5931513 c -1.164119,13.7625597 0.0211,26.7829367 -0.55985,39.9681117 -0.30973,7.053679 0.0164,14.323583 -1.677227,19.843801 -1.361638,-0.128567 -3.273796,0.291029 -4.192474,-0.279342 -1.575535,-7.403147 -1.092823,-15.522765 -0.838025,-25.992831 -4.164417,0.247784 -6.470449,0.30038 -10.341498,0.559853 -0.898804,8.976345 -1.079967,18.671499 -3.0751,26.551515 -1.191001,-0.114543 -2.878741,0.269992 -3.633783,-0.279342 -1.748518,-18.029831 0.1835,-40.818995 2.517584,-58.9762252 2.316552,-0.5271261 3.563656,0.2103836 6.428372,0.2805125 -0.875427,8.5438907 -2.106168,16.5548097 -1.956562,25.4341457 2.124869,0.885947 6.177081,0.448818 9.783982,0.558684 0.705953,-10.34851 -0.01286,-18.207488 1.116199,-27.3907092 1.403729,-1.3043757 5.092453,0.02805 6.428382,-0.2781735 z" />
                    <path style="clip-rule:evenodd;fill:#ffffff;fill-rule:evenodd;stroke-width:1.16879" d="m 56.509014,11.859549 c -2.40538,14.879928 -0.115711,38.334137 -3.913126,53.10303 -1.65852,-0.479206 -3.301845,0.26181 -4.191298,-0.558684 -1.258793,-17.403357 0.192851,-37.627015 1.39671,-51.986831 -4.785047,-0.03272 -9.664766,-0.14493 -14.813308,-1.397878 -0.850883,-2.1295444 0.3296,-4.9837413 0.278174,-6.4260347 11.782622,2.4497946 24.090032,-0.2360966 36.613669,-0.2793425 0.827509,1.1360689 1.723974,5.3764573 0.280513,6.1490312 -3.844167,1.829163 -11.60146,0.62881 -15.651334,1.396709 z" />
                </g>
            </g>
        </g>
        <g style="stroke:#ffffff;stroke-opacity:1" transform="translate(-1.4868164,-1.6271439)">
            <g transform="matrix(1.1045279,0,0,1.1045279,-11.757913,-10.382046)" style="stroke:#ffffff;stroke-opacity:1">
                <path style="opacity:1;fill:none;fill-opacity:1;stroke:#ffffff;stroke-width:1;stroke-linecap:round;stroke-dasharray:none;stroke-opacity:1" d="m 127.59906,136.50737 c 0,0 21.14777,-17.20318 22.00835,-44.197289 C 150.35033,69.006783 138.67918,55.57266 138.67918,55.57266 v 0" />
                <path style="opacity:1;fill:none;fill-opacity:1;stroke:#ffffff;stroke-width:1;stroke-linecap:round;stroke-dasharray:none;stroke-opacity:1" d="m 141.3445,46.807394 c 5.3033,7.147928 16.83221,22.135517 15.79461,44.73219 -1.0376,22.596676 -13.86352,43.608116 -28.27466,53.522986" />
                <path style="opacity:1;fill:none;fill-opacity:1;stroke:#ffffff;stroke-width:1;stroke-linecap:round;stroke-dasharray:none;stroke-opacity:1" d="m 143.41707,38.057971 c 12.21372,11.804219 20.9299,26.256959 21.70811,52.249183 0.81522,27.228256 -15.65217,52.336956 -39.13044,65.869566" />
            </g>
            <g transform="matrix(-1.1045279,0,0,1.1045279,193.14357,-9.8316531)" style="stroke:#ffffff;stroke-opacity:1">
                <path style="opacity:1;fill:none;fill-opacity:1;stroke:#ffffff;stroke-width:1;stroke-linecap:round;stroke-dasharray:none;stroke-opacity:1" d="m 127.59906,136.50737 c 0,0 21.14777,-17.20318 22.00835,-44.197289 C 150.35033,69.006783 138.67918,55.57266 138.67918,55.57266 v 0" />
                <path style="opacity:1;fill:none;fill-opacity:1;stroke:#ffffff;stroke-width:1;stroke-linecap:round;stroke-dasharray:none;stroke-opacity:1" d="m 141.3445,46.807394 c 5.3033,7.147928 16.83221,22.135517 15.79461,44.73219 -1.0376,22.596676 -13.86352,43.608116 -28.27466,53.522986" />
                <path style="opacity:1;fill:none;fill-opacity:1;stroke:#ffffff;stroke-width:1;stroke-linecap:round;stroke-dasharray:none;stroke-opacity:1" d="m 143.41707,38.057971 c 12.21372,11.804219 20.9299,26.256959 21.70811,52.249183 0.81522,27.228256 -15.65217,52.336956 -39.13044,65.869566" />
            </g>
        </g>
    </symbol>
    <symbol id="flag-fr" viewBox="0 0 48 32" aria-label="flag France 48x32">
        <!-- https://www.kortic.com/drapeaux-internationaux-vectoriels-norme-3166-1-alpha-2.html : FR-FRA-250 -->
        <path fill="#fff" d="M0 0h48v32H0z" />
        <path fill="#0052b4" d="M0 0h16v32H0z" />
        <path fill="#d80027" d="M32 0h16v32H32z" />
    </symbol>
    <symbol id="flag-en" viewBox="0 0 48 32" aria-label="flag United-Kingdom 48x32">
        <!-- https://www.kortic.com/drapeaux-internationaux-vectoriels-norme-3166-1-alpha-2.html : GB-GBR-826 -->
        <path fill="#2e52b2" d="M0 0h48v32H0z" />
        <path fill="#fff" d="M48 0v4.24L39.36 10H48v12h-8.64L48 27.76V32h-4.24L30 22.82V32H18v-9.18L4.24 32H0v-4.24L8.64 22H0V10h8.64L0 4.24V0h4.24L18 9.16V0h12v9.16L43.76 0H48z" />
        <g fill="#d80027">
            <path d="M27 0h-6v13H0v6h21v13h6V19h21v-6H27V0z" />
            <path d="M0 0v2.82L10.76 10H15L0 0zm48 0v2.82L37.24 10H33L48 0z" />
            <path d="M0 0v2.82L10.76 10H15L0 0zm48 0v2.82L37.24 10H33L48 0zM0 32v-2.82L10.76 22H15L0 32zm48 0v-2.82L37.24 22H33l15 10z" />
        </g>
    </symbol>
</svg>