<?xml version="1.0" encoding="UTF-8" standalone="no"?>
<svg
   version="1.1"
   x="0px"
   y="0px"
   width="48"
   height="48"
   viewBox="0 0 48 48"
   xml:space="preserve"
   id="favicon.svg"
   sodipodi:docname="favicon-maskable-48x48.svg"
   inkscape:export-filename="favicon-maskable-48x48.png"
   inkscape:export-xdpi="96"
   inkscape:export-ydpi="96"
   inkscape:version="1.4.3 (1:1.4.3+202512261035+0d15f75042)"
   xmlns:inkscape="http://www.inkscape.org/namespaces/inkscape"
   xmlns:sodipodi="http://sodipodi.sourceforge.net/DTD/sodipodi-0.dtd"
   xmlns="http://www.w3.org/2000/svg"
   xmlns:svg="http://www.w3.org/2000/svg"><sodipodi:namedview
     id="namedview1"
     pagecolor="#ffffff"
     bordercolor="#000000"
     borderopacity="0.25"
     inkscape:showpageshadow="2"
     inkscape:pageopacity="0.0"
     inkscape:pagecheckerboard="0"
     inkscape:deskcolor="#d1d1d1"
     showgrid="false"
     inkscape:zoom="24.645833"
     inkscape:cx="23.979713"
     inkscape:cy="24"
     inkscape:window-width="2560"
     inkscape:window-height="1465"
     inkscape:window-x="0"
     inkscape:window-y="32"
     inkscape:window-maximized="1"
     inkscape:current-layer="favicon.svg" /><defs
     id="defs1" /><rect
     style="opacity:1;fill:#000000;stroke-width:0.09375"
     id="rect1"
     width="48"
     height="48"
     x="0"
     y="0" /><ellipse
     style="display:inline;fill:#999999;fill-opacity:1;stroke-width:0.21875;stroke-dasharray:none"
     id="path19-5"
     cx="24.328114"
     cy="24.328096"
     rx="19.359388"
     ry="19.359375" /><circle
     style="display:inline;fill:#2d91d0;fill-opacity:1;stroke-width:0.21875;stroke-dasharray:none"
     id="path19"
     cx="23.671875"
     cy="23.671875"
     r="19.359375" /><circle
     style="fill:#ffffff;stroke-width:0.129062"
     id="path20"
     cx="23.671875"
     cy="23.671875"
     r="0.64531243" /><path
     style="fill:none;fill-opacity:1;stroke:#ffffff;stroke-width:0.241615;stroke-linecap:round;stroke-dasharray:none;stroke-opacity:1"
     d="m 32.245122,34.667783 c 0,0 5.109628,-4.156556 5.317558,-10.678749 0.1795,-5.630437 -2.64043,-8.87633 -2.64043,-8.87633 v 0"
     id="path53" /><path
     style="fill:none;fill-opacity:1;stroke:#ffffff;stroke-width:0.241615;stroke-linecap:round;stroke-dasharray:none;stroke-opacity:1"
     d="m 35.566232,12.994881 c 1.28136,1.72705 4.066923,5.348283 3.816223,10.807989 -0.2507,5.459707 -3.34964,10.536395 -6.831595,12.93198"
     id="path54" /><path
     style="fill:none;fill-opacity:1;stroke:#ffffff;stroke-width:0.241615;stroke-linecap:round;stroke-dasharray:none;stroke-opacity:1"
     d="m 36.066997,10.880885 c 2.951025,2.852082 5.056988,6.344087 5.245016,12.624211 0.19697,6.578767 -3.781805,12.645417 -9.454518,15.915107"
     id="path55" /><path
     style="fill:none;fill-opacity:1;stroke:#ffffff;stroke-width:0.241615;stroke-linecap:round;stroke-dasharray:none;stroke-opacity:1"
     d="m 15.407507,34.78818 c 0,0 -5.109628,-4.156553 -5.317557,-10.678749 -0.1795015,-5.630436 2.640429,-8.876328 2.640429,-8.876328 v 0"
     id="path53-6" /><path
     style="fill:none;fill-opacity:1;stroke:#ffffff;stroke-width:0.241615;stroke-linecap:round;stroke-dasharray:none;stroke-opacity:1"
     d="m 12.086396,13.115279 c -1.281359,1.72705 -4.0669217,5.348284 -3.816222,10.807989 0.2507008,5.459707 3.349641,10.536394 6.831595,12.931982"
     id="path54-8" /><path
     style="fill:none;fill-opacity:1;stroke:#ffffff;stroke-width:0.241615;stroke-linecap:round;stroke-dasharray:none;stroke-opacity:1"
     d="M 11.585632,11.001283 C 8.6346075,13.853365 6.528644,17.345371 6.3406162,23.625494 6.1436465,30.204262 10.122423,36.270913 15.795136,39.5406"
     id="path55-9" /><path
     style="clip-rule:evenodd;mix-blend-mode:normal;fill:#ffffff;fill-rule:evenodd;stroke-width:0.115394"
     d="m 30.548037,32.747152 c -0.03658,0.24856 -0.253982,0.316298 -0.331297,0.524125 -0.230443,-0.01155 -0.432385,-0.493775 -0.689945,-0.496545 -0.20252,-0.0022 -0.413808,0.385306 -0.551705,0.606978 -0.428693,0.688445 -0.773608,1.663762 -0.717525,2.676698 0.03139,0.567512 0.155207,1.198144 0.441617,1.4624 0.695368,-0.352878 0.815033,-1.281923 1.021013,-2.124765 -0.32899,-0.01073 -0.61217,0.248792 -0.93816,0.331182 -0.07005,-0.193057 -0.286292,-0.371455 -0.1934,-0.579397 0.06981,-0.156245 0.702752,-0.367188 0.88323,-0.413805 0.570512,-0.148053 0.986512,0.264137 0.910583,0.91058 -0.110203,0.936312 -0.794381,2.413367 -1.517791,2.538685 -0.42523,0.07351 -0.703332,-0.152895 -0.855305,-0.386573 -0.398457,-0.611592 -0.441155,-1.76427 -0.386227,-2.510875 0.042,-0.574552 0.243367,-1.29 0.49643,-1.793582 0.239672,-0.476465 0.651517,-1.074443 0.993547,-1.269345 0.5824,-0.33199 1.005783,0.152092 1.434935,0.524239 z"
     id="path1-6" /><path
     style="clip-rule:evenodd;mix-blend-mode:normal;fill:#ffffff;fill-rule:evenodd;stroke-width:0.115394"
     d="m 27.208973,32.526288 c 0.0086,1.064517 -0.353108,2.070067 -0.55182,3.090505 -0.153358,0.786762 -0.293218,1.567522 -0.413805,2.40079 -0.120358,0.09785 -0.180708,0.240367 -0.35888,0.248327 -0.558508,0.0248 -0.666288,-1.18972 -0.82784,-1.683147 -0.240022,-0.732758 -0.430309,-1.36166 -0.55205,-1.959173 -0.347339,1.288615 -0.471388,2.790823 -0.827612,4.001085 -0.235636,0.04708 -0.437923,-0.08909 -0.607209,-0.08274 0.279487,-1.441975 0.56359,-3.010308 0.827844,-4.553253 0.06058,-0.354605 0.07004,-1.260342 0.358648,-1.37966 0.55424,-0.229172 0.585858,0.592208 0.689945,1.048595 0.238866,1.048478 0.489736,2.0883 0.827841,2.897333 0.135013,-0.81434 0.394538,-1.877705 0.607095,-2.731743 0.08055,-0.323912 0.111588,-0.651055 0.19317,-0.910695 0.02573,-0.08228 0.117818,-0.32726 0.165475,-0.386342 0.0038,-0.0047 -0.03912,-0.06878 0,-0.08274 0.1394,-0.04973 0.343993,0.04131 0.469198,0.08285 z"
     id="path13-4" /><path
     style="clip-rule:evenodd;mix-blend-mode:normal;fill:#ffffff;fill-rule:evenodd;stroke-width:0.115394"
     d="m 21.52462,32.44355 c 0.386457,0.0173 0.624517,-0.07501 0.910582,0.22075 0.21798,0.22548 0.330375,0.778338 0.358878,1.241763 0.04673,0.765762 -0.148514,1.452245 -0.3313,2.290357 -0.152666,0.700215 -0.362223,1.562678 -0.717525,1.9039 -0.532778,0.511893 -1.246149,0.120818 -1.434935,-0.46885 -0.237251,-0.742565 0.012,-1.708998 0.08297,-2.428368 0.08597,-0.87077 0.301181,-1.563832 0.606977,-2.179924 0.207134,-0.161208 0.464465,-0.271755 0.524354,-0.579628 z m -0.02758,1.02113 c -0.358187,0.466307 -0.461465,1.95698 -0.551704,2.759435 -0.04523,0.40019 -0.172515,1.41001 0.193055,1.434935 0.161093,0.01085 0.328068,-0.395227 0.413807,-0.63467 0.420844,-1.17299 0.633748,-2.589577 0.46908,-3.918348 -0.01846,0 -0.03681,0 -0.05528,0 -0.11147,0.157743 -0.347915,0.201015 -0.468963,0.358648 z"
     id="path12-9" /><path
     style="clip-rule:evenodd;mix-blend-mode:normal;fill:#ffffff;fill-rule:evenodd;stroke-width:0.115394"
     d="m 20.14496,32.498708 c -0.004,0.282372 -0.05793,0.317912 -0.05527,0.60721 -0.598323,-0.05354 -1.22561,-0.322645 -1.572948,0.137895 -0.180248,0.239212 -0.461233,0.70991 -0.413807,1.021012 0.0465,0.306027 0.449579,0.44981 0.745105,0.77257 0.613093,0.669868 0.863039,2.182693 0.220634,3.062925 -0.123702,0.169863 -0.369724,0.389688 -0.689714,0.41392 -0.848614,0.06416 -0.979126,-0.5277 -1.076057,-1.269343 0.137666,-0.06 0.321375,-0.174129 0.468849,-0.137897 0.117357,0.204712 0.165592,0.47843 0.248446,0.717525 0.724102,0.248908 0.901118,-1.12337 0.68983,-1.82116 -0.232174,-0.767952 -1.408971,-0.84619 -1.269343,-1.986753 0.07466,-0.607669 0.540624,-1.321387 0.938391,-1.545367 0.530355,-0.298875 1.071557,-0.113895 1.765888,0.02746 z"
     id="path6-5" /><path
     style="clip-rule:evenodd;mix-blend-mode:normal;fill:#ffffff;fill-rule:evenodd;stroke-width:0.115394"
     d="m 33.347563,25.119765 c -0.01743,0.203328 0.04627,0.487775 -0.05516,0.607208 -0.533471,0.0035 -1.266343,0.02539 -1.84874,-0.05528 -0.29218,0.471273 -0.31203,1.215108 -0.441618,1.848743 0.52597,0.0015 1.19953,-0.08828 1.711078,-0.193172 -0.024,0.162707 0.130625,0.291374 0.05493,0.413922 -0.443002,0.350685 -1.248805,0.381035 -1.876207,0.468965 -0.09878,0.60963 -0.205748,1.210955 -0.276023,1.848855 0.582513,-0.104662 1.393623,-0.216362 2.042028,-0.275907 0.03992,0.183245 0.163282,0.442655 0.05528,0.606977 -0.36338,0.04108 -0.692833,0.138818 -1.04871,0.193285 -0.680253,0.104088 -1.685803,0.412423 -1.710615,-0.52424 -0.0045,-0.16605 0.06301,-0.32045 0.08251,-0.496657 0.120127,-1.073518 0.310067,-2.420868 0.55205,-3.504658 0.0637,-0.28618 0.21221,-0.629247 0.137895,-1.020897 0.77834,0.021 1.820818,-0.0056 2.621313,0.08285 z"
     id="path11-8" /><path
     style="clip-rule:evenodd;mix-blend-mode:normal;fill:#ffffff;fill-rule:evenodd;stroke-width:0.115394"
     d="m 26.780322,25.285357 c 0.232868,-0.0772 0.470005,-0.0164 0.662253,0 -0.148745,1.251803 0.120935,2.51803 0.08251,3.670018 0.425345,-1.096023 0.902735,-2.21766 1.29704,-3.42169 0.04858,-0.148743 0.09947,-0.428115 0.16559,-0.496658 0.123588,-0.128433 0.550203,0.0091 0.607093,0.13778 0.03762,0.08562 -0.155783,0.548473 -0.22098,0.7728 -0.415308,1.431705 -0.943125,2.4106 -1.407128,3.83561 -0.15186,0.466543 -0.21994,1.412318 -0.745102,1.352083 -0.44854,-0.05135 -0.33534,-0.770145 -0.358765,-1.324618 -0.06739,-1.605257 -0.104663,-3.086237 -0.08251,-4.525325 z"
     id="path7-7" /><path
     style="clip-rule:evenodd;mix-blend-mode:normal;fill:#ffffff;fill-rule:evenodd;stroke-width:0.115394"
     d="m 24.572704,25.340517 c 0.341913,0.251095 0.710716,0.09682 1.048708,0.33118 0.23379,0.162245 0.35657,0.495508 0.386228,0.938163 0.05481,0.816995 -0.108703,1.60272 -0.3313,2.428368 -0.212213,0.78838 -0.376188,1.628337 -0.744875,2.014447 -0.49839,0.521355 -1.278459,0.278447 -1.462629,-0.358763 -0.339722,-1.17518 0.04247,-3.613702 0.441501,-4.4427 0.147013,-0.305105 0.504507,-0.639402 0.662367,-0.910695 z m 0.331182,0.66225 c -0.09612,0.156591 -0.289064,0.30268 -0.386573,0.496775 -0.312373,0.623248 -0.495274,2.317243 -0.496428,3.090503 -6.5e-4,0.293912 0.0172,1.04744 0.248099,1.076175 0.25664,0.03196 0.453849,-0.698485 0.524355,-0.910583 0.348724,-1.048015 0.697331,-2.507875 0.441386,-3.642322 -0.109165,-0.03774 -0.165823,-0.128318 -0.330839,-0.110548 z"
     id="path16-1" /><path
     style="clip-rule:evenodd;mix-blend-mode:normal;fill:#ffffff;fill-rule:evenodd;stroke-width:0.115394"
     d="m 22.034016,25.257777 c -0.374919,1.676343 -0.600515,3.501773 -0.965971,5.187808 0.491235,-0.03796 1.089789,-0.177018 1.683496,-0.138015 0.0412,0.168592 0.123012,0.438733 0.02746,0.5794 -0.83765,0.04212 -2.330169,0.72468 -2.37298,-0.496775 -0.01304,-0.369955 0.157629,-0.873307 0.248329,-1.324387 0.237483,-1.181065 0.45754,-2.769823 0.74499,-3.86319 0.174823,-0.139858 0.398458,0.07997 0.634672,0.05516 z"
     id="path14-7" /><path
     style="clip-rule:evenodd;mix-blend-mode:normal;fill:#ffffff;fill-rule:evenodd;stroke-width:0.115394"
     d="m 17.110277,30.693912 c -0.168476,-0.0052 -0.375495,0.07489 -0.524239,0 -0.152783,-0.647365 -0.134666,-1.465975 -0.193172,-2.207502 -0.288486,-0.07027 -0.627748,-0.08966 -0.93816,-0.138013 -0.375725,0.819998 -0.67656,1.630301 -0.855538,2.59396 -0.233212,0.0015 -0.452463,-0.08897 -0.606977,-0.08285 0.263909,-1.48571 0.833267,-2.962648 1.462515,-4.30469 0.175286,-0.37434 0.400651,-1.054018 0.74499,-1.158908 0.914389,-0.279027 0.705177,1.474398 0.772569,2.317935 -0.02112,0.122318 0.115279,0.08712 0.138012,0.16536 -0.122781,0.878385 0.09878,1.71223 0,2.81471 z m -1.407355,-2.98007 c 0.204709,0.02008 0.466195,0.116895 0.634671,0.08274 -0.07478,-0.463313 -0.04027,-0.93216 -0.110433,-1.352083 -0.194209,0.403423 -0.378149,0.817343 -0.524238,1.269345 z"
     id="path17-2" /><path
     style="clip-rule:evenodd;mix-blend-mode:normal;fill:#ffffff;fill-rule:evenodd;stroke-width:0.115394"
     d="m 29.3166,16.13274 c -0.0038,0.229636 0.08458,0.461233 -0.05516,0.579514 -0.242792,0.205402 -0.970819,-0.03981 -1.434937,0.02746 -0.26206,1.875396 -0.605015,3.675441 -0.855538,5.43602 -0.131087,0.02723 -0.392687,0.003 -0.551817,-0.02758 -0.106278,-0.549279 0.08193,-1.11252 0.165592,-1.655569 0.191323,-1.242918 0.370996,-2.513299 0.579396,-3.752871 -0.467695,-0.07962 -0.803723,-0.01338 -1.351965,-0.02746 -0.06808,-0.199634 -0.05054,-0.5082 -0.05527,-0.634673 0.483505,-0.04431 1.098672,0.0014 1.600413,-0.02769 -0.0013,-0.0472 0.02052,-0.07143 0.05527,-0.08274 0.582629,0.107433 1.223765,0.155898 1.904017,0.165592 z"
     id="path5-2" /><path
     style="clip-rule:evenodd;mix-blend-mode:normal;fill:#ffffff;fill-rule:evenodd;stroke-width:0.115394"
     d="m 24.101212,15.91199 c 0.229174,0.123126 0.519854,0.07858 0.7728,0.22075 0.891773,0.501507 0.54328,2.258971 0.27591,3.36653 -0.195941,0.811571 -0.371112,1.627183 -0.77257,2.124765 -0.124511,0.154398 -0.398573,0.361416 -0.524239,0.386341 -0.404574,0.0802 -0.946352,-0.155322 -1.131331,-0.358762 -0.458349,-0.504159 -0.329913,-2.053451 -0.165591,-2.842176 0.09301,-0.446346 0.197901,-0.887616 0.358762,-1.296807 0.154514,-0.39338 0.309259,-0.878846 0.524239,-1.103866 0.160168,-0.167553 0.501969,-0.228712 0.579399,-0.4415 0.02008,-0.02585 0.05008,-0.04189 0.08262,-0.05527 z m 0.662367,1.710959 c 0.02204,-0.297834 0.02654,-0.972894 -0.413922,-0.965855 -0.162129,0.0025 -0.295295,0.177593 -0.4415,0.193057 -0.539586,1.110675 -1.066941,2.818518 -0.717525,4.304804 0.134434,0.09555 0.291718,0.168129 0.496775,0.19317 0.634902,-0.72641 0.973008,-2.33236 1.076172,-3.725176 z"
     id="path3-2" /><path
     style="clip-rule:evenodd;mix-blend-mode:normal;fill:#ffffff;fill-rule:evenodd;stroke-width:0.115394"
     d="m 21.893708,16.13274 c 0.158323,1.133293 -0.512583,2.575845 -0.662251,3.80803 -0.07339,0.605245 0.147705,1.696535 -0.524124,1.683149 -0.530355,-0.01039 -0.684522,-1.054247 -0.827842,-1.517672 -0.201134,-0.649788 -0.437347,-1.134101 -0.634672,-1.71096 -0.253638,1.209339 -0.452693,2.671274 -0.607092,3.80803 -0.211981,0.06451 -0.442655,-0.01685 -0.634673,-0.02758 0.130396,-1.20276 0.33003,-2.48722 0.524355,-3.725176 0.08689,-0.554588 0.0073,-1.954558 0.634557,-1.931594 0.464348,0.01696 0.426614,0.674598 0.551933,1.13133 0.227097,0.827843 0.579052,1.647954 0.855537,2.373096 0.101895,-1.470938 0.675754,-2.469912 0.800148,-3.918348 0.05989,-0.06081 0.429501,-0.04985 0.524124,0.02769 z"
     id="path8-61" /><path
     style="clip-rule:evenodd;mix-blend-mode:normal;fill:#ffffff;fill-rule:evenodd;stroke-width:0.115394"
     d="m 33.121522,9.0104445 c 0.01928,0.2438292 -0.06024,0.379187 -0.02746,0.606977 -0.284562,0.00865 -0.50589,-0.046043 -0.745102,-0.082623 -0.14309,0.2080565 -0.640905,0.9388535 -0.496778,1.4623995 0.08978,0.326337 0.73345,0.387726 1.076175,0.717525 0.59959,0.576744 0.512238,2.289318 -0.02758,2.869639 -0.22479,0.241752 -1.125215,0.651289 -1.517675,0.08285 -0.207362,-0.300373 -0.143202,-0.686831 -0.303487,-1.131331 0.162362,-0.03589 0.342607,-0.183941 0.52424,-0.110434 0.172745,0.213596 0.144935,0.627748 0.303485,0.855538 0.799227,0.120127 1.03371,-1.431704 0.634675,-1.986753 -0.299913,-0.417383 -1.286538,-0.465272 -1.379778,-1.21407 -0.02619,-0.21048 0.01558,-0.53647 0.08286,-0.772683 0.23125,-0.8121495 0.688445,-1.7880438 1.876435,-1.2970388 z"
     id="path18-5" /><path
     style="clip-rule:evenodd;mix-blend-mode:normal;fill:#ffffff;fill-rule:evenodd;stroke-width:0.115394"
     d="m 30.417245,9.0656033 c -0.285258,1.9958697 -0.368343,4.1939107 -0.77257,6.0706927 -0.07466,-0.05124 -0.336723,0.03393 -0.413923,-0.08274 -0.205055,-0.872963 0.137783,-2.136191 0.220753,-3.228633 0.07316,-0.963777 0.18013,-1.8816285 0.331182,-2.7042785 0,-0.027579 0,-0.055159 0,-0.082738 0.26483,-0.040619 0.441385,0.079969 0.634558,0.027695 z"
     id="path4-9" /><path
     style="clip-rule:evenodd;mix-blend-mode:normal;fill:#ffffff;fill-rule:evenodd;stroke-width:0.115394"
     d="m 25.97958,9.507104 c -0.03473,0.2504073 -0.248563,0.3219518 -0.331185,0.524354 -0.234253,-0.1151642 -0.366263,-0.3325677 -0.606978,-0.4415005 -0.244636,0.1051248 -0.876193,0.9291595 -0.689829,1.4072405 0.05793,0.148744 0.324604,0.216135 0.524238,0.358762 0.452001,0.32299 0.793801,0.80061 0.800379,1.545252 0.005,0.586207 -0.175978,1.511905 -0.441615,1.904016 -0.303605,0.44831 -1.119564,0.608823 -1.517675,0 -0.276025,-0.422114 -0.210595,-0.91035 -0.358762,-1.490209 0.163515,-0.0667 0.448886,-0.178748 0.607092,-0.08262 0.141819,0.474273 0.07985,1.152679 0.49666,1.351966 0.387265,-0.323682 0.614707,-1.152334 0.551932,-1.903899 -0.07974,-0.954777 -1.301191,-0.734605 -1.352195,-1.738424 -0.02712,-0.535547 0.28537,-1.2254938 0.662366,-1.628106 0.237367,-0.253407 0.530124,-0.4672338 0.993434,-0.3586473 0.22329,0.181401 0.47312,0.3361453 0.662138,0.5518183 z"
     id="path2-90" /><path
     style="clip-rule:evenodd;mix-blend-mode:normal;fill:#ffffff;fill-rule:evenodd;stroke-width:0.115394"
     d="m 22.668322,9.3967865 c -0.08655,2.0289885 -0.105124,4.1260585 -0.441499,5.9051005 -0.16294,-0.02112 -0.425578,0.05781 -0.469083,-0.08274 -0.02977,-1.19376 0.05135,-2.539494 0.165592,-3.80803 0.06093,-0.67656 0.07478,-1.295423 0.138128,-1.9868685 0.188903,-0.049158 0.395227,-6.5e-4 0.606862,-0.027464 z"
     id="path15-9" /><path
     style="clip-rule:evenodd;mix-blend-mode:normal;fill:#ffffff;fill-rule:evenodd;stroke-width:0.115394"
     d="m 20.460817,9.2037308 c -0.114932,1.3587742 0.0021,2.6442732 -0.05527,3.9460432 -0.03058,0.696407 0.0016,1.414163 -0.165592,1.959173 -0.134435,-0.0127 -0.323221,0.02873 -0.413922,-0.02758 -0.155552,-0.730911 -0.107894,-1.532559 -0.08274,-2.566267 -0.411152,0.02447 -0.638827,0.02966 -1.021015,0.05527 -0.08874,0.886234 -0.106624,1.843434 -0.303603,2.621425 -0.117588,-0.01131 -0.284218,0.02666 -0.358763,-0.02758 -0.172631,-1.780081 0.01812,-4.03005 0.248561,-5.8227087 0.228713,-0.052043 0.351838,0.02077 0.634671,0.027695 -0.08643,0.8435367 -0.207941,1.6344527 -0.19317,2.5111067 0.209787,0.08747 0.609861,0.04431 0.96597,0.05516 0.0697,-1.021705 -0.0013,-1.797621 0.110202,-2.704278 0.13859,-0.1287808 0.502778,0.00277 0.634672,-0.027464 z"
     id="path10-1" /><path
     style="clip-rule:evenodd;mix-blend-mode:normal;fill:#ffffff;fill-rule:evenodd;stroke-width:0.115394"
     d="m 16.156126,9.9211405 c -0.237483,1.4690915 -0.01142,3.7847205 -0.386342,5.2428495 -0.163745,-0.04731 -0.32599,0.02585 -0.413806,-0.05516 -0.12428,-1.71823 0.01904,-3.714907 0.137897,-5.132648 C 15.021448,9.972942 14.539674,9.961872 14.03136,9.83817 13.94735,9.6279205 14.0639,9.3461263 14.05882,9.2037288 c 1.163296,0.2418677 2.378404,-0.02331 3.61486,-0.027579 0.0817,0.1121638 0.170207,0.5308163 0.02769,0.6070923 -0.379534,0.1805925 -1.14541,0.062082 -1.545253,0.1378967 z"
     id="path9-7" /></svg>
