<svg xmlns="http://www.w3.org/2000/svg" xml:space="preserve" width="512" height="512" viewBox="0 0 512 512"><circle cx="251.733" cy="251.733" r="251.733" style="display:inline;fill:#2d91d0;fill-opacity:1;stroke-width:2.84444;stroke-dasharray:none"/><circle cx="251.733" cy="251.733" r="8.391" style="fill:#fff;stroke-width:1.67821"/><path d="M363.213 394.715s66.441-54.048 69.145-138.858c2.334-73.213-34.334-115.42-34.334-115.42v0" style="fill:none;fill-opacity:1;stroke:#fff;stroke-width:3.4;stroke-linecap:round;stroke-dasharray:none;stroke-opacity:1"/><path d="M406.398 112.899c16.661 22.457 52.883 69.544 49.623 140.538-3.26 70.993-43.556 137.006-88.833 168.156" style="fill:none;fill-opacity:1;stroke:#fff;stroke-width:4.2;stroke-linecap:round;stroke-dasharray:none;stroke-opacity:1"/><path d="M412.91 85.41c38.372 37.086 65.756 82.493 68.201 164.155 2.561 85.545-49.175 164.43-122.939 206.947" style="fill:none;fill-opacity:1;stroke:#fff;stroke-width:6;stroke-linecap:round;stroke-dasharray:none;stroke-opacity:1"/><path d="M144.27 396.28s-66.44-54.047-69.145-138.856c-2.334-73.214 34.334-115.42 34.334-115.42v0" style="fill:none;fill-opacity:1;stroke:#fff;stroke-width:3.4;stroke-linecap:round;stroke-dasharray:none;stroke-opacity:1"/><path d="M101.085 114.464c-16.661 22.457-52.883 69.545-49.623 140.538 3.26 70.994 43.556 137.007 88.833 168.157" style="fill:none;fill-opacity:1;stroke:#fff;stroke-width:4.2;stroke-linecap:round;stroke-dasharray:none;stroke-opacity:1"/><path d="M94.574 86.975C56.2 124.062 28.817 169.47 26.372 251.13 23.81 336.675 75.547 415.56 149.31 458.077" style="fill:none;fill-opacity:1;stroke:#fff;stroke-width:6;stroke-linecap:round;stroke-dasharray:none;stroke-opacity:1"/><path d="M341.145 369.74c-.475 3.233-3.302 4.114-4.308 6.816-2.996-.15-5.622-6.42-8.971-6.457-2.634-.03-5.38 5.01-7.174 7.893-5.574 8.952-10.06 21.634-9.33 34.806.408 7.38 2.018 15.58 5.742 19.015 9.042-4.588 10.598-16.669 13.277-27.628-4.278-.14-7.96 3.235-12.2 4.306-.91-2.51-3.722-4.83-2.514-7.534.908-2.032 9.138-4.774 11.485-5.38 7.418-1.926 12.827 3.434 11.84 11.84-1.433 12.175-10.33 31.381-19.736 33.01-5.53.957-9.146-1.987-11.122-5.026-5.18-7.953-5.736-22.941-5.022-32.65.546-7.47 3.165-16.773 6.455-23.321 3.117-6.196 8.472-13.972 12.92-16.506 7.573-4.317 13.078 1.978 18.658 6.817zm-43.418-2.871c.112 13.842-4.592 26.917-7.176 40.186-1.994 10.23-3.812 20.383-5.38 31.218-1.565 1.273-2.35 3.126-4.667 3.23-7.262.322-8.664-15.471-10.764-21.887-3.122-9.528-5.596-17.706-7.179-25.476-4.516 16.756-6.13 36.29-10.761 52.027-3.064.612-5.695-1.158-7.896-1.076 3.634-18.75 7.328-39.143 10.764-59.206.788-4.611.911-16.389 4.664-17.94 7.207-2.98 7.618 7.7 8.972 13.635 3.106 13.633 6.368 27.154 10.764 37.674 1.756-10.589 5.13-24.416 7.894-35.521 1.048-4.212 1.451-8.466 2.512-11.842.335-1.07 1.532-4.255 2.152-5.024.05-.061-.509-.894 0-1.076 1.812-.646 4.473.538 6.1 1.078zm-73.915-1.076c5.025.225 8.12-.975 11.84 2.87 2.835 2.932 4.297 10.121 4.667 16.147.608 9.958-1.93 18.884-4.308 29.782-1.985 9.105-4.71 20.32-9.33 24.757-6.928 6.656-16.204 1.571-18.659-6.097-3.085-9.655.157-22.222 1.08-31.576 1.117-11.323 3.916-20.335 7.892-28.346 2.693-2.096 6.04-3.534 6.818-7.537zm-.358 13.278c-4.658 6.063-6 25.447-7.174 35.881-.588 5.204-2.244 18.335 2.51 18.659 2.095.141 4.266-5.14 5.38-8.253 5.473-15.252 8.242-33.672 6.1-50.95h-.718c-1.45 2.05-4.524 2.613-6.098 4.663zm-17.582-12.561c-.052 3.672-.753 4.134-.719 7.896-7.78-.696-15.936-4.196-20.453 1.793-2.344 3.11-5.997 9.231-5.38 13.276.604 3.98 5.845 5.85 9.688 10.046 7.972 8.71 11.222 28.382 2.87 39.828-1.61 2.209-4.809 5.067-8.97 5.382-11.034.834-12.731-6.862-13.992-16.505 1.79-.78 4.18-2.265 6.097-1.793 1.526 2.662 2.153 6.22 3.23 9.33 9.416 3.236 11.718-14.608 8.97-23.681-3.018-9.986-18.32-11.003-16.505-25.834.97-7.902 7.03-17.182 12.202-20.095 6.896-3.886 13.934-1.48 22.962.357zm171.676-95.95c-.227 2.644.602 6.343-.717 7.896-6.937.045-16.467.33-24.04-.719-3.799 6.128-4.057 15.8-5.742 24.04 6.84.021 15.598-1.148 22.25-2.512-.313 2.116 1.698 3.789.713 5.382-5.76 4.56-16.238 4.955-24.396 6.098-1.285 7.928-2.676 15.747-3.59 24.041 7.575-1.36 18.122-2.813 26.554-3.587.519 2.382 2.123 5.756.718 7.892-4.725.535-9.009 1.805-13.636 2.514-8.846 1.353-21.921 5.362-22.244-6.817-.058-2.16.82-4.167 1.073-6.458 1.562-13.96 4.032-31.48 7.179-45.572.828-3.721 2.759-8.182 1.793-13.275 10.12.273 23.676-.073 34.085 1.078zm-85.395 2.154c3.028-1.004 6.112-.213 8.611 0-1.934 16.277 1.573 32.742 1.073 47.722 5.531-14.252 11.739-28.837 16.866-44.493.632-1.934 1.293-5.567 2.153-6.458 1.607-1.67 7.154.118 7.894 1.791.49 1.114-2.025 7.132-2.873 10.05-5.4 18.616-12.264 31.345-18.297 49.874-1.975 6.067-2.86 18.365-9.689 17.582-5.832-.668-4.36-10.015-4.665-17.225-.876-20.873-1.361-40.13-1.073-58.843zm-28.706.717c4.446 3.265 9.242 1.259 13.637 4.306 3.04 2.11 4.636 6.444 5.022 12.2.712 10.623-1.414 20.84-4.308 31.576-2.76 10.251-4.892 21.174-9.686 26.194-6.48 6.78-16.624 3.62-19.019-4.665-4.417-15.28.552-46.99 5.741-57.77 1.912-3.966 6.56-8.313 8.613-11.841zm4.306 8.611c-1.25 2.037-3.758 3.936-5.026 6.46-4.062 8.104-6.44 30.132-6.455 40.186-.01 3.822.223 13.62 3.226 13.994 3.337.416 5.901-9.083 6.818-11.84 4.534-13.628 9.067-32.61 5.74-47.362-1.42-.49-2.157-1.669-4.303-1.438zm-37.317-9.687c-4.875 21.798-7.809 45.534-12.56 67.458 6.387-.494 14.17-2.302 21.89-1.795.536 2.193 1.6 5.705.357 7.534-10.892.548-30.3 9.424-30.856-6.46-.17-4.81 2.05-11.355 3.229-17.22 3.088-15.358 5.95-36.017 9.687-50.234 2.273-1.819 5.181 1.04 8.253.717zm-64.024 70.687c-2.191-.067-4.883.974-6.817 0-1.987-8.418-1.751-19.062-2.512-28.704-3.751-.914-8.163-1.166-12.199-1.795-4.886 10.663-8.797 21.2-11.125 33.73-3.032.018-5.883-1.157-7.892-1.078 3.431-19.319 10.835-38.523 19.017-55.974 2.28-4.868 5.21-13.706 9.687-15.07 11.89-3.628 9.17 19.172 10.046 30.14-.274 1.591 1.5 1.134 1.795 2.15-1.597 11.423 1.284 22.265 0 36.601zm-18.3-38.75c2.662.26 6.062 1.52 8.252 1.076-.972-6.025-.523-12.121-1.436-17.582-2.525 5.246-4.917 10.628-6.816 16.506zM325.133 153.7c-.05 2.987 1.1 5.998-.718 7.536-3.157 2.671-12.623-.518-18.658.357-3.408 24.386-7.867 47.793-11.125 70.686-1.705.354-5.106.039-7.175-.359-1.382-7.142 1.065-14.466 2.153-21.527 2.488-16.162 4.824-32.681 7.534-48.8-6.082-1.035-10.451-.174-17.58-.357-.885-2.596-.657-6.608-.719-8.253 6.287-.576 14.287.018 20.81-.36-.016-.613.268-.929.72-1.076 7.575 1.397 15.912 2.028 24.758 2.154zm-67.817-2.87c2.98 1.601 6.76 1.022 10.049 2.87 11.596 6.522 7.064 29.374 3.588 43.776-2.548 10.553-4.826 21.159-10.046 27.629-1.62 2.008-5.183 4.7-6.817 5.024-5.26 1.042-12.306-2.02-14.71-4.665-5.96-6.556-4.29-26.702-2.154-36.958 1.21-5.804 2.573-11.542 4.665-16.862 2.01-5.116 4.021-11.428 6.817-14.354 2.082-2.179 6.527-2.974 7.534-5.741.26-.336.651-.545 1.074-.719zm8.613 22.248c.287-3.873.345-12.65-5.382-12.56-2.109.034-3.84 2.31-5.741 2.511-7.017 14.443-13.874 36.65-9.33 55.976 1.748 1.243 3.793 2.187 6.46 2.512 8.255-9.445 12.651-30.328 13.993-48.439zM228.612 153.7c2.058 14.737-6.666 33.495-8.612 49.517-.954 7.87 1.92 22.06-6.815 21.886-6.896-.135-8.901-13.708-10.765-19.734-2.615-8.45-5.687-14.747-8.252-22.248-3.299 15.725-5.887 34.735-7.895 49.516-2.756.84-5.755-.219-8.252-.358 1.695-15.64 4.291-32.342 6.818-48.44 1.13-7.21.094-25.415 8.251-25.116 6.038.22 5.548 8.772 7.177 14.71 2.953 10.765 7.53 21.43 11.125 30.858 1.325-19.126 8.787-32.116 10.404-50.95.779-.791 5.585-.649 6.816.36zm145.997-92.612c.25 3.17-.784 4.93-.357 7.893-3.7.112-6.579-.599-9.69-1.075-1.86 2.706-8.333 12.209-6.459 19.016 1.168 4.244 9.537 5.042 13.994 9.33 7.797 7.5 6.66 29.769-.359 37.315-2.923 3.143-14.631 8.469-19.734 1.077-2.697-3.906-1.862-8.93-3.947-14.71 2.112-.467 4.455-2.393 6.817-1.437 2.246 2.778 1.885 8.163 3.946 11.125 10.393 1.562 13.442-18.617 8.253-25.834-3.9-5.427-16.729-6.05-17.941-15.787-.34-2.737.202-6.976 1.077-10.047 3.007-10.56 8.952-23.25 24.4-16.866zm-35.164.717c-3.71 25.953-4.79 54.535-10.046 78.939-.971-.667-4.379.44-5.383-1.076-2.666-11.351 1.792-27.777 2.87-41.983.952-12.532 2.343-24.467 4.307-35.164v-1.076c3.444-.528 5.74 1.04 8.252.36zm-57.705 5.741c-.45 3.256-3.231 4.187-4.306 6.819-3.046-1.498-4.762-4.325-7.892-5.741-3.181 1.367-11.394 12.082-8.97 18.298.753 1.934 4.22 2.81 6.817 4.665 5.877 4.2 10.321 10.41 10.407 20.094.064 7.622-2.288 19.66-5.742 24.758-3.948 5.83-14.558 7.916-19.735 0-3.59-5.489-2.738-11.838-4.665-19.378 2.126-.867 5.837-2.324 7.894-1.074 1.844 6.167 1.038 14.988 6.458 17.58 5.036-4.21 7.993-14.984 7.177-24.757-1.037-12.415-16.92-9.552-17.583-22.605-.352-6.964 3.711-15.935 8.613-21.17 3.087-3.296 6.893-6.076 12.918-4.664 2.903 2.359 6.152 4.37 8.61 7.175zm-43.056-1.434c-1.125 26.383-1.367 53.652-5.74 76.785-2.12-.275-5.535.752-6.1-1.076-.388-15.523.667-33.021 2.153-49.516.792-8.798.972-16.845 1.796-25.836 2.456-.64 5.139-.009 7.891-.357zm-28.704-2.51c-1.495 17.668.027 34.383-.72 51.31-.397 9.056.022 18.39-2.153 25.476-1.748-.165-4.202.374-5.382-.359-2.023-9.504-1.403-19.928-1.076-33.37-5.346.319-8.306.386-13.276.72-1.154 11.523-1.387 23.97-3.948 34.086-1.529-.147-3.696.347-4.665-.358-2.245-23.147.236-52.404 3.232-75.714 2.974-.677 4.575.27 8.253.36-1.124 10.969-2.704 21.253-2.512 32.653 2.728 1.137 7.93.576 12.56.717.907-13.286-.016-23.375 1.434-35.164 1.802-1.675 6.537.036 8.252-.357zm-55.975 9.328c-3.088 19.103-.149 49.214-5.024 68.174-2.13-.615-4.239.336-5.38-.717-1.617-22.343.247-48.306 1.792-66.741-6.143-.042-12.407-.186-19.017-1.795-1.092-2.734.423-6.398.357-8.25 15.127 3.146 30.927-.303 47.005-.358 1.062 1.458 2.213 6.902.36 7.894-4.935 2.348-14.894.807-20.093 1.793z" style="clip-rule:evenodd;mix-blend-mode:normal;fill:#fff;fill-rule:evenodd;stroke-width:1.50049"/></svg>