<?xml version="1.0" encoding="UTF-8" standalone="no"?>
<svg
   version="1.1"
   x="0px"
   y="0px"
   width="192"
   height="192"
   viewBox="0 0 192 192"
   xml:space="preserve"
   id="favicon.svg"
   xmlns="http://www.w3.org/2000/svg"
   xmlns:svg="http://www.w3.org/2000/svg"><defs
     id="defs1" /><rect
     style="opacity:1;fill:#000000;stroke-width:0.375"
     id="rect1"
     width="192"
     height="192"
     x="0"
     y="0" /><ellipse
     style="display:inline;fill:#999999;fill-opacity:1;stroke-width:0.874999;stroke-dasharray:none"
     id="path19-5"
     cx="97.312454"
     cy="97.312386"
     rx="77.437553"
     ry="77.4375" /><circle
     style="display:inline;fill:#2d91d0;fill-opacity:1;stroke-width:0.874999;stroke-dasharray:none"
     id="path19"
     cx="94.6875"
     cy="94.6875"
     r="77.4375" /><circle
     style="fill:#ffffff;stroke-width:0.516248"
     id="path20"
     cx="94.6875"
     cy="94.6875"
     r="2.5812497" /><path
     style="fill:none;fill-opacity:1;stroke:#ffffff;stroke-width:0.966461;stroke-linecap:round;stroke-dasharray:none;stroke-opacity:1"
     d="m 128.98049,138.67113 c 0,0 20.43851,-16.62622 21.27023,-42.714994 0.718,-22.52175 -10.56172,-35.505319 -10.56172,-35.505319 v 0"
     id="path53" /><path
     style="fill:none;fill-opacity:1;stroke:#ffffff;stroke-width:0.966461;stroke-linecap:round;stroke-dasharray:none;stroke-opacity:1"
     d="m 142.26493,51.979523 c 5.12544,6.908201 16.26769,21.393135 15.26489,43.231957 -1.0028,21.83883 -13.39856,42.14558 -27.32638,51.72792"
     id="path54" /><path
     style="fill:none;fill-opacity:1;stroke:#ffffff;stroke-width:0.966461;stroke-linecap:round;stroke-dasharray:none;stroke-opacity:1"
     d="m 144.26799,43.523539 c 11.8041,11.408329 20.22795,25.376351 20.98006,50.496844 0.78788,26.315067 -15.12722,50.581667 -37.81807,63.660427"
     id="path55" /><path
     style="fill:none;fill-opacity:1;stroke:#ffffff;stroke-width:0.966461;stroke-linecap:round;stroke-dasharray:none;stroke-opacity:1"
     d="m 61.630028,139.15272 c 0,0 -20.438513,-16.62621 -21.270229,-42.714994 C 39.641794,73.91598 50.921516,60.932411 50.921516,60.932411 v 0"
     id="path53-6" /><path
     style="fill:none;fill-opacity:1;stroke:#ffffff;stroke-width:0.966461;stroke-linecap:round;stroke-dasharray:none;stroke-opacity:1"
     d="M 48.345585,52.461116 C 43.220149,59.369317 32.077897,73.854251 33.080696,95.693074 34.083499,117.5319 46.479259,137.83865 60.407077,147.421"
     id="path54-8" /><path
     style="fill:none;fill-opacity:1;stroke:#ffffff;stroke-width:0.966461;stroke-linecap:round;stroke-dasharray:none;stroke-opacity:1"
     d="M 46.342526,44.005133 C 34.53843,55.413461 26.114576,69.381484 25.362465,94.501976 24.574586,120.81705 40.489691,145.08365 63.180544,158.1624"
     id="path55-9" /><path
     style="clip-rule:evenodd;mix-blend-mode:normal;fill:#ffffff;fill-rule:evenodd;stroke-width:0.461576"
     d="m 122.19215,130.98861 c -0.14632,0.99424 -1.01593,1.26519 -1.32519,2.0965 -0.92177,-0.0462 -1.72954,-1.9751 -2.75978,-1.98618 -0.81008,-0.009 -1.65523,1.54122 -2.20682,2.42791 -1.71477,2.75378 -3.09443,6.65505 -2.8701,10.70679 0.12555,2.27005 0.62083,4.79258 1.76647,5.8496 2.78147,-1.41151 3.26013,-5.12769 4.08405,-8.49906 -1.31596,-0.0429 -2.44868,0.99517 -3.75264,1.32473 -0.28018,-0.77223 -1.14517,-1.48582 -0.7736,-2.31759 0.27925,-0.62498 2.81101,-1.46875 3.53292,-1.65522 2.28205,-0.59221 3.94605,1.05655 3.64233,3.64232 -0.44081,3.74525 -3.17752,9.65347 -6.07116,10.15474 -1.70092,0.29403 -2.81333,-0.61158 -3.42122,-1.54629 -1.59383,-2.44637 -1.76462,-7.05708 -1.54491,-10.0435 0.16801,-2.29821 0.97347,-5.16 1.98572,-7.17433 0.95869,-1.90586 2.60607,-4.29777 3.97419,-5.07738 2.3296,-1.32796 4.02313,0.60837 5.73974,2.09696 z"
     id="path1-6" /><path
     style="clip-rule:evenodd;mix-blend-mode:normal;fill:#ffffff;fill-rule:evenodd;stroke-width:0.461576"
     d="m 108.83589,130.10515 c 0.0346,4.25807 -1.41243,8.28027 -2.20728,12.36202 -0.61343,3.14705 -1.17287,6.27009 -1.65522,9.60316 -0.48143,0.39142 -0.72283,0.96147 -1.43552,0.99331 -2.23403,0.0992 -2.66515,-4.75888 -3.31136,-6.73259 -0.960088,-2.93103 -1.721233,-5.44664 -2.2082,-7.83669 -1.389353,5.15446 -1.885549,11.16329 -3.310448,16.00434 -0.942543,0.18832 -1.751692,-0.35634 -2.428833,-0.33095 1.117946,-5.7679 2.254357,-12.04123 3.311373,-18.21301 0.242333,-1.41842 0.280182,-5.04137 1.434593,-5.51864 2.216962,-0.91669 2.343431,2.36883 2.759779,4.19438 0.955466,4.19391 1.958946,8.3532 3.311366,11.58933 0.54005,-3.25736 1.57815,-7.51082 2.42838,-10.92697 0.32219,-1.29565 0.44635,-2.60422 0.77268,-3.64278 0.10293,-0.32911 0.47127,-1.30904 0.6619,-1.54537 0.0153,-0.0189 -0.15647,-0.2751 0,-0.33095 0.5576,-0.19894 1.37597,0.16524 1.87679,0.33141 z"
     id="path13-4" /><path
     style="clip-rule:evenodd;mix-blend-mode:normal;fill:#ffffff;fill-rule:evenodd;stroke-width:0.461576"
     d="m 86.098481,129.7742 c 1.545829,0.0692 2.498066,-0.30003 3.642327,0.883 0.87192,0.90192 1.3215,3.11335 1.435511,4.96705 0.186941,3.06305 -0.594056,5.80898 -1.325198,9.16143 -0.610665,2.80086 -1.448895,6.25071 -2.8701,7.6156 -2.131114,2.04757 -4.984597,0.48327 -5.739742,-1.8754 -0.949005,-2.97026 0.04801,-6.83599 0.331875,-9.71347 0.343878,-3.48308 1.204725,-6.25533 2.427911,-8.7197 0.828536,-0.64483 1.857859,-1.08702 2.097416,-2.31851 z m -0.110314,4.08452 c -1.432747,1.86523 -1.845858,7.82792 -2.206815,11.03774 -0.180937,1.60076 -0.69006,5.64004 0.772219,5.73974 0.644374,0.0434 1.312275,-1.58091 1.655228,-2.53868 1.683378,-4.69196 2.534992,-10.35831 1.87632,-15.67339 -0.07385,0 -0.14724,0 -0.2211,0 -0.445879,0.63097 -1.391659,0.80406 -1.875852,1.43459 z"
     id="path12-9" /><path
     style="clip-rule:evenodd;mix-blend-mode:normal;fill:#ffffff;fill-rule:evenodd;stroke-width:0.461576"
     d="m 80.579839,129.99483 c -0.01616,1.12949 -0.231713,1.27165 -0.221096,2.42884 -2.393292,-0.21418 -4.902439,-1.29058 -6.291792,0.55158 -0.72099,0.95685 -1.844932,2.83964 -1.655227,4.08405 0.186019,1.22411 1.798316,1.79924 2.980421,3.09028 2.452369,2.67947 3.452153,8.73077 0.882536,12.2517 -0.494808,0.67945 -1.478898,1.55875 -2.758856,1.65568 -3.394459,0.25664 -3.916504,-2.1108 -4.304231,-5.07737 0.550665,-0.24002 1.2855,-0.69652 1.875397,-0.55159 0.469429,0.81885 0.66237,1.91372 0.993784,2.8701 2.89641,0.99563 3.604474,-4.49348 2.759321,-7.28464 -0.928698,-3.07181 -5.635886,-3.38476 -5.077372,-7.94701 0.298639,-2.43068 2.162497,-5.28555 3.753562,-6.18147 2.12142,-1.1955 4.286228,-0.45558 7.063553,0.10985 z"
     id="path6-5" /><path
     style="clip-rule:evenodd;mix-blend-mode:normal;fill:#ffffff;fill-rule:evenodd;stroke-width:0.461576"
     d="m 133.39025,100.47906 c -0.0697,0.81331 0.18509,1.9511 -0.22064,2.42883 -2.13388,0.0139 -5.06537,0.10155 -7.39496,-0.2211 -1.16872,1.88509 -1.24812,4.86043 -1.76647,7.39497 2.10388,0.006 4.79812,-0.35311 6.84431,-0.77269 -0.096,0.65083 0.5225,1.1655 0.21971,1.65569 -1.77201,1.40274 -4.99522,1.52414 -7.50483,1.87586 -0.39511,2.43852 -0.82299,4.84382 -1.10409,7.39542 2.33005,-0.41865 5.57449,-0.86545 8.16811,-1.10363 0.1597,0.73298 0.65313,1.77062 0.2211,2.42791 -1.45352,0.16432 -2.77133,0.55527 -4.19484,0.77314 -2.72101,0.41635 -6.74321,1.64969 -6.84246,-2.09696 -0.018,-0.6642 0.25203,-1.2818 0.33003,-1.98663 0.48051,-4.29407 1.24027,-9.68347 2.2082,-14.01863 0.25479,-1.14472 0.84884,-2.51699 0.55158,-4.08359 3.11336,0.084 7.28327,-0.0226 10.48525,0.33141 z"
     id="path11-8" /><path
     style="clip-rule:evenodd;mix-blend-mode:normal;fill:#ffffff;fill-rule:evenodd;stroke-width:0.461576"
     d="m 107.12129,101.14143 c 0.93147,-0.3088 1.88002,-0.0656 2.64901,0 -0.59498,5.00721 0.48374,10.07212 0.33003,14.68007 1.70138,-4.38409 3.61094,-8.87064 5.18816,-13.68676 0.19432,-0.59497 0.39787,-1.71246 0.66236,-1.98663 0.49435,-0.513734 2.20081,0.0365 2.42837,0.55112 0.15048,0.34249 -0.62313,2.19389 -0.88392,3.0912 -1.66123,5.72682 -3.7725,9.6424 -5.62851,15.34244 -0.60744,1.86617 -0.87976,5.64927 -2.98041,5.40833 -1.79416,-0.20541 -1.34136,-3.08058 -1.43506,-5.29847 -0.26956,-6.42103 -0.41865,-12.34495 -0.33003,-18.1013 z"
     id="path7-7" /><path
     style="clip-rule:evenodd;mix-blend-mode:normal;fill:#ffffff;fill-rule:evenodd;stroke-width:0.461576"
     d="m 98.290815,101.36207 c 1.367655,1.00438 2.842865,0.38726 4.194835,1.32472 0.93516,0.64898 1.42628,1.98203 1.54491,3.75265 0.21925,3.26798 -0.43481,6.41088 -1.3252,9.71347 -0.84885,3.15352 -1.50475,6.51335 -2.979499,8.05779 -1.99356,2.08542 -5.113837,1.11379 -5.850517,-1.43505 -1.358888,-4.70072 0.169864,-14.45481 1.766006,-17.7708 0.588049,-1.22042 2.018025,-2.55761 2.649465,-3.64278 z m 1.324729,2.649 c -0.384492,0.62636 -1.156257,1.21072 -1.54629,1.9871 -1.249493,2.49299 -1.981099,9.26897 -1.985712,12.36201 -0.0026,1.17565 0.06878,4.18976 0.992393,4.3047 1.026559,0.12785 1.815398,-2.79394 2.09742,-3.64233 1.394895,-4.19206 2.789325,-10.0315 1.765545,-14.56929 -0.43666,-0.15094 -0.66329,-0.51327 -1.323356,-0.44219 z"
     id="path16-1" /><path
     style="clip-rule:evenodd;mix-blend-mode:normal;fill:#ffffff;fill-rule:evenodd;stroke-width:0.461576"
     d="m 88.136066,101.03111 c -1.499677,6.70537 -2.402062,14.00709 -3.863887,20.75123 1.964943,-0.15186 4.359157,-0.70807 6.733987,-0.55206 0.164783,0.67437 0.492045,1.75493 0.109856,2.3176 -3.350602,0.16848 -9.320677,2.89872 -9.491921,-1.9871 -0.05216,-1.47982 0.630514,-3.49323 0.993315,-5.29755 0.949931,-4.72426 1.830161,-11.07929 2.97996,-15.45276 0.699293,-0.55943 1.593833,0.31988 2.53869,0.22064 z"
     id="path14-7" /><path
     style="clip-rule:evenodd;mix-blend-mode:normal;fill:#ffffff;fill-rule:evenodd;stroke-width:0.461576"
     d="m 68.441107,122.77565 c -0.673904,-0.0208 -1.501979,0.29957 -2.096954,0 -0.611134,-2.58946 -0.538666,-5.8639 -0.772688,-8.83001 -1.153946,-0.2811 -2.510992,-0.35865 -3.75264,-0.55205 -1.502902,3.27999 -2.70624,6.5212 -3.422152,10.37584 -0.93285,0.006 -1.809852,-0.35587 -2.427908,-0.33141 1.055633,-5.94284 3.333068,-11.85059 5.85006,-17.21876 0.701141,-1.49736 1.602604,-4.21607 2.97996,-4.63563 3.657555,-1.11611 2.820709,5.89759 3.090274,9.27174 -0.08447,0.48927 0.461115,0.34849 0.552048,0.66144 -0.491122,3.51354 0.395112,6.84892 0,11.25884 z m -5.629421,-11.92028 c 0.818839,0.0803 1.864781,0.46758 2.538687,0.33095 -0.299104,-1.85325 -0.161093,-3.72864 -0.441732,-5.40833 -0.776838,1.61369 -1.512596,3.26937 -2.096955,5.07738 z"
     id="path17-2" /><path
     style="clip-rule:evenodd;mix-blend-mode:normal;fill:#ffffff;fill-rule:evenodd;stroke-width:0.461576"
     d="m 117.2664,64.53096 c -0.0153,0.918544 0.33833,1.844932 -0.22063,2.318055 -0.97117,0.82161 -3.88328,-0.159251 -5.73975,0.109852 -1.04824,7.501587 -2.42006,14.701767 -3.42215,21.744083 -0.52435,0.108934 -1.57075,0.01196 -2.20727,-0.110321 -0.42511,-2.197118 0.32773,-4.45008 0.66237,-6.622275 0.76529,-4.971675 1.48398,-10.053199 2.31758,-15.011487 -1.87078,-0.318487 -3.21489,-0.05354 -5.40786,-0.109852 -0.27233,-0.798536 -0.20217,-2.0328 -0.22109,-2.53869 1.93402,-0.177247 4.39469,0.0055 6.40165,-0.110775 -0.005,-0.18879 0.0821,-0.285724 0.22108,-0.330956 2.33052,0.429731 4.89506,0.623591 7.61607,0.662366 z"
     id="path5-2" /><path
     style="clip-rule:evenodd;mix-blend-mode:normal;fill:#ffffff;fill-rule:evenodd;stroke-width:0.461576"
     d="m 96.40485,63.647959 c 0.916695,0.492506 2.079416,0.314336 3.0912,0.883001 3.56709,2.006029 2.17312,9.035884 1.10364,13.466119 -0.783765,3.246285 -1.484449,6.508732 -3.090281,8.49906 -0.498045,0.617595 -1.594294,1.445666 -2.096955,1.545367 -1.618298,0.320801 -3.785411,-0.621288 -4.525324,-1.43505 -1.833397,-2.016637 -1.319655,-8.213805 -0.662366,-11.368702 0.37203,-1.785386 0.791606,-3.550466 1.43505,-5.187229 0.618056,-1.573522 1.237035,-3.515385 2.096955,-4.415464 0.640672,-0.670211 2.007874,-0.91485 2.317594,-1.766002 0.08031,-0.103395 0.200324,-0.167554 0.330487,-0.2211 z m 2.649465,6.843836 c 0.08816,-1.191334 0.106163,-3.891574 -1.655685,-3.863419 -0.648517,0.01016 -1.181182,0.710374 -1.766002,0.772226 -2.158343,4.4427 -4.267763,11.274072 -2.8701,17.219217 0.537735,0.382189 1.166872,0.672517 1.987098,0.77268 2.539609,-2.905639 3.892035,-9.329438 4.304689,-14.900704 z"
     id="path3-2" /><path
     style="clip-rule:evenodd;mix-blend-mode:normal;fill:#ffffff;fill-rule:evenodd;stroke-width:0.461576"
     d="m 87.57483,64.53096 c 0.633293,4.533172 -2.050331,10.30338 -2.649,15.232121 -0.293565,2.420981 0.59082,6.786139 -2.096498,6.732596 -2.121419,-0.04156 -2.738088,-4.216987 -3.311366,-6.070687 -0.804536,-2.599155 -1.74939,-4.536405 -2.53869,-6.84384 -1.014551,4.837354 -1.810773,10.685096 -2.428368,15.232117 -0.847924,0.258023 -1.770619,-0.06739 -2.53869,-0.110317 0.521583,-4.81104 1.32012,-9.948881 2.09742,-14.900704 0.347568,-2.218354 0.02906,-7.818232 2.538225,-7.726376 1.857393,0.06785 1.706459,2.698391 2.207733,4.52532 0.908389,3.31137 2.31621,6.591814 3.422149,9.492382 0.40758,-5.883753 2.703015,-9.879648 3.200591,-15.673391 0.239565,-0.243251 1.718006,-0.199402 2.096494,0.110779 z"
     id="path8-61" /><path
     style="clip-rule:evenodd;mix-blend-mode:normal;fill:#ffffff;fill-rule:evenodd;stroke-width:0.461576"
     d="m 132.48609,36.041778 c 0.0771,0.975317 -0.24095,1.516748 -0.10986,2.427908 -1.13825,0.03461 -2.02356,-0.18417 -2.98041,-0.330491 -0.57236,0.832226 -2.56362,3.755411 -1.98711,5.849595 0.35911,1.305349 2.9338,1.550906 4.3047,2.8701 2.39836,2.306978 2.04895,9.157275 -0.11032,11.478559 -0.89916,0.967008 -4.50086,2.605155 -6.0707,0.331414 -0.82945,-1.201493 -0.57281,-2.747322 -1.21395,-4.525324 0.64945,-0.14355 1.37043,-0.735762 2.09696,-0.441735 0.69098,0.854385 0.57974,2.510992 1.21394,3.422152 3.19691,0.480506 4.13484,-5.726816 2.5387,-7.947011 -1.19965,-1.669534 -5.14615,-1.861091 -5.51911,-4.85628 -0.10478,-0.84192 0.0623,-2.145881 0.33142,-3.090735 0.925,-3.248595 2.75378,-7.152172 7.50574,-5.188152 z"
     id="path18-5" /><path
     style="clip-rule:evenodd;mix-blend-mode:normal;fill:#ffffff;fill-rule:evenodd;stroke-width:0.461576"
     d="m 121.66898,36.262413 c -1.14103,7.983477 -1.47337,16.775641 -3.09028,24.28277 -0.29864,-0.204942 -1.34689,0.135705 -1.65569,-0.330953 -0.82022,-3.49185 0.55113,-8.544761 0.88301,-12.914531 0.29264,-3.855109 0.72052,-7.526513 1.32473,-10.817113 0,-0.110317 0,-0.220635 0,-0.330952 1.05932,-0.162476 1.76554,0.319875 2.53823,0.110779 z"
     id="path4-9" /><path
     style="clip-rule:evenodd;mix-blend-mode:normal;fill:#ffffff;fill-rule:evenodd;stroke-width:0.461576"
     d="m 103.91832,38.028416 c -0.13894,1.001629 -0.99425,1.287807 -1.32474,2.097417 -0.93701,-0.460658 -1.46505,-1.330272 -2.42791,-1.766003 -0.978545,0.420499 -3.504774,3.716636 -2.759319,5.62896 0.231713,0.594979 1.298419,0.86454 2.096955,1.43505 1.808004,1.291961 3.175204,3.20244 3.201514,6.181009 0.0198,2.344826 -0.70391,6.047617 -1.76646,7.616062 -1.214419,1.793239 -4.478254,2.435292 -6.070699,0 -1.104101,-1.688456 -0.842381,-3.6414 -1.43505,-5.960835 0.65406,-0.266793 1.795545,-0.71499 2.428369,-0.330491 0.567277,1.897091 0.319414,4.610715 1.986641,5.407864 1.549058,-1.294729 2.458829,-4.609335 2.207729,-7.615598 -0.318944,-3.819108 -5.204766,-2.938417 -5.408781,-6.953696 -0.108477,-2.142187 1.141481,-4.901974 2.649465,-6.512423 0.949466,-1.013628 2.120493,-1.868935 3.973736,-1.434589 0.89316,0.725604 1.89248,1.344581 2.64855,2.207273 z"
     id="path2-90" /><path
     style="clip-rule:evenodd;mix-blend-mode:normal;fill:#ffffff;fill-rule:evenodd;stroke-width:0.461576"
     d="m 90.67329,37.587146 c -0.346185,8.115953 -0.420499,16.504234 -1.765999,23.620403 -0.651757,-0.08447 -1.702312,0.231251 -1.876331,-0.330953 -0.119085,-4.77504 0.205406,-10.157977 0.66237,-15.232121 0.243713,-2.70624 0.299108,-5.18169 0.55251,-7.947473 0.75561,-0.196631 1.58091,-0.0026 2.42745,-0.109856 z"
     id="path15-9" /><path
     style="clip-rule:evenodd;mix-blend-mode:normal;fill:#ffffff;fill-rule:evenodd;stroke-width:0.461576"
     d="m 81.84327,36.814923 c -0.459731,5.435097 0.0083,10.577093 -0.221093,15.784171 -0.122321,2.785631 0.0065,5.656653 -0.66237,7.836694 -0.537738,-0.05078 -1.292883,0.114933 -1.655688,-0.110318 -0.622208,-2.923643 -0.431577,-6.130234 -0.330953,-10.265066 -1.644607,0.09786 -2.555306,0.118627 -4.084057,0.221096 -0.354957,3.544935 -0.426499,7.373734 -1.214415,10.485701 -0.470352,-0.04523 -1.136869,0.106624 -1.43505,-0.110317 -0.690525,-7.120324 0.07247,-16.1202 0.994245,-23.290835 0.91485,-0.208172 1.407352,0.08308 2.538682,0.11078 -0.34572,3.374145 -0.831765,6.53781 -0.77268,10.044427 0.839149,0.349879 2.439446,0.177248 3.86388,0.220635 0.278798,-4.086821 -0.0051,-7.190482 0.440809,-10.817111 0.554359,-0.515123 2.01111,0.01108 2.53869,-0.109857 z"
     id="path10-1" /><path
     style="clip-rule:evenodd;mix-blend-mode:normal;fill:#ffffff;fill-rule:evenodd;stroke-width:0.461576"
     d="m 64.624504,39.684562 c -0.949932,5.876367 -0.0457,15.138882 -1.545368,20.971399 -0.654982,-0.189247 -1.303961,0.103395 -1.655224,-0.220635 -0.497122,-6.872917 0.07616,-14.859626 0.551588,-20.53059 -1.889708,-0.01294 -3.816803,-0.05724 -5.85006,-0.552048 -0.33603,-0.840998 0.130166,-1.968175 0.109856,-2.537765 4.653184,0.967471 9.513615,-0.09324 14.459438,-0.110317 0.326801,0.448655 0.680831,2.123265 0.110782,2.428369 -1.518135,0.72237 -4.581641,0.248329 -6.181012,0.551587 z"
     id="path9-7" /></svg>
